<?xml version="1.0" encoding="UTF-8"?>
<svg version="1.1" xmlns="http://www.w3.org/2000/svg" width="500" height="500">
<path d="M0 0 C5.67458259 1.89152753 9.32628019 5.65256038 12 11 C12.79014501 17.70494478 12.44310053 22.85303108 8.4375 28.40625 C6.51977906 30.53241887 4.62434469 31.86514824 2 33 C1.34 33 0.68 33 0 33 C0 58.74 0 84.48 0 111 C13.2 111 26.4 111 40 111 C40 99.78 40 88.56 40 77 C38.35 76.34 36.7 75.68 35 75 C31.24961769 71.0751813 28.05358281 67.54316359 27.96875 61.93359375 C28.43588964 55.03160551 30.39882723 50.29871082 35.6875 45.625 C41.19990632 42.92080067 46.3308291 42.18623451 52.25 44.0625 C57.59263029 46.38260638 60.7574098 50.68860215 63 56 C63.98374207 62.82900019 62.90541325 67.38596846 59 73 C58.34 73 57.68 73 57 73 C57 73.66 57 74.32 57 75 C54 77 54 77 51 77 C51 88.22 51 99.44 51 111 C56.61 111 62.22 111 68 111 C74.96663937 112.47073498 79.58416252 114.4083117 85 119 C85 119.66 85 120.32 85 121 C85.66 121 86.32 121 87 121 C87.64834654 122.269553 88.29357815 123.54069706 88.9375 124.8125 C89.29714844 125.52019531 89.65679687 126.22789062 90.02734375 126.95703125 C91.60540231 130.27158798 92.15473341 133.04187793 92.31640625 136.66796875 C92.35451416 137.47258545 92.39262207 138.27720215 92.43188477 139.10620117 C92.49653931 140.63144409 92.49653931 140.63144409 92.5625 142.1875 C92.706875 145.425625 92.85125 148.66375 93 152 C109.83 152.495 109.83 152.495 127 153 C127.33 151.68 127.66 150.36 128 149 C131.50992032 145.00259074 134.84669818 141.49645409 140.2578125 140.64453125 C146.78159695 140.27544864 151.06358021 141.73466032 156 146 C159.70371522 149.7963081 160.29656006 152.85678396 160.5 158 C160.3154104 163.31354349 159.65780915 166.13897923 156 170 C153.75 171.375 153.75 171.375 152 172 C152 172.66 152 173.32 152 174 C146.1245969 175.66132088 139.65154719 176.27272398 134.125 173.3125 C131.10243826 171.07580431 129.0250527 169.15908222 127 166 C127 165.01 127 164.02 127 163 C115.78 163.33 104.56 163.66 93 164 C93 176.87 93 189.74 93 203 C106.58781575 203.17450172 106.58781575 203.17450172 120.17578125 203.29296875 C125.71763549 203.32884472 131.25889529 203.37129465 136.80029297 203.45263672 C141.26775372 203.51780449 145.73457716 203.5537005 150.2024765 203.56926346 C151.90741767 203.58035461 153.61232372 203.60201377 155.31699371 203.63438034 C157.70461007 203.67791319 160.08959004 203.683936 162.47753906 203.68115234 C163.18316483 203.702724 163.88879059 203.72429565 164.61579895 203.746521 C166.85284602 203.78263409 166.85284602 203.78263409 170 203 C172.37703296 200.18278353 172.37703296 200.18278353 174 197 C179.27971851 192.34881941 182.32294991 191.69873303 189.2421875 191.7890625 C194.45541395 192.18780787 197.4907558 194.21379354 200.8125 198.0625 C204.70400381 203.28823369 204.49707253 207.61035855 204 214 C202.11157172 219.46650293 199.06113159 222.20198797 194.14453125 225.08984375 C189.17296837 227.19981488 183.57430612 226.58307634 178.625 224.75 C174.36485607 221.90990405 172.30690449 219.61380899 170 215 C144.59 215 119.18 215 93 215 C93 227.54 93 240.08 93 253 C109.83 253.495 109.83 253.495 127 254 C127.66 252.35 128.32 250.7 129 249 C132.93970195 245.23539592 136.49185112 241.99358657 142.13671875 242.00390625 C148.54455986 242.50170548 152.52049967 244.13609337 156.75 249.0625 C160.73204413 254.26127983 160.49880429 258.5880976 160 265 C158.11262647 270.46344971 155.06388452 273.21058845 150.140625 276.0859375 C146.21450659 277.76241872 142.1798719 277.55048849 138 277 C135.34376406 275.91870041 133.37464658 274.65192806 131 273 C131 272.34 131 271.68 131 271 C130.34 271 129.68 271 129 271 C128.34 269.02 127.68 267.04 127 265 C115.45 265 103.9 265 92 265 C92.103125 268.25875 92.20625 271.5175 92.3125 274.875 C92.41131276 282.93688588 92.14410301 289.41269031 87 296 C86.278125 296.928125 85.55625 297.85625 84.8125 298.8125 C74.03829512 307.19243713 64.37464469 306.74605105 51 307 C51 318.22 51 329.44 51 341 C52.65 341.66 54.3 342.32 56 343 C59.78842096 346.3479069 62.55105713 349.22127994 63.37109375 354.296875 C63.54690948 360.79171488 62.41249219 365.12717147 58 370 C53.46555252 374.16933612 48.58906962 374.62088212 42.5859375 374.390625 C38.91063407 373.83544321 36.77006637 372.4322534 34 370 C33.2575 369.484375 32.515 368.96875 31.75 368.4375 C28.81709216 364.35237837 28.10778277 359.97821683 28 355 C29.41446711 348.60542992 32.65414132 344.60264389 38 341 C38.66 341 39.32 341 40 341 C40 329.78 40 318.56 40 307 C26.8 307 13.6 307 0 307 C0 332.74 0 358.48 0 385 C1.98 385.66 3.96 386.32 6 387 C10.97832776 392.25490152 12.42349968 396.42848336 12.24609375 403.53515625 C11.74783309 408.52567179 9.67535858 411.59427557 6 414.8125 C0.67722564 418.69368964 -4.6086939 418.65927513 -11 418 C-15.45146251 415.81473658 -18.18885145 413.0605479 -21 409 C-22.81493882 403.55518355 -22.74020057 397.99854153 -20.75 392.625 C-18.23835644 388.85753465 -16.34933967 386.44977989 -12 385 C-11.07974381 375.79757336 -10.79477511 366.6309873 -10.68359375 357.390625 C-10.66296356 355.92803442 -10.6419658 354.46544898 -10.62062073 353.00286865 C-10.56602491 349.19559964 -10.5163463 345.38828259 -10.46777344 341.58093262 C-10.40814939 336.99012118 -10.34227334 332.39939552 -10.27747345 327.80865479 C-10.180253 320.87248991 -10.09085965 313.93626423 -10 307 C-23.53 307 -37.06 307 -51 307 C-51 318.22 -51 329.44 -51 341 C-49.68 341.33 -48.36 341.66 -47 342 C-43.28770482 344.53522598 -40.69496096 346.80720183 -39 351 C-38.09127463 358.14790081 -38.63666656 363.2215314 -43 369 C-48.40323642 373.88864248 -51.85557173 374.34048392 -59.01171875 374.2890625 C-62.9416375 373.9089135 -65.0831885 372.61765134 -68 370 C-68.5775 369.525625 -69.155 369.05125 -69.75 368.5625 C-73.17000939 364.28748826 -73.41525295 359.81389725 -73.3359375 354.515625 C-72.81595014 350.62176615 -71.22659312 348.2007276 -69 345 C-68.34 345 -67.68 345 -67 345 C-67 344.34 -67 343.68 -67 343 C-64 341 -64 341 -61 341 C-61 329.78 -61 318.56 -61 307 C-67.50531399 306.83028406 -67.50531399 306.83028406 -74.01147461 306.70214844 C-80.46474387 306.46418218 -85.31457514 305.03076698 -91 302 C-91.66 301.67 -92.32 301.34 -93 301 C-93 300.34 -93 299.68 -93 299 C-93.66 299 -94.32 299 -95 299 C-95 298.34 -95 297.68 -95 297 C-95.66 297 -96.32 297 -97 297 C-97.82545462 295.48615887 -98.63471087 293.96348161 -99.4375 292.4375 C-99.88996094 291.59058594 -100.34242188 290.74367188 -100.80859375 289.87109375 C-104.0860503 281.97296075 -103 273.38095678 -103 265 C-114.22 265 -125.44 265 -137 265 C-137.66 266.65 -138.32 268.3 -139 270 C-144.61166073 275.13407258 -147.97012406 277.43215173 -155.5 277.24609375 C-160.57592569 276.74643232 -163.24875473 274.76831902 -166.75 271.1875 C-170.51290395 265.8567194 -171.54746259 261.63348628 -170.58984375 255.2421875 C-169.34126928 250.49595077 -167.03967298 247.34812671 -162.94921875 244.64453125 C-157.54588425 241.91020135 -153.85489485 241.56027176 -148 243 C-142.76113904 244.95173251 -140.20362649 247.5714575 -137 252 C-137 252.66 -137 253.32 -137 254 C-125.78 254 -114.56 254 -103 254 C-103 240.8 -103 227.6 -103 214 C-128.74 214 -154.48 214 -181 214 C-181.66 215.65 -182.32 217.3 -183 219 C-186.46570178 222.92171517 -189.31165483 225.65075878 -194.5859375 226.3359375 C-201.63813925 226.43470783 -205.2521134 225.57843428 -210.46875 220.59765625 C-214.43947558 216.08647079 -214.68549634 211.67416859 -214.421875 205.80859375 C-213.64404048 200.63023248 -211.18600411 198.04481314 -207.375 194.6875 C-202.48080373 191.21004476 -197.87843157 191.29490511 -192 192 C-187.65737169 193.70451698 -184.7759494 195.95731799 -182 199.6875 C-181 202 -181 202 -181 204 C-155.26 204 -129.52 204 -103 204 C-103 190.47 -103 176.94 -103 163 C-114.22 163 -125.44 163 -137 163 C-137.99 165.97 -137.99 165.97 -139 169 C-142.0835085 172.61603643 -145.68252392 174.77489484 -150.453125 175.23828125 C-156.94261081 175.41048828 -160.81579074 175.02040718 -166 171 C-170.07466335 166.38919673 -171.07588335 162.00562485 -171 156 C-170.02560344 150.58668579 -166.97147038 146.68643662 -163 143 C-158.36857395 140.06773445 -153.29676375 140.35842017 -148 141 C-145.29895175 142.06742457 -143.38859038 143.30144684 -141 145 C-141 145.66 -141 146.32 -141 147 C-140.34 147 -139.68 147 -139 147 C-138.34 148.98 -137.68 150.96 -137 153 C-125.78 153 -114.56 153 -103 153 C-103 147.39 -103 141.78 -103 136 C-101.73969768 130.47867554 -100.48963325 125.55169554 -97 121 C-96.34 121 -95.68 121 -95 121 C-95 120.34 -95 119.68 -95 119 C-94.34 119 -93.68 119 -93 119 C-93 118.34 -93 117.68 -93 117 C-91.63182703 116.17605584 -90.25505089 115.36639103 -88.875 114.5625 C-88.10929687 114.11003906 -87.34359375 113.65757812 -86.5546875 113.19140625 C-78.68923248 109.52326591 -69.28838914 111 -61 111 C-61 99.78 -61 88.56 -61 77 C-63.97 76.01 -63.97 76.01 -67 75 C-67 74.34 -67 73.68 -67 73 C-67.66 73 -68.32 73 -69 73 C-72.96159167 67.30521197 -73.91593389 62.90385168 -73 56 C-71.24244655 50.62395416 -67.8249771 46.87445444 -63 44 C-57.71174535 42.29104877 -52.92150106 42.70697554 -47.859375 44.9140625 C-44.25040297 47.02182348 -40.73771854 49.82283066 -39.359375 53.890625 C-38.43363062 59.32434199 -38.01916924 64.86877741 -40.625 69.875 C-43.13795774 73.18152334 -45.36430216 75.02407726 -49 77 C-49.66 77 -50.32 77 -51 77 C-51 88.22 -51 99.44 -51 111 C-37.47 111 -23.94 111 -10 111 C-10 85.26 -10 59.52 -10 33 C-12.97 32.01 -12.97 32.01 -16 31 C-21.20489721 25.50594183 -22.46481549 21.12176238 -22.31640625 13.69140625 C-21.7169643 8.59244941 -19.09341652 5.96324789 -15.375 2.6875 C-10.4577568 -0.80633069 -5.8950431 -0.45089565 0 0 Z M-9.75 12.1875 C-12.27330408 14.74133721 -12.27330408 14.74133721 -12 17.625 C-10.62360631 20.893935 -9.34626837 22.43543585 -6.0625 23.8125 C-3.3697936 24.05729149 -2.2063088 23.54441616 0 22 C1.70984574 19.63878446 2.00879588 18.36063104 1.9375 15.4375 C0.67699008 12.16017422 -0.85283854 11.4237159 -4 10 C-7.19435334 9.68873822 -7.19435334 9.68873822 -9.75 12.1875 Z M-60.25 55.625 C-62.49369241 58.67001113 -62.5518663 60.29461199 -62 64 C-61 66 -61 66 -59 67 C-55.34740261 67.54400387 -53.6566114 67.43774093 -50.5625 65.375 C-48.71946658 63.04740442 -48.71946658 63.04740442 -49 59.9375 C-50.13592862 56.60070968 -50.89416181 55.59728821 -54 54 C-57.92212225 53.60967296 -57.92212225 53.60967296 -60.25 55.625 Z M41.1875 55.5625 C38.55477613 57.92055636 38.55477613 57.92055636 39.1875 61.75 C39.455625 62.8225 39.72375 63.895 40 65 C40.66 65 41.32 65 42 65 C42 65.66 42 66.32 42 67 C46.65951036 67.3849808 46.65951036 67.3849808 50.9375 65.875 C52.52990283 63.06487736 52.45319325 61.17235276 52 58 C50.37419918 55.54047777 50.37419918 55.54047777 48 54 C44.04654078 53.67623805 44.04654078 53.67623805 41.1875 55.5625 Z M-88 127 C-89.95500857 129.52980707 -89.95500857 129.52980707 -91 132 C-91.33 132.66 -91.66 133.32 -92 134 C-92.10238318 135.9456899 -92.1395079 137.89492554 -92.14717102 139.84329224 C-92.15432632 141.08818924 -92.16148163 142.33308624 -92.16885376 143.6157074 C-92.1716942 145.00308203 -92.17440591 146.39045692 -92.17700195 147.77783203 C-92.18326579 149.23311018 -92.18991251 150.68838672 -92.19691467 152.1436615 C-92.21797326 156.93170047 -92.22832113 161.71973981 -92.23828125 166.5078125 C-92.24232863 168.15633028 -92.24644554 169.80484789 -92.25063133 171.45336533 C-92.26968973 179.20078286 -92.28391741 186.94819085 -92.2922433 194.69562733 C-92.30200798 203.6342593 -92.32830452 212.57264312 -92.36874419 221.51118767 C-92.39893354 228.42170136 -92.41371499 235.33214405 -92.41702431 242.24272239 C-92.41937231 246.36895936 -92.42829929 250.49493144 -92.45348549 254.62109756 C-92.47681965 258.50683054 -92.48097822 262.39212527 -92.47072411 266.27791023 C-92.47022987 267.70006712 -92.47651728 269.12224595 -92.49028015 270.54433632 C-92.63270813 282.65709253 -92.63270813 282.65709253 -86.46328449 292.56549168 C-80.27835062 297.33361196 -72.99673531 296.69820583 -65.54101562 296.63110352 C-64.08484528 296.6362486 -62.62868117 296.64353432 -61.17253113 296.65278625 C-57.23640624 296.67123393 -53.30096243 296.65840429 -49.36486626 296.63869596 C-45.2353022 296.62225288 -41.10577936 296.6311302 -36.97619629 296.63621521 C-30.04277733 296.64072987 -23.10962869 296.62490542 -16.17626953 296.59692383 C-8.17360232 296.56487465 -0.17142253 296.56488965 7.83127928 296.5821386 C15.54670509 296.59803214 23.26195313 296.591252 30.97737122 296.57420158 C34.25312566 296.56734985 37.5287368 296.56834413 40.80448914 296.57574654 C44.66576456 296.58343833 48.5264889 296.57118989 52.38767052 296.54389763 C53.80012566 296.53704287 55.21263256 296.53688448 56.62508583 296.54411316 C68.69066495 296.62219524 68.69066495 296.62219524 78.56530571 290.46675968 C83.35022014 284.26421731 82.70521966 276.92695135 82.64697266 269.44921875 C82.653757 267.98319414 82.66266471 266.51717807 82.67352295 265.05117798 C82.69622638 261.08821654 82.68751756 257.12590935 82.67162752 253.16293716 C82.65892175 249.00533606 82.67072157 244.84778898 82.67855835 240.69018555 C82.68764136 233.70969643 82.67570259 226.72947228 82.65185547 219.74902344 C82.62464661 211.69175958 82.63346174 203.63512844 82.6609875 195.57787991 C82.68371618 188.64596124 82.68686035 181.71423246 82.67379415 174.78228855 C82.66602021 170.64832255 82.66490101 166.51465343 82.68147659 162.38070679 C82.69597717 158.49308194 82.68579918 154.60626859 82.65700531 150.71873093 C82.65042408 149.29659748 82.65224129 147.87439511 82.66331863 146.45228958 C82.74394327 135.22495829 82.74394327 135.22495829 77 126 C70.68248747 120.64528034 63.50327904 121.42630274 55.56274414 121.46655273 C54.09686924 121.45948801 52.63100164 121.45074066 51.16514587 121.44044495 C47.19808737 121.4180026 43.2314288 121.4208785 39.2643311 121.42976642 C35.94679337 121.43488801 32.62933001 121.42757424 29.31179994 121.42029434 C21.48262105 121.40331162 13.65363713 121.40684459 5.82446289 121.42358398 C-2.24014872 121.4405043 -10.304219 121.42466861 -18.36877149 121.3923611 C-25.30490198 121.36563162 -32.24086431 121.35839822 -39.17704111 121.36687618 C-43.3143923 121.37179559 -47.45141788 121.36964357 -51.58872795 121.34908867 C-55.48041633 121.33067842 -59.37132855 121.33675438 -63.26297569 121.36128807 C-64.68673062 121.36627915 -66.11054523 121.36285048 -67.53425217 121.35013962 C-75.47040014 121.28491983 -81.96277041 121.35656408 -88 127 Z M-158.4375 153.625 C-160.28053342 155.95259558 -160.28053342 155.95259558 -160 159.0625 C-159.2016689 162.01538737 -159.2016689 162.01538737 -157.3125 163.9375 C-154.21524075 165.36056506 -152.24533993 164.81133498 -149 164 C-149 163.34 -149 162.68 -149 162 C-148.34 162 -147.68 162 -147 162 C-146.6150192 157.34048964 -146.6150192 157.34048964 -148.125 153.0625 C-151.88186973 150.93360715 -154.91229846 151.27486564 -158.4375 153.625 Z M138.125 153.0625 C136.31712183 156.17606796 136.49901458 158.49310205 137 162 C139.60354452 164.38038356 141.10369569 165 144.625 165 C147.16409503 164.13251668 147.16409503 164.13251668 148.9375 161.8125 C150.29936505 158.97230795 150.29936505 158.97230795 149.3125 155.75 C148.29371967 152.89078673 148.29371967 152.89078673 146 152 C141.88917391 151.63724048 141.88917391 151.63724048 138.125 153.0625 Z M-201.8125 204.125 C-204.30339948 206.81259963 -204.30339948 206.81259963 -204.0625 210.125 C-202.8544038 213.39396619 -202.14328053 214.51567308 -199 216 C-196.12652606 215.85983054 -194.55195584 215.41396688 -192.25 213.6875 C-190.78425062 211.70873834 -190.22337032 210.45707347 -190 208 C-191.16210818 204.70736015 -191.98531412 204.00979059 -195 202 C-199.05559214 201.59811127 -199.05559214 201.59811127 -201.8125 204.125 Z M182.1875 204.1875 C179.75219785 206.74355462 179.75219785 206.74355462 179.9375 209.5625 C181.2273351 212.52153346 182.37504568 214.10419966 185 216 C187.86211941 215.93019221 189.42995288 215.37347914 191.8125 213.8125 C193.60972017 211.06937448 193.45774125 209.20418874 193 206 C191.37419918 203.54047777 191.37419918 203.54047777 189 202 C184.93239344 201.59070626 184.93239344 201.59070626 182.1875 204.1875 Z M-158.5 254.5 C-160.31926394 257.03230519 -160.31926394 257.03230519 -159.9375 260.625 C-159.3249155 264.25516924 -159.3249155 264.25516924 -156 266 C-152.9124407 266.32162076 -150.85984439 266.48724515 -148.125 264.9375 C-146.41803605 261.99772876 -146.81200234 259.32129197 -147 256 C-147.66 256 -148.32 256 -149 256 C-149 255.34 -149 254.68 -149 254 C-153.93684354 252.76706663 -153.93684354 252.76706663 -158.5 254.5 Z M138.75 254.0625 C136.65992899 256.00448479 136.65992899 256.00448479 136.5625 259.5 C136.75112332 262.86213565 136.75112332 262.86213565 138.125 264.9375 C140.88980433 266.50422245 142.88188517 266.38976435 146 266 C148.34108221 264.46618752 148.91546902 263.20076108 150 260.625 C150.26859902 257.75150023 150.26859902 257.75150023 147.8125 255.1875 C144.47386589 252.59078458 142.63595631 252.22746507 138.75 254.0625 Z M-60.9375 352.125 C-62.48724515 354.85984439 -62.32162076 356.9124407 -62 360 C-60.33345392 363.13021208 -60.33345392 363.13021208 -57.6875 363.875 C-54.12299946 364.04079072 -52.69395379 363.31979354 -50 361 C-48.85878292 357.64767483 -48.61918785 355.90442884 -50 352.625 C-52.03008284 350.68256335 -52.03008284 350.68256335 -55.5 350.5625 C-58.86213565 350.75112332 -58.86213565 350.75112332 -60.9375 352.125 Z M40 352.625 C38.63168992 355.87473645 38.9354496 357.66440876 40 361 C41.5 363.16666667 41.5 363.16666667 44 364 C47.69006955 363.43395099 47.69006955 363.43395099 51 362 C52.39935013 359.20129973 52.25265405 357.09501208 52 354 C51.06402685 351.98048938 51.06402685 351.98048938 49 351 C44.12781356 350.35387532 44.12781356 350.35387532 40 352.625 Z M-9.875 396.125 C-12.26004609 398.75597916 -12.26004609 398.75597916 -12 401.625 C-10.91546902 404.20076108 -10.34108221 405.46618752 -8 407 C-4.84673574 407.39415803 -2.88924432 407.58260835 -0.1875 405.8125 C1.37347914 403.42995288 1.93019221 401.86211941 2 399 C0.10419966 396.37504568 -1.47846654 395.2273351 -4.4375 393.9375 C-7.25211838 393.76059854 -7.25211838 393.76059854 -9.875 396.125 Z " fill="#E5BC76" transform="translate(255,41)"/>
<path d="M0 0 C5.28 0 10.56 0 16 0 C18.9709705 6.41860221 21.38915925 12.83666678 23.5625 19.5625 C24.25900335 21.68405826 24.95700259 23.80512583 25.65625 25.92578125 C26.03007812 27.05967285 26.40390625 28.19356445 26.7890625 29.36181641 C29.00084038 36.00696035 31.28273149 42.62794058 33.5625 49.25 C34.03508934 50.62564607 34.50766431 52.00129708 34.98022461 53.37695312 C37.0317141 59.34130233 39.09710954 65.2997978 41.22265625 71.23828125 C41.71173462 72.60968262 41.71173462 72.60968262 42.21069336 74.00878906 C42.79536292 75.64180472 43.38549761 77.27288061 43.98266602 78.90136719 C45.55283728 83.28696681 46.50049643 87.36436317 47 92 C42.38 92 37.76 92 33 92 C30.62731545 86.67036622 28.65001887 81.28524204 26.8125 75.75 C26.53986328 74.94820313 26.26722656 74.14640625 25.98632812 73.3203125 C25.72916016 72.54945313 25.47199219 71.77859375 25.20703125 70.984375 C24.9747583 70.29053711 24.74248535 69.59669922 24.50317383 68.88183594 C24 67 24 67 24 64 C13.44 64 2.88 64 -8 64 C-8.33 65.98 -8.66 67.96 -9 70 C-9.49280616 71.72628437 -10.02423479 73.44201309 -10.59375 75.14453125 C-10.90183594 76.06814453 -11.20992187 76.99175781 -11.52734375 77.94335938 C-11.84832031 78.89017578 -12.16929687 79.83699219 -12.5 80.8125 C-12.98146484 82.26172852 -12.98146484 82.26172852 -13.47265625 83.74023438 C-15.86641038 90.86641038 -15.86641038 90.86641038 -17 92 C-19.18639453 92.07258946 -21.37500389 92.08373783 -23.5625 92.0625 C-24.76003906 92.05347656 -25.95757812 92.04445313 -27.19140625 92.03515625 C-28.58166016 92.01775391 -28.58166016 92.01775391 -30 92 C-29.44901662 86.30080297 -28.32715383 81.34260473 -26.41015625 75.9609375 C-26.15004761 75.20983704 -25.88993896 74.45873657 -25.62194824 73.68487549 C-24.77582398 71.24574105 -23.91915009 68.81045516 -23.0625 66.375 C-22.17193192 63.8159374 -21.28418689 61.25590745 -20.39671326 58.69577026 C-19.79809565 56.96917401 -19.19861605 55.24287637 -18.59828186 53.51687622 C-15.84073975 45.57855036 -13.19324719 37.60604534 -10.5625 29.625 C-7.26414883 19.65284216 -3.79728559 9.79299967 0 0 Z M7 16 C6.67386719 17.134375 6.34773438 18.26875 6.01171875 19.4375 C5.5704756 20.95838066 5.1290601 22.47921133 4.6875 24 C4.47416016 24.74378906 4.26082031 25.48757812 4.04101562 26.25390625 C2.58069961 31.26693136 0.87464575 36.12874614 -1 41 C-1.57429225 42.59998292 -2.13950874 44.2033193 -2.6875 45.8125 C-3.06455078 46.90498047 -3.06455078 46.90498047 -3.44921875 48.01953125 C-4.13396894 50.13911302 -4.13396894 50.13911302 -4 53 C3.92 53 11.84 53 20 53 C18.31448671 45.3766608 18.31448671 45.3766608 16.08984375 38.01171875 C15.73986328 36.97595703 15.38988281 35.94019531 15.02929688 34.87304688 C14.66900391 33.82181641 14.30871094 32.77058594 13.9375 31.6875 C13.21614653 29.56684848 12.49604143 27.4457718 11.77734375 25.32421875 C11.46015381 24.39697998 11.14296387 23.46974121 10.81616211 22.5144043 C10.11484934 20.35382393 9.51575736 18.21098998 9 16 C8.34 16 7.68 16 7 16 Z " fill="#E4BB74" transform="translate(229,204)"/>
<path d="M0 0 C4.34262831 1.70451698 7.2240506 3.95731799 10 7.6875 C11 10 11 10 11 12 C27.5 12 44 12 61 12 C61 12.66 61 13.32 61 14 C69.58 14 78.16 14 87 14 C87 15.98 87 17.96 87 20 C48.885 20.495 48.885 20.495 10 21 C9.34 23.64 8.68 26.28 8 29 C5.18252412 32.38944467 1.5277398 33.75582094 -2.76171875 34.44140625 C-7.21826629 34.62988234 -10.2998965 34.32412199 -14.375 32.4375 C-21.57526581 25.75153889 -21.57526581 25.75153889 -22.44921875 20.08984375 C-22.67032128 13.93709411 -22.34030375 9.69222027 -18 5 C-12.12749087 -0.1734009 -7.74294846 -0.92873641 0 0 Z M-9.8125 12.125 C-12.30339948 14.81259963 -12.30339948 14.81259963 -12.0625 18.125 C-10.8544038 21.39396619 -10.14328053 22.51567308 -7 24 C-4.12652606 23.85983054 -2.55195584 23.41396688 -0.25 21.6875 C1.21574938 19.70873834 1.77662968 18.45707347 2 16 C0.83789182 12.70736015 0.01468588 12.00979059 -3 10 C-7.05559214 9.59811127 -7.05559214 9.59811127 -9.8125 12.125 Z " fill="#E4B86E" transform="translate(63,233)"/>
<path d="M0 0 C1.65322266 0.01740234 1.65322266 0.01740234 3.33984375 0.03515625 C4.99693359 0.04869141 4.99693359 0.04869141 6.6875 0.0625 C7.54214844 0.07410156 8.39679688 0.08570313 9.27734375 0.09765625 C10.8747448 3.29245835 10.41559794 6.75493676 10.40673828 10.26342773 C10.4084906 11.10746155 10.41024292 11.95149536 10.41204834 12.82110596 C10.41646136 15.62034135 10.41353052 18.41951392 10.41015625 21.21875 C10.41082951 23.15926628 10.41179972 25.09978247 10.41305542 27.04029846 C10.4145317 31.11159059 10.4123803 35.18286081 10.40771484 39.25415039 C10.40202139 44.47768876 10.40529458 49.70117571 10.41128731 54.92471218 C10.41489803 58.93350106 10.41375191 62.94227772 10.41115952 66.95106697 C10.41049147 68.87722848 10.41131442 70.80339109 10.41363907 72.72955132 C10.41617352 75.42056091 10.41231356 78.11148688 10.40673828 80.80249023 C10.40876251 81.60207657 10.41078674 82.4016629 10.41287231 83.22547913 C10.40048426 86.44686086 10.30355023 89.0190368 9.27734375 92.09765625 C7.29824977 92.12452178 5.31905404 92.14399 3.33984375 92.16015625 C2.23769531 92.17175781 1.13554687 92.18335938 0 92.1953125 C-2.72265625 92.09765625 -2.72265625 92.09765625 -3.72265625 91.09765625 C-3.823175 88.30313354 -3.85881519 85.5332927 -3.85205078 82.73828125 C-3.8538031 81.86192017 -3.85555542 80.98555908 -3.85736084 80.0826416 C-3.86178057 77.17095998 -3.85884094 74.25933855 -3.85546875 71.34765625 C-3.85614175 69.33365873 -3.85711175 67.3196613 -3.85836792 65.30566406 C-3.85984506 61.0787682 -3.85768983 56.85189342 -3.85302734 52.625 C-3.84733005 47.19385093 -3.85060897 41.76275126 -3.85659981 36.331604 C-3.86020499 32.17105738 -3.85906703 28.01052256 -3.85647202 23.84997559 C-3.85580263 21.8468017 -3.85663158 19.84362676 -3.85895157 17.8404541 C-3.8614774 15.04595073 -3.85763849 12.25152854 -3.85205078 9.45703125 C-3.85407501 8.6206311 -3.85609924 7.78423096 -3.85818481 6.92248535 C-3.83291746 0.13747911 -3.83291746 0.13747911 0 0 Z " fill="#E6C181" transform="translate(291.72265625,203.90234375)"/>
<path d="M0 0 C3.96219016 3.83437758 5.0839435 5.75184779 5.53515625 11.2265625 C5.61386963 12.15549316 5.69258301 13.08442383 5.77368164 14.04150391 C5.8689917 15.22405762 5.96430176 16.40661133 6.0625 17.625 C6.371875 21.37875 6.68125 25.1325 7 29 C18.22 29 29.44 29 41 29 C42.32 26.69 43.64 24.38 45 22 C48.55431432 18.69956527 51.26046873 17.73329392 56 17.5625 C62.04098392 17.85188845 65.98160231 19.75746682 70.375 23.875 C74.48605434 28.83181812 73.49336604 34.9242886 73 41 C71.68 41 70.36 41 69 41 C69.495 42.98 69.495 42.98 70 45 C64.58461538 48.07692308 64.58461538 48.07692308 61.625 47.6875 C61.08875 47.460625 60.5525 47.23375 60 47 C61.32 46.34 62.64 45.68 64 45 C63.67 44.01 63.34 43.02 63 42 C63.495 41.46375 63.99 40.9275 64.5 40.375 C66.83799323 36.67317739 65.73888929 33.16626733 65 29 C65.99 28.505 65.99 28.505 67 28 C68.485 28.495 68.485 28.495 70 29 C70 28.34 70 27.68 70 27 C67.26115719 25.26551541 67.26115719 25.26551541 64.15625 25.4375 C63.4446875 25.623125 62.733125 25.80875 62 26 C60.41788427 26.06548492 58.83329919 26.08578381 57.25 26.0625 C55.14625 26.0315625 55.14625 26.0315625 53 26 C52.34 29.96 51.68 33.92 51 38 C51.99 38.33 52.98 38.66 54 39 C53.01 39.33 52.02 39.66 51 40 C49.03177114 38.03177114 49.33751619 34.65191291 49 32 C48.71125 33.11375 48.4225 34.2275 48.125 35.375 C47 39 47 39 45 41 C45 40.34 45 39.68 45 39 C39.62484067 38.97532241 34.24971415 38.95715072 28.87451172 38.94506836 C27.04507879 38.94003263 25.21564991 38.93320373 23.38623047 38.92456055 C20.76008102 38.91246176 18.13398468 38.90676417 15.5078125 38.90234375 C14.68693146 38.89718246 13.86605042 38.89202118 13.02029419 38.88670349 C8.87788156 38.77648126 8.87788156 38.77648126 5 40 C4.01 39.67 3.02 39.34 2 39 C1.01 39.66 0.02 40.32 -1 41 C-1 31.1 -1 21.2 -1 11 C-1.66 11 -2.32 11 -3 11 C-2.32829194 7.1936543 -1.27253436 3.64793184 0 0 Z " fill="#E5B86C" transform="translate(340,165)"/>
<path d="M0 0 C-0.33 0.66 -0.66 1.32 -1 2 C-2.65 2 -4.3 2 -6 2 C-6 2.66 -6 3.32 -6 4 C-7.65 4.33 -9.3 4.66 -11 5 C-11 6.98 -11 8.96 -11 11 C-10.34 11 -9.68 11 -9 11 C-8.67 10.01 -8.34 9.02 -8 8 C-6.75179112 8.01187867 -6.75179112 8.01187867 -5.4783659 8.02399731 C14.75132512 8.21547774 34.98109991 8.39033242 55.21109486 8.54658794 C64.99409198 8.62255405 74.77698103 8.70418688 84.55981445 8.79907227 C93.08460573 8.8817414 101.60940917 8.95386785 110.13439578 9.01323253 C114.65006856 9.04504883 119.16555689 9.08221295 123.68107033 9.13199425 C127.92857082 9.17865447 132.17594386 9.21124992 136.42364311 9.2329216 C137.98499558 9.2433921 139.5463229 9.25906188 141.10756683 9.28024101 C143.23492115 9.30833231 145.3615745 9.3179293 147.48908997 9.32279968 C149.27690746 9.33800927 149.27690746 9.33800927 151.10084248 9.35352612 C154.02283606 9.25423129 154.02283606 9.25423129 155.90693188 7.47982502 C156.26764436 6.99148276 156.62835684 6.50314051 157 6 C156.01 5.505 156.01 5.505 155 5 C155 4.34 155 3.68 155 3 C153.02 2.67 151.04 2.34 149 2 C149 1.34 149 0.68 149 0 C154.74343333 1.28934218 158.42223326 3.26304756 163 7 C163 7.66 163 8.32 163 9 C163.66 9 164.32 9 165 9 C165.64834654 10.269553 166.29357815 11.54069706 166.9375 12.8125 C167.47697266 13.87404297 167.47697266 13.87404297 168.02734375 14.95703125 C169.60540231 18.27158798 170.15473341 21.04187793 170.31640625 24.66796875 C170.35451416 25.47258545 170.39262207 26.27720215 170.43188477 27.10620117 C170.47498779 28.12302979 170.51809082 29.1398584 170.5625 30.1875 C170.7790625 35.0446875 170.7790625 35.0446875 171 40 C187.335 40.495 187.335 40.495 204 41 C204 41.33 204 41.66 204 42 C199.17619198 42.0246519 194.35242033 42.04283693 189.52856445 42.05493164 C187.88630536 42.05997174 186.24405077 42.06680378 184.60180664 42.07543945 C182.24624521 42.08751926 179.89074291 42.09323139 177.53515625 42.09765625 C176.79660904 42.10281754 176.05806183 42.10797882 175.2971344 42.11329651 C173.53101912 42.1134925 171.76502854 42.06194719 170 42 C168.34823854 40.34823854 168.7163359 38.32230737 168.5703125 36.046875 C168.49683594 35.03496094 168.42335938 34.02304688 168.34765625 32.98046875 C168.20032681 30.84289945 168.05959885 28.70486395 167.92578125 26.56640625 C167.84972656 25.54933594 167.77367187 24.53226563 167.6953125 23.484375 C167.63359863 22.55334961 167.57188477 21.62232422 167.50830078 20.66308594 C166.92280338 17.59555201 165.73660638 15.57201709 164 13 C162.68 15.97 161.36 18.94 160 22 C159.4225 21.2575 158.845 20.515 158.25 19.75 C155.18489163 16.00375644 152.55319883 12.82291172 148 11 C145.10907229 10.69115751 145.10907229 10.69115751 141.87823486 10.72584534 C140.62217438 10.71587021 139.36611389 10.70589508 138.07199097 10.69561768 C136.68243421 10.6947219 135.29287729 10.69405832 133.90332031 10.69360352 C132.43789244 10.68598075 130.97246856 10.67755305 129.50704956 10.66838074 C125.52752962 10.64643735 121.54808652 10.6376368 117.56851292 10.63255429 C115.08056542 10.62890982 112.59263802 10.62266922 110.10469818 10.6155529 C101.42005022 10.59105672 92.73546199 10.57800663 84.05078125 10.57446289 C75.96411355 10.57082986 67.8778259 10.54095179 59.79127431 10.49905831 C52.84249299 10.46432536 45.89383741 10.44891391 38.94496989 10.44821686 C34.79747691 10.44742491 30.6503709 10.43872496 26.50296783 10.41021919 C22.59906064 10.38398744 18.69585977 10.3818612 14.79190445 10.39787483 C13.36329479 10.39968544 11.93464405 10.39303356 10.50612259 10.37705612 C3.41517783 10.30261598 -2.46505778 10.28370978 -8.47081375 14.34138393 C-12.35257232 18.55169326 -13.3751432 22.78396616 -13.39872742 28.37814331 C-13.41126556 29.64010025 -13.42380371 30.90205719 -13.4367218 32.20225525 C-13.43554793 33.58779933 -13.43408885 34.9733432 -13.43237305 36.35888672 C-13.44139566 37.82774172 -13.45172411 39.2965892 -13.46325684 40.76542664 C-13.49079448 44.74223723 -13.50010692 48.71890483 -13.50611091 52.6957984 C-13.51550302 56.8558603 -13.54170709 61.01581575 -13.56611633 65.17581177 C-13.609762 73.04856034 -13.63832082 80.92128822 -13.66143972 88.79412091 C-13.68850176 97.75908429 -13.73241265 106.72394048 -13.77772844 115.68882728 C-13.87054702 134.12582824 -13.94224051 152.56285755 -14 171 C-14.66 171 -15.32 171 -16 171 C-16.02334935 151.51151423 -16.0409892 132.0230313 -16.05181217 112.53453445 C-16.05697079 103.48590884 -16.06400526 94.43729191 -16.07543945 85.38867188 C-16.08539951 77.50288028 -16.09185659 69.61709497 -16.09408849 61.73129725 C-16.09539335 57.5549598 -16.09846501 53.37864035 -16.10573006 49.20230865 C-16.1125111 45.27241481 -16.11461269 41.34254639 -16.11310768 37.41264725 C-16.11338307 35.96947466 -16.11537585 34.52630123 -16.11920547 33.0831337 C-16.12417515 31.11396142 -16.12238998 29.14477554 -16.12025452 27.17559814 C-16.12117631 26.07313374 -16.1220981 24.97066933 -16.12304783 23.83479691 C-16.01639409 21.37768986 -15.71437408 19.34122832 -15 17 C-14.34 17 -13.68 17 -13 17 C-13 15.68 -13 14.36 -13 13 C-13.66 13 -14.32 13 -15 13 C-15.66 11.02 -16.32 9.04 -17 7 C-16.34 7 -15.68 7 -15 7 C-15 6.34 -15 5.68 -15 5 C-5.77448747 -0.74031891 -5.77448747 -0.74031891 0 0 Z " fill="#EAD3A1" transform="translate(177,153)"/>
<path d="M0 0 C4.16951329 3.69570496 7.19144114 7.33385555 8.19921875 12.93359375 C8.46330013 18.91640299 7.14485799 22.55739164 3.75 27.4375 C3.09 27.4375 2.43 27.4375 1.75 27.4375 C1.75 28.0975 1.75 28.7575 1.75 29.4375 C-1.25 31.4375 -1.25 31.4375 -4.25 31.4375 C-4.25 42.6575 -4.25 53.8775 -4.25 65.4375 C-4.91 65.4375 -5.57 65.4375 -6.25 65.4375 C-6.25 53.8875 -6.25 42.3375 -6.25 30.4375 C-4.93 30.4375 -3.61 30.4375 -2.25 30.4375 C-2.25 29.4475 -2.25 28.4575 -2.25 27.4375 C-1.26 27.4375 -0.27 27.4375 0.75 27.4375 C0.75 26.7775 0.75 26.1175 0.75 25.4375 C-1.23 26.0975 -3.21 26.7575 -5.25 27.4375 C-5.745 25.9525 -5.745 25.9525 -6.25 24.4375 C-8.75447516 23.21880071 -8.75447516 23.21880071 -11.25 22.4375 C-11.25 22.1075 -11.25 21.7775 -11.25 21.4375 C-9.7959375 20.9734375 -9.7959375 20.9734375 -8.3125 20.5 C-5.40934208 19.74226658 -5.40934208 19.74226658 -4.25 18.4375 C-3.88703121 14.28550779 -3.88703121 14.28550779 -5.375 10.5 C-7.3363904 9.16343708 -7.3363904 9.16343708 -10.3125 9.625 C-13.34515868 10.20398363 -13.34515868 10.20398363 -15.25 12.4375 C-15.41677282 16.02093976 -15.41677282 16.02093976 -15.25 19.4375 C-14.59 19.4375 -13.93 19.4375 -13.25 19.4375 C-13.58 20.0975 -13.91 20.7575 -14.25 21.4375 C-14.91 21.4375 -15.57 21.4375 -16.25 21.4375 C-17.875 19.4375 -17.875 19.4375 -19.25 17.4375 C-19.064375 18.18 -18.87875 18.9225 -18.6875 19.6875 C-18.25229766 22.42305755 -18.44527469 23.84449621 -19.25 26.4375 C-19.25 27.0975 -19.25 27.7575 -19.25 28.4375 C-17.6 28.7675 -15.95 29.0975 -14.25 29.4375 C-14.25 41.6475 -14.25 53.8575 -14.25 66.4375 C-27.78 66.4375 -41.31 66.4375 -55.25 66.4375 C-55.25 66.1075 -55.25 65.7775 -55.25 65.4375 C-42.05 65.4375 -28.85 65.4375 -15.25 65.4375 C-15.25 54.2175 -15.25 42.9975 -15.25 31.4375 C-16.9 30.7775 -18.55 30.1175 -20.25 29.4375 C-24.00038231 25.5126813 -27.19641719 21.98066359 -27.28125 16.37109375 C-26.90147305 10.75988936 -25.55325225 6.99063147 -22.25 2.4375 C-15.17361613 -3.16463723 -8.16676889 -3.9263312 0 0 Z " fill="#E5BD78" transform="translate(310.25,86.5625)"/>
<path d="M0 0 C6.80246468 5.53688985 6.80246468 5.53688985 7.6875 10.1875 C8.38938862 17.05680339 7.90710592 21.63538694 3.6875 27.1875 C-1.44070513 31.1875 -1.44070513 31.1875 -4.3125 31.1875 C-4.3125 42.0775 -4.3125 52.9675 -4.3125 64.1875 C-4.6425 64.1875 -4.9725 64.1875 -5.3125 64.1875 C-5.8075 45.8725 -5.8075 45.8725 -6.3125 27.1875 C-8.6225 26.1975 -10.9325 25.2075 -13.3125 24.1875 C-13.6425 26.4975 -13.9725 28.8075 -14.3125 31.1875 C-16.2925 30.5275 -18.2725 29.8675 -20.3125 29.1875 C-20.3125 28.5275 -20.3125 27.8675 -20.3125 27.1875 C-20.9725 27.1875 -21.6325 27.1875 -22.3125 27.1875 C-26.27409167 21.49271197 -27.22843389 17.09135168 -26.3125 10.1875 C-24.55426111 4.80935751 -20.97474914 1.26558707 -16.3125 -1.8125 C-10.7411334 -3.75522102 -5.07063366 -2.77449766 0 0 Z M-13.5625 9.8125 C-15.80619241 12.85751113 -15.8643663 14.48211199 -15.3125 18.1875 C-14.3125 20.1875 -14.3125 20.1875 -12.3125 21.1875 C-8.65990261 21.73150387 -6.9691114 21.62524093 -3.875 19.5625 C-2.03196658 17.23490442 -2.03196658 17.23490442 -2.3125 14.125 C-3.44842862 10.78820968 -4.20666181 9.78478821 -7.3125 8.1875 C-11.23462225 7.79717296 -11.23462225 7.79717296 -13.5625 9.8125 Z " fill="#E4BB74" transform="translate(208.3125,86.8125)"/>
<path d="M0 0 C0.01030746 0.92263641 0.02061493 1.84527283 0.03123474 2.79586792 C0.12908786 11.47783475 0.23158476 20.15973153 0.33933926 28.84158134 C0.39457602 33.30533222 0.44799723 37.76908964 0.49731445 42.23291016 C0.5449469 46.53825825 0.5972893 50.84352536 0.65294075 55.14877701 C0.67336939 56.79384477 0.69208162 58.43893475 0.70907402 60.0840416 C0.73310681 62.38276982 0.76316278 64.68134439 0.79467773 66.97998047 C0.81022202 68.2901413 0.8257663 69.60030212 0.84178162 70.95016479 C0.79168072 73.91692355 0.79168072 73.91692355 2 76 C2.99 76.33 3.98 76.66 5 77 C5 77.66 5 78.32 5 79 C5.66 79 6.32 79 7 79 C6.42655063 81.86724686 6.1385485 82.8614515 4 85 C1.1796875 84.7578125 1.1796875 84.7578125 -2.125 84.125 C-3.22070312 83.92132813 -4.31640625 83.71765625 -5.4453125 83.5078125 C-6.28835937 83.34023438 -7.13140625 83.17265625 -8 83 C-7.34 81.68 -6.68 80.36 -6 79 C-6.99 78.67 -7.98 78.34 -9 78 C-8.505 77.01 -8.505 77.01 -8 76 C-7.90983623 74.39645548 -7.88243925 72.78917778 -7.88647461 71.18310547 C-7.88655014 70.18221893 -7.88662567 69.1813324 -7.88670349 68.15011597 C-7.89186478 67.06674957 -7.89702606 65.98338318 -7.90234375 64.8671875 C-7.9037587 63.76021515 -7.90517365 62.6532428 -7.90663147 61.51272583 C-7.91224228 57.96679007 -7.92479663 54.42091677 -7.9375 50.875 C-7.94251361 48.47526133 -7.94707675 46.07552167 -7.95117188 43.67578125 C-7.96221522 37.78383275 -7.9789639 31.89192084 -8 26 C-7.67 26 -7.34 26 -7 26 C-6.67 17.42 -6.34 8.84 -6 0 C-3.50907189 -1.24546405 -2.58919267 -0.7767578 0 0 Z " fill="#E4B76D" transform="translate(253,351)"/>
<path d="M0 0 C1.12563103 0.00212242 1.12563103 0.00212242 2.27400208 0.00428772 C4.66838585 0.00988065 7.06267578 0.02243181 9.45703125 0.03515625 C11.08137886 0.04017217 12.70572793 0.04473491 14.33007812 0.04882812 C18.30993194 0.05984777 22.28971569 0.07710752 26.26953125 0.09765625 C25.93953125 2.40765625 25.60953125 4.71765625 25.26953125 7.09765625 C24.27953125 6.76765625 23.28953125 6.43765625 22.26953125 6.09765625 C21.40409537 9.79201203 21.18476587 13.12542019 21.27734375 16.9140625 C21.29410156 18.00783203 21.31085938 19.10160156 21.328125 20.22851562 C21.37247457 22.520345 21.424586 24.81203705 21.484375 27.10351562 C21.49855469 28.19599609 21.51273438 29.28847656 21.52734375 30.4140625 C21.54941895 31.40865479 21.57149414 32.40324707 21.59423828 33.42797852 C21.22123006 36.4947792 20.31367885 37.83187435 18.26953125 40.09765625 C17.77453125 39.60265625 17.77453125 39.60265625 17.26953125 39.09765625 C16.60953125 39.75765625 15.94953125 40.41765625 15.26953125 41.09765625 C12.47740614 38.30553114 12.9181505 35.64461336 12.85546875 31.90234375 C12.8361026 31.19490021 12.81673645 30.48745667 12.79678345 29.75857544 C12.73695473 27.4967254 12.69059024 25.23482455 12.64453125 22.97265625 C12.60635439 21.44008185 12.56730283 19.90752897 12.52734375 18.375 C12.42960152 14.61599678 12.35006317 10.85722557 12.26953125 7.09765625 C6.32953125 7.09765625 0.38953125 7.09765625 -5.73046875 7.09765625 C-5.73046875 6.43765625 -5.73046875 5.77765625 -5.73046875 5.09765625 C-7.38046875 5.09765625 -9.03046875 5.09765625 -10.73046875 5.09765625 C-10.73046875 3.77765625 -10.73046875 2.45765625 -10.73046875 1.09765625 C-7.09813773 -0.11312076 -3.77924888 -0.02678539 0 0 Z " fill="#E4B86B" transform="translate(181.73046875,338.90234375)"/>
<path d="M0 0 C0.9796875 -0.01417969 1.959375 -0.02835938 2.96875 -0.04296875 C5.5 0.1875 5.5 0.1875 7.5 2.1875 C4.2 2.1875 0.9 2.1875 -2.5 2.1875 C-2.17 3.8375 -1.84 5.4875 -1.5 7.1875 C-0.530625 7.455625 0.43875 7.72375 1.4375 8 C2.448125 8.391875 3.45875 8.78375 4.5 9.1875 C4.83 10.1775 5.16 11.1675 5.5 12.1875 C4.4275 11.94 3.355 11.6925 2.25 11.4375 C-1.4590895 10.82283104 -1.4590895 10.82283104 -4 12.75 C-5.7825603 15.15424557 -5.7825603 15.15424557 -5.4375 18.3125 C-4.73305313 21.47924932 -4.73305313 21.47924932 -1.5 23.1875 C2.13939932 22.87019476 2.13939932 22.87019476 5.5 22.1875 C5.5 22.8475 5.5 23.5075 5.5 24.1875 C3.85 24.5175 2.2 24.8475 0.5 25.1875 C0.5 25.8475 0.5 26.5075 0.5 27.1875 C-0.16 27.1875 -0.82 27.1875 -1.5 27.1875 C-1.5 27.8475 -1.5 28.5075 -1.5 29.1875 C-2.49 29.5175 -3.48 29.8475 -4.5 30.1875 C-2.83657163 31.85092837 -0.7174291 31.54798097 1.5625 31.75 C2.48160156 31.83378906 3.40070312 31.91757812 4.34765625 32.00390625 C5.41306641 32.09478516 5.41306641 32.09478516 6.5 32.1875 C6.83 31.1975 7.16 30.2075 7.5 29.1875 C9.15 29.1875 10.8 29.1875 12.5 29.1875 C6.32491599 34.22506854 2.45718097 34.97645562 -5.5 34.1875 C-10.45724224 31.89248045 -14.37172666 28.26818658 -16.5 23.1875 C-17.36981458 17.55261426 -17.30460791 12.85631641 -14.8125 7.6875 C-10.12401358 2.61886603 -6.90930383 0.04545595 0 0 Z " fill="#E3B971" transform="translate(57.5,232.8125)"/>
<path d="M0 0 C5.74343333 1.28934218 9.42223326 3.26304756 14 7 C14 7.66 14 8.32 14 9 C14.66 9 15.32 9 16 9 C16.64834654 10.269553 17.29357815 11.54069706 17.9375 12.8125 C18.47697266 13.87404297 18.47697266 13.87404297 19.02734375 14.95703125 C20.60540231 18.27158798 21.15473341 21.04187793 21.31640625 24.66796875 C21.35451416 25.47258545 21.39262207 26.27720215 21.43188477 27.10620117 C21.47498779 28.12302979 21.51809082 29.1398584 21.5625 30.1875 C21.7790625 35.0446875 21.7790625 35.0446875 22 40 C38.335 40.495 38.335 40.495 55 41 C55 41.33 55 41.66 55 42 C50.17619198 42.0246519 45.35242033 42.04283693 40.52856445 42.05493164 C38.88630536 42.05997174 37.24405077 42.06680378 35.60180664 42.07543945 C33.24624521 42.08751926 30.89074291 42.09323139 28.53515625 42.09765625 C27.79660904 42.10281754 27.05806183 42.10797882 26.2971344 42.11329651 C24.53101912 42.1134925 22.76502854 42.06194719 21 42 C19.34823854 40.34823854 19.7163359 38.32230737 19.5703125 36.046875 C19.49683594 35.03496094 19.42335938 34.02304688 19.34765625 32.98046875 C19.20032681 30.84289945 19.05959885 28.70486395 18.92578125 26.56640625 C18.84972656 25.54933594 18.77367187 24.53226563 18.6953125 23.484375 C18.63359863 22.55334961 18.57188477 21.62232422 18.50830078 20.66308594 C17.92280338 17.59555201 16.73660638 15.57201709 15 13 C13.68 15.97 12.36 18.94 11 22 C10.4225 21.2575 9.845 20.515 9.25 19.75 C6.18448683 16.00326168 3.55299358 12.82448984 -1 11 C-3.88125676 10.68961245 -3.88125676 10.68961245 -7.09967041 10.7215271 C-8.35046387 10.71036362 -9.60125732 10.69920013 -10.88995361 10.68769836 C-12.27331513 10.68533349 -13.65667698 10.68315782 -15.04003906 10.68115234 C-16.49874426 10.67185283 -17.95744413 10.66168413 -19.4161377 10.65071106 C-23.37444099 10.62339947 -27.33270867 10.60825824 -31.29108143 10.59528303 C-35.42845052 10.57965756 -39.56574683 10.55286548 -43.70306396 10.5272522 C-51.53691536 10.48045407 -59.37078043 10.44371497 -67.20470023 10.41057932 C-76.12365252 10.37236524 -85.04253174 10.32295321 -93.96142244 10.27259517 C-112.30756149 10.16925994 -130.65374513 10.08000471 -149 10 C-149 9.67 -149 9.34 -149 9 C-147.81363591 9.00414807 -147.81363591 9.00414807 -146.60330486 9.00837994 C-127.37493106 9.07458037 -108.14657994 9.1242516 -88.91811657 9.15543652 C-79.61944173 9.17091744 -70.32084287 9.19203031 -61.0222168 9.22631836 C-52.91925755 9.25618327 -44.81635333 9.27556608 -36.71334058 9.28226548 C-32.42127856 9.28618269 -28.12937395 9.29541396 -23.83736229 9.31719017 C-19.79989783 9.33750948 -15.76265607 9.3438431 -11.72514534 9.33932304 C-10.24122789 9.3401503 -8.7573032 9.34614314 -7.27342987 9.35761642 C-5.25140736 9.37248749 -3.22926612 9.36717863 -1.2071991 9.36076355 C-0.07431552 9.36352893 1.05856806 9.36629431 2.22578144 9.36914349 C5.03761337 9.23949494 5.03761337 9.23949494 6.88794994 7.47745228 C7.25492646 6.98989303 7.62190298 6.50233377 8 6 C7.01 5.505 7.01 5.505 6 5 C6 4.34 6 3.68 6 3 C4.02 2.67 2.04 2.34 0 2 C0 1.34 0 0.68 0 0 Z " fill="#F1E2B9" transform="translate(326,153)"/>
<path d="M0 0 C2.97 0.495 2.97 0.495 6 1 C6 1.33 6 1.66 6 2 C4.35 2 2.7 2 1 2 C1 27.74 1 53.48 1 80 C2.98 80.66 4.96 81.32 7 82 C11.97891281 87.25551908 13.41719143 91.42561435 13.25 98.53125 C12.75325566 103.43660038 10.94680691 106.16328692 7.3125 109.375 C6.549375 109.91125 5.78625 110.4475 5 111 C5 110.01 5 109.02 5 108 C5.66 108 6.32 108 7 108 C7 107.34 7 106.68 7 106 C7.66 106 8.32 106 9 106 C8.72965366 103.56282742 8.72965366 103.56282742 8 101 C7.01 100.34 6.02 99.68 5 99 C5 98.01 5 97.02 5 96 C4.34 97.32 3.68 98.64 3 100 C2.34 99.67 1.68 99.34 1 99 C1.185625 98.236875 1.37125 97.47375 1.5625 96.6875 C2.22819173 93.91032625 2.22819173 93.91032625 1 91 C-1.97 90.67 -4.94 90.34 -8 90 C-8 89.34 -8 88.68 -8 88 C-4 88 0 88 4 88 C4.66 86.68 5.32 85.36 6 84 C5.34 84 4.68 84 4 84 C4 83.34 4 82.68 4 82 C2.68 81.67 1.36 81.34 0 81 C0 54.27 0 27.54 0 0 Z " fill="#E8C994" transform="translate(254,346)"/>
<path d="M0 0 C0.66 0.33 1.32 0.66 2 1 C2 1.99 2 2.98 2 4 C1.34 4 0.68 4 0 4 C0 4.66 0 5.32 0 6 C2.475 6.99 2.475 6.99 5 8 C5.495 12.95 5.495 12.95 6 18 C6.66 18 7.32 18 8 18 C7.67 18.66 7.34 19.32 7 20 C6.34 20 5.68 20 5 20 C3.375 18 3.375 18 2 16 C2.185625 16.7425 2.37125 17.485 2.5625 18.25 C2.99770234 20.98555755 2.80472531 22.40699621 2 25 C2 25.66 2 26.32 2 27 C3.65 27.33 5.3 27.66 7 28 C7 40.21 7 52.42 7 65 C-6.53 65 -20.06 65 -34 65 C-34 64.67 -34 64.34 -34 64 C-20.8 64 -7.6 64 6 64 C6 52.78 6 41.56 6 30 C3.525 29.01 3.525 29.01 1 28 C-2.75038231 24.0751813 -5.94641719 20.54316359 -6.03125 14.93359375 C-5.64690297 9.25486637 -4.15360694 4.15360694 0 0 Z " fill="#ECC695" transform="translate(289,88)"/>
<path d="M0 0 C0.33 0 0.66 0 1 0 C1.33 4.62 1.66 9.24 2 14 C2.66 14 3.32 14 4 14 C4.66 15.32 5.32 16.64 6 18 C6.66 17.67 7.32 17.34 8 17 C7.34 16.67 6.68 16.34 6 16 C6.165 15.34 6.33 14.68 6.5 14 C7.12183299 10.26900206 7.06408926 6.78126622 7 3 C8.32 3.33 9.64 3.66 11 4 C10.979375 4.94875 10.95875 5.8975 10.9375 6.875 C10.77448174 9.90666283 10.77448174 9.90666283 12 12 C14.77607642 12.90034911 16.4021546 13.20497557 19.1875 12.25 C21.29113844 10.96416127 21.29113844 10.96416127 23 8 C23 9.98 23 11.96 23 14 C21.35 14.66 19.7 15.32 18 16 C18.33 17.65 18.66 19.3 19 21 C19.66 20.67 20.32 20.34 21 20 C22.99960012 19.960008 25.00047242 19.95653201 27 20 C23.47557144 23.68462985 21.35779752 24.19179334 16.25 24.3125 C10.97920444 24.27462602 8.03192648 23.61839556 4 20 C3.4225 19.525625 2.845 19.05125 2.25 18.5625 C-1.67834929 13.65206339 -1.45786472 8.01612947 -1 2 C-0.67 1.34 -0.34 0.68 0 0 Z " fill="#E3B76F" transform="translate(183,391)"/>
<path d="M0 0 C2.13586678 3.20380017 2.23132175 4.01939967 2.125 7.6875 C2.10695312 8.49574219 2.08890625 9.30398437 2.0703125 10.13671875 C2.04710937 10.75160156 2.02390625 11.36648437 2 12 C3.65 11.67 5.3 11.34 7 11 C7.33 8.36 7.66 5.72 8 3 C8.99 2.67 9.98 2.34 11 2 C11.16276042 4.01822917 11.32552083 6.03645833 11.48828125 8.0546875 C11.87393036 10.39519216 11.87393036 10.39519216 15 12 C18.63939932 11.68269476 18.63939932 11.68269476 22 11 C22 11.66 22 12.32 22 13 C20.35 13.33 18.7 13.66 17 14 C17 14.66 17 15.32 17 16 C16.34 16 15.68 16 15 16 C15 16.66 15 17.32 15 18 C14.01 18.33 13.02 18.66 12 19 C13.66342837 20.66342837 15.7825709 20.36048097 18.0625 20.5625 C18.98160156 20.64628906 19.90070312 20.73007812 20.84765625 20.81640625 C21.91306641 20.90728516 21.91306641 20.90728516 23 21 C23.33 20.01 23.66 19.02 24 18 C25.65 18 27.3 18 29 18 C22.82491599 23.03756854 18.95718097 23.78895562 11 23 C6.07974393 20.72210367 2.06917852 17.07889273 0 12 C-0.39926116 7.96190294 -0.29869797 4.04237925 0 0 Z " fill="#E3BE7F" transform="translate(41,244)"/>
<path d="M0 0 C0.77085937 0.00718552 1.54171875 0.01437103 2.3359375 0.02177429 C3.12742187 0.02223251 3.91890625 0.02269073 4.734375 0.02316284 C6.4088694 0.02618573 8.08336098 0.03407314 9.7578125 0.0464325 C12.32562181 0.06466978 14.89307024 0.06694232 17.4609375 0.06669617 C19.08594063 0.07161211 20.7109413 0.07744076 22.3359375 0.08427429 C23.49222656 0.08594353 23.49222656 0.08594353 24.671875 0.08764648 C30.10379772 0.13617315 30.10379772 0.13617315 32.3359375 1.25224304 C32.66927083 2.58557638 33.00260417 3.91890971 33.3359375 5.25224304 C33.9959375 5.58224304 34.6559375 5.91224304 35.3359375 6.25224304 C35.0059375 7.57224304 34.6759375 8.89224304 34.3359375 10.25224304 C29.3359375 4.62724304 29.3359375 4.62724304 29.3359375 1.25224304 C18.1159375 1.58224304 6.8959375 1.91224304 -4.6640625 2.25224304 C-4.6640625 15.12224304 -4.6640625 27.99224304 -4.6640625 41.25224304 C2.9259375 41.58224304 10.5159375 41.91224304 18.3359375 42.25224304 C18.3359375 42.58224304 18.3359375 42.91224304 18.3359375 43.25224304 C9.7559375 43.25224304 1.1759375 43.25224304 -7.6640625 43.25224304 C-8.73011913 38.98801654 -8.7285807 35.18342881 -8.61328125 30.83818054 C-8.5944136 30.02733002 -8.57554596 29.21647949 -8.55610657 28.38105774 C-8.51431601 26.67138023 -8.46958819 24.96177232 -8.42211914 23.25224304 C-8.35163622 20.62998555 -8.29744864 18.00771156 -8.24414062 15.38505554 C-8.20151409 13.72357143 -8.15792736 12.06211161 -8.11328125 10.40068054 C-8.09859299 9.6142215 -8.08390472 8.82776245 -8.06877136 8.01747131 C-7.85519402 1.28850452 -6.76904507 0.02916211 0 0 Z " fill="#DEBF89" transform="translate(352.6640625,202.7477569580078)"/>
<path d="M0 0 C1.08864349 0.00539291 1.08864349 0.00539291 2.19927979 0.01089478 C2.96020432 0.01074875 3.72112885 0.01060272 4.50511169 0.01045227 C7.03202113 0.01115155 9.55885776 0.01894462 12.08575439 0.02676392 C13.83310404 0.02862804 15.58045421 0.03005197 17.32780457 0.03105164 C21.93591749 0.03487724 26.54399909 0.04470788 31.15209961 0.05575562 C35.85068335 0.06596883 40.54927214 0.07054906 45.24786377 0.07559204 C54.47378902 0.08633011 63.69969098 0.10340704 72.92559814 0.12442017 C73.42059814 1.11442017 73.42059814 1.11442017 73.92559814 2.12442017 C48.18559814 2.12442017 22.44559814 2.12442017 -4.07440186 2.12442017 C-4.73440186 3.44442017 -5.39440186 4.76442017 -6.07440186 6.12442017 C-6.11712286 4.45830111 -6.11504018 2.79059132 -6.07440186 1.12442017 C-4.37771979 -0.5722619 -2.26308167 0.00473024 0 0 Z " fill="#E3C695" transform="translate(78.07440185546875,252.87557983398438)"/>
<path d="M0 0 C0.99 0.33 1.98 0.66 3 1 C3.74259349 3.31029085 4.411438 5.645752 5 8 C5.98267859 9.20561184 5.98267859 9.20561184 7.84765625 9.09765625 C9.8984375 9.06510417 11.94921875 9.03255208 14 9 C13.67 9.99 13.34 10.98 13 12 C12.05125 12.28875 11.1025 12.5775 10.125 12.875 C6.38961807 14.21973749 5.66140939 15.49258017 4 19 C4.78375 18.505 5.5675 18.01 6.375 17.5 C9 16 9 16 11 16 C11 16.66 11 17.32 11 18 C11.66 18.33 12.32 18.66 13 19 C13.33 19.66 13.66 20.32 14 21 C7.01370081 21.50604984 2.79799884 21.0333905 -3 17 C-3 16.34 -3 15.68 -3 15 C-3.66 15 -4.32 15 -5 15 C-5.66 13.02 -6.32 11.04 -7 9 C-6.01 9 -5.02 9 -4 9 C-3.9175 9.61875 -3.835 10.2375 -3.75 10.875 C-3.18741541 13.18437567 -3.18741541 13.18437567 -0.9375 14.25 C-0.298125 14.4975 0.34125 14.745 1 15 C1.5534764 12.92446352 2 11.15634036 2 9 C1.34 8.01 0.68 7.02 0 6 C-0.125 2.8125 -0.125 2.8125 0 0 Z " fill="#E4BB79" transform="translate(389,297)"/>
<path d="M0 0 C0.33 0 0.66 0 1 0 C2.07102233 23.87885488 2.07102233 23.87885488 -5.4453125 32.6953125 C-6.8125 34.125 -6.8125 34.125 -9 36 C-9.33 35.01 -9.66 34.02 -10 33 C-9.34 33 -8.68 33 -8 33 C-8 32.01 -8 31.02 -8 30 C-14.2785768 29.78191422 -14.2785768 29.78191422 -20 32 C-23.25 32.125 -23.25 32.125 -26 32 C-24.00546375 30.9871147 -22.01308225 30.00575016 -19.96484375 29.10546875 C-15.55291873 27.1077763 -13.05327749 25.61987435 -11 21 C-10.34 22.32 -9.68 23.64 -9 25 C-9 24.01 -9 23.02 -9 22 C-8.34 22.33 -7.68 22.66 -7 23 C-6.67 23.99 -6.34 24.98 -6 26 C-1.4348431 21.6168669 -0.41161091 18.65105721 -0.20507812 12.36328125 C-0.19927734 11.45964844 -0.19347656 10.55601562 -0.1875 9.625 C-0.16236328 8.69816406 -0.13722656 7.77132813 -0.11132812 6.81640625 C-0.05275692 4.54384359 -0.01625987 2.27319322 0 0 Z " fill="#E1C086" transform="translate(346,306)"/>
<path d="M0 0 C9.41002278 -0.18451025 9.41002278 -0.18451025 14 1 C14.33 2.32 14.66 3.64 15 5 C15.66 5 16.32 5 17 5 C17.66 6.65 18.32 8.3 19 10 C18.01 10 17.02 10 16 10 C15.67 10.99 15.34 11.98 15 13 C12 11 12 11 11 9 C9.18703322 8.09392835 9.18703322 8.09392835 7.0625 7.375 C5.99708984 6.98441406 5.99708984 6.98441406 4.91015625 6.5859375 C3.01432322 5.90224619 3.01432322 5.90224619 1 6 C0.34 6 -0.32 6 -1 6 C-0.67 4.02 -0.34 2.04 0 0 Z " fill="#E4B76B" transform="translate(193,86)"/>
<path d="M0 0 C0 0.99 0 1.98 0 3 C0.33 3.99 0.66 4.98 1 6 C1.66 6 2.32 6 3 6 C3 7.98 3 9.96 3 12 C2.34 12 1.68 12 1 12 C1 12.66 1 13.32 1 14 C0.34 14 -0.32 14 -1 14 C-1.33 14.99 -1.66 15.98 -2 17 C-3.258125 17.020625 -4.51625 17.04125 -5.8125 17.0625 C-6.52019531 17.07410156 -7.22789062 17.08570313 -7.95703125 17.09765625 C-10 17 -10 17 -13 16 C-12.67 15.01 -12.34 14.02 -12 13 C-11.34 13 -10.68 13 -10 13 C-10 12.34 -10 11.68 -10 11 C-8.57421875 9.66796875 -8.57421875 9.66796875 -6.6875 8.1875 C-3.71432895 5.7379441 -1.74467425 3.48934851 0 0 Z " fill="#E2B66C" transform="translate(260,440)"/>
<path d="M0 0 C0.33 0 0.66 0 1 0 C1.34700907 5.66781474 0.52575819 9.04562817 -2 14 C-2.66 14.66 -3.32 15.32 -4 16 C-4 16.66 -4 17.32 -4 18 C-7.96 18.495 -7.96 18.495 -12 19 C-12.66 17.35 -13.32 15.7 -14 14 C-13.21625 13.814375 -12.4325 13.62875 -11.625 13.4375 C-8.60408023 12.17658301 -8.60408023 12.17658301 -7.875 8.4375 C-7.441875 6.7359375 -7.441875 6.7359375 -7 5 C-6.01 4.67 -5.02 4.34 -4 4 C-3.34 4.33 -2.68 4.66 -2 5 C-1.855625 4.360625 -1.71125 3.72125 -1.5625 3.0625 C-1 1 -1 1 0 0 Z " fill="#E4B76B" transform="translate(214,393)"/>
<path d="M0 0 C6.40948522 -0.5910386 11.0082689 -0.3353035 16.3046875 3.53515625 C19.89414466 6.63664573 21.74177621 9.04449274 22.375 13.83984375 C22.72311168 22.64054229 22.72311168 22.64054229 20.25 26.625 C18.20069294 28.78815745 16.78292412 30.00609853 14 31 C14 31.66 14 32.32 14 33 C10.535 33.495 10.535 33.495 7 34 C7 33.34 7 32.68 7 32 C8.98 32 10.96 32 13 32 C13.12375 31.360625 13.2475 30.72125 13.375 30.0625 C13.58125 29.381875 13.7875 28.70125 14 28 C14.66 27.67 15.32 27.34 16 27 C16 26.01 16 25.02 16 24 C17.32 24 18.64 24 20 24 C20.17151413 14.79859284 20.17151413 14.79859284 16.25 6.8125 C11.40581533 2.16346021 6.45435994 1.65637559 0 1 C0 0.67 0 0.34 0 0 Z " fill="#E4C997" transform="translate(393,182)"/>
<path d="M0 0 C9.9357476 -0.139152 19.87126259 -0.24569781 29.80778694 -0.31087303 C34.4220133 -0.34215771 39.03557197 -0.38457721 43.64941406 -0.45263672 C48.10391657 -0.51793296 52.55777779 -0.55372759 57.01272202 -0.56926346 C58.71042856 -0.58033154 60.40810083 -0.60194591 62.1055336 -0.63438034 C64.48795033 -0.678084 66.8677338 -0.68392887 69.25048828 -0.68115234 C69.94892349 -0.702724 70.6473587 -0.72429565 71.36695862 -0.746521 C76.37171449 -0.68360867 78.69950198 0.92383771 82.05760002 4.32082176 C83 6 83 6 82.65332222 8.20046425 C82.32992772 9.09123445 82.32992772 9.09123445 82 10 C80.19040578 8.35491434 79.05887637 7.13345311 78.0625 4.875 C77.19449743 2.87498857 77.19449743 2.87498857 75.38079834 2.39564514 C72.18574368 1.86468549 69.08410492 1.83377368 65.84472656 1.79467773 C64.77583443 1.77982834 64.77583443 1.77982834 63.68534851 1.76467896 C61.33714078 1.73316861 58.98891285 1.70834809 56.640625 1.68359375 C55.00965864 1.66301517 53.37869751 1.64201846 51.7477417 1.62062073 C47.46030923 1.56549335 43.17282937 1.51604301 38.88531494 1.46777344 C34.50813594 1.41749017 30.13102553 1.36183976 25.75390625 1.30664062 C17.16932888 1.19917325 8.58469402 1.09770304 0 1 C0 0.67 0 0.34 0 0 Z " fill="#DEB87C" transform="translate(348,253)"/>
<path d="M0 0 C5.74343333 1.28934218 9.42223326 3.26304756 14 7 C14 7.66 14 8.32 14 9 C14.66 9 15.32 9 16 9 C15.67 9.66 15.34 10.32 15 11 C12.36 11 9.72 11 7 11 C7 11.99 7 12.98 7 14 C7.99 14.33 8.98 14.66 10 15 C11.1875 17.5625 11.1875 17.5625 12 20 C11.34 20.66 10.68 21.32 10 22 C9.54625 20.948125 9.0925 19.89625 8.625 18.8125 C5.83433482 13.80152456 1.1087368 12.115641 -4 10 C-1.39398401 9.30391184 0.9836625 8.88329428 3.6875 8.5625 C4.780625 8.376875 5.87375 8.19125 7 8 C7.33 7.34 7.66 6.68 8 6 C7.34 5.67 6.68 5.34 6 5 C6 4.34 6 3.68 6 3 C3.03 2.505 3.03 2.505 0 2 C0 1.34 0 0.68 0 0 Z " fill="#E4BE7B" transform="translate(326,153)"/>
<path d="M0 0 C0.77601563 0.07863281 1.55203125 0.15726562 2.3515625 0.23828125 C4.375 0.6875 4.375 0.6875 6.375 2.6875 C4.41674127 2.71444851 2.45837774 2.73387218 0.5 2.75 C-0.59054688 2.76160156 -1.68109375 2.77320312 -2.8046875 2.78515625 C-5.625 2.6875 -5.625 2.6875 -7.625 1.6875 C-7.955 3.6675 -8.285 5.6475 -8.625 7.6875 C-7.635 7.0275 -6.645 6.3675 -5.625 5.6875 C-2.625 6.6875 -2.625 6.6875 0.375 8.6875 C2.03824401 9.69318242 3.70436253 10.69414799 5.375 11.6875 C4.715 12.3475 4.055 13.0075 3.375 13.6875 C2.385 13.0275 1.395 12.3675 0.375 11.6875 C-3.26439932 12.00480524 -3.26439932 12.00480524 -6.625 12.6875 C-6.625 11.6975 -6.625 10.7075 -6.625 9.6875 C-7.615 9.6875 -8.605 9.6875 -9.625 9.6875 C-9.625 8.6975 -9.625 7.7075 -9.625 6.6875 C-10.945 6.0275 -12.265 5.3675 -13.625 4.6875 C-8.96458413 0.67436411 -6.10957278 -0.68451735 0 0 Z " fill="#E6BA79" transform="translate(200.625,84.3125)"/>
<path d="M0 0 C2.98704569 0.49784095 4.39324263 1.26216175 7 3 C7 3.66 7 4.32 7 5 C5.68 5.33 4.36 5.66 3 6 C3.33 8.97 3.66 11.94 4 15 C2.68 14.67 1.36 14.34 0 14 C0.185625 13.236875 0.37125 12.47375 0.5625 11.6875 C1.22819173 8.91032625 1.22819173 8.91032625 0 6 C-2.76250036 4.61874982 -4.94731099 4.80920694 -8 5 C-10.76223278 7.76223278 -10.57856291 10.20706617 -11 14 C-11.33 14 -11.66 14 -12 14 C-12.05447047 12.58376784 -12.09300508 11.16691809 -12.125 9.75 C-12.14820313 8.96109375 -12.17140625 8.1721875 -12.1953125 7.359375 C-11.9828378 4.79268059 -11.28654105 3.2083933 -10 1 C-9.36191406 1.01160156 -8.72382813 1.02320313 -8.06640625 1.03515625 C-7.24011719 1.04417969 -6.41382813 1.05320313 -5.5625 1.0625 C-4.32693359 1.07990234 -4.32693359 1.07990234 -3.06640625 1.09765625 C-1.00836062 1.23267348 -1.00836062 1.23267348 0 0 Z " fill="#E3BC80" transform="translate(403,189)"/>
<path d="M0 0 C0 0.66 0 1.32 0 2 C-0.99 2.495 -0.99 2.495 -2 3 C-1.67 3.66 -1.34 4.32 -1 5 C-2 7 -2 7 -4.875 8.0625 C-5.90625 8.371875 -6.9375 8.68125 -8 9 C-8.99 9.33 -9.98 9.66 -11 10 C-13.1875 9.0625 -13.1875 9.0625 -15 8 C-14.5625 5.125 -14.5625 5.125 -13 2 C-8.77826117 0.21546852 -4.53920722 0 0 0 Z " fill="#E5B86C" transform="translate(304,86)"/>
<path d="M0 0 C4.875 4.625 4.875 4.625 6 8 C17.22 8 28.44 8 40 8 C40 8.33 40 8.66 40 9 C26.14 9 12.28 9 -2 9 C-2.33 9.66 -2.66 10.32 -3 11 C-3 10.34 -3 9.68 -3 9 C-3.99 8.67 -4.98 8.34 -6 8 C-1.25 6.875 -1.25 6.875 1 8 C0.649375 7.4225 0.29875 6.845 -0.0625 6.25 C-1.14917407 3.64198224 -0.93065133 2.60582371 0 0 Z " fill="#EFDBB7" transform="translate(112,287)"/>
<path d="M0 0 C2.51006264 2.40092948 3.89989309 3.82181872 4.203125 7.390625 C4.29499339 12.99459692 4.35273398 17.25992781 1 22 C-1.68673501 24.48522988 -3.52547139 25.8418238 -7 27 C-7.33 25.68 -7.66 24.36 -8 23 C-6.35 23.33 -4.7 23.66 -3 24 C-3.7763932 20.9254644 -3.7763932 20.9254644 -6 19 C-5.34 18.01 -4.68 17.02 -4 16 C-2.35 16.33 -0.7 16.66 1 17 C2.32528788 10.90367577 1.46619907 6.02232181 0 0 Z " fill="#E5C690" transform="translate(411,290)"/>
<path d="M0 0 C0 0.66 0 1.32 0 2 C0.99 2.33 1.98 2.66 3 3 C3 3.99 3 4.98 3 6 C1.68 6.33 0.36 6.66 -1 7 C-1 7.66 -1 8.32 -1 9 C-1.99 8.67 -2.98 8.34 -4 8 C-4.33 7.01 -4.66 6.02 -5 5 C-5.598125 5.495 -6.19625 5.99 -6.8125 6.5 C-9 8 -9 8 -12 8 C-11.4375 5.6875 -11.4375 5.6875 -10 3 C-6.48388132 1.14604652 -3.99073753 0 0 0 Z " fill="#E3B86A" transform="translate(405,308)"/>
<path d="M0 0 C2.31 0.33 4.62 0.66 7 1 C7.66 4.3 8.32 7.6 9 11 C7.35 11.33 5.7 11.66 4 12 C3.34 12.66 2.68 13.32 2 14 C1.93941406 13.15695313 1.87882812 12.31390625 1.81640625 11.4453125 C1.73261719 10.34960938 1.64882813 9.25390625 1.5625 8.125 C1.48128906 7.03445312 1.40007812 5.94390625 1.31640625 4.8203125 C1.16998297 2.05271029 1.16998297 2.05271029 0 0 Z " fill="#E3B86A" transform="translate(256,46)"/>
<path d="M0 0 C0.33 0 0.66 0 1 0 C2.34588235 7.34117647 2.34588235 7.34117647 0.6875 10.5 C-1 12 -1 12 -3 12 C-3 13.98 -3 15.96 -3 18 C0.63 17.67 4.26 17.34 8 17 C8.12375 16.030625 8.2475 15.06125 8.375 14.0625 C8.58125 13.051875 8.7875 12.04125 9 11 C9.66 10.67 10.32 10.34 11 10 C10.41321669 13.52069985 9.64350079 15.71299843 8 19 C3.71 19 -0.58 19 -5 19 C-4.48378772 12.16018724 -2.51409031 6.36123316 0 0 Z " fill="#DFC693" transform="translate(204,277)"/>
<path d="M0 0 C5.09032841 -0.02468084 10.18062215 -0.04285082 15.27099609 -0.05493164 C17.00342414 -0.05996682 18.73584792 -0.06679532 20.46826172 -0.07543945 C22.95541433 -0.08754065 25.44251087 -0.09323638 27.9296875 -0.09765625 C28.70682098 -0.10281754 29.48395447 -0.10797882 30.28463745 -0.11329651 C35.77225659 -0.11387171 35.77225659 -0.11387171 38 1 C38.33333333 2.33333333 38.66666667 3.66666667 39 5 C39.66 5.33 40.32 5.66 41 6 C40.67 7.32 40.34 8.64 40 10 C35 4.375 35 4.375 35 1 C17.675 1.495 17.675 1.495 0 2 C0 1.34 0 0.68 0 0 Z " fill="#E5C994" transform="translate(347,203)"/>
<path d="M0 0 C0 0.99 0 1.98 0 3 C-10.89 2.67 -21.78 2.34 -33 2 C-33 1.67 -33 1.34 -33 1 C-22.01480208 -0.27364614 -11.04098375 -0.10085216 0 0 Z " fill="#DEBF86" transform="translate(245,345)"/>
<path d="M0 0 C0.33 0.66 0.66 1.32 1 2 C0.33447611 3.33390411 -0.33237634 4.66714559 -1 6 C-1.66624273 10.18680957 -1.91205011 14.29030328 0.12109375 18.1015625 C1.37187692 19.7669112 2.68291828 21.38657489 4 23 C4 23.99 4 24.98 4 26 C3.34 26 2.68 26 2 26 C2 25.34 2 24.68 2 24 C1.34 24 0.68 24 0 24 C-3.93972549 18.33664461 -4.97258551 13.87595334 -4 7 C-1.97058824 1.97058824 -1.97058824 1.97058824 0 0 Z " fill="#E4C998" transform="translate(186,90)"/>
<path d="M0 0 C1.51400391 0.01740234 1.51400391 0.01740234 3.05859375 0.03515625 C4.07050781 0.04417969 5.08242188 0.05320312 6.125 0.0625 C7.29869141 0.07990234 7.29869141 0.07990234 8.49609375 0.09765625 C8.49609375 1.41765625 8.49609375 2.73765625 8.49609375 4.09765625 C9.15609375 4.09765625 9.81609375 4.09765625 10.49609375 4.09765625 C10.92698548 8.49275191 10.95661203 10.46608832 8.30859375 14.09765625 C5.49609375 16.09765625 5.49609375 16.09765625 2.68359375 15.91015625 C1.96171875 15.64203125 1.23984375 15.37390625 0.49609375 15.09765625 C0.49609375 14.76765625 0.49609375 14.43765625 0.49609375 14.09765625 C1.46546875 13.78828125 2.43484375 13.47890625 3.43359375 13.16015625 C6.33675167 12.40242283 6.33675167 12.40242283 7.49609375 11.09765625 C7.85906254 6.94566404 7.85906254 6.94566404 6.37109375 3.16015625 C3.51006282 1.53890539 1.58800498 2.26026363 -1.50390625 3.09765625 C-2.49390625 3.75765625 -3.48390625 4.41765625 -4.50390625 5.09765625 C-3.38261259 0.13192717 -3.38261259 0.13192717 0 0 Z " fill="#E6C99C" transform="translate(298.50390625,93.90234375)"/>
<path d="M0 0 C0.33 0 0.66 0 1 0 C1.33 4.62 1.66 9.24 2 14 C-3.75 18 -3.75 18 -6 18 C-6 19.65 -6 21.3 -6 23 C-6.99 23 -7.98 23 -9 23 C-9.3125 20.8125 -9.3125 20.8125 -9 18 C-6.43879574 14.95424358 -4.79480342 13.26493447 -1 12 C-0.67 8.04 -0.34 4.08 0 0 Z " fill="#E5C494" transform="translate(244,414)"/>
<path d="M0 0 C11.22 0.33 22.44 0.66 34 1 C34 1.33 34 1.66 34 2 C23.44 2 12.88 2 2 2 C1.34 3.98 0.68 5.96 0 8 C-0.99 8.495 -0.99 8.495 -2 9 C-1.125 2.25 -1.125 2.25 0 0 Z " fill="#E4C790" transform="translate(116,202)"/>
<path d="M0 0 C2.19442375 1.7462258 2.93766788 2.64734619 3.43359375 5.453125 C3.44255927 11.87243388 2.84763332 15.79437845 -1 21 C-1.66 21.33 -2.32 21.66 -3 22 C-3.33 21.01 -3.66 20.02 -4 19 C-3.01 18.67 -2.02 18.34 -1 18 C-0.65725594 16.33524314 -0.32635698 14.66804677 0 13 C0.226875 11.948125 0.45375 10.89625 0.6875 9.8125 C0.8421875 8.4203125 0.8421875 8.4203125 1 7 C0.34 6.34 -0.32 5.68 -1 5 C-0.625 2.375 -0.625 2.375 0 0 Z " fill="#DEC28A" transform="translate(213,389)"/>
<path d="M0 0 C3 2 3 2 3.66796875 3.82421875 C4.81641324 11.34990792 4.52558629 16.74404248 0 23 C-0.66 23.33 -1.32 23.66 -2 24 C-1.67 22.35 -1.34 20.7 -1 19 C-0.34 19 0.32 19 1 19 C1.0272616 16.95840905 1.04651345 14.91671037 1.0625 12.875 C1.07410156 11.73804687 1.08570313 10.60109375 1.09765625 9.4296875 C1.005327 6.1870844 0.61389906 3.18067388 0 0 Z " fill="#E5CC9B" transform="translate(212,91)"/>
<path d="M0 0 C1.65 0 3.3 0 5 0 C-1.19031174 5.04999116 -5.03757201 5.68839435 -13 5 C-16.1875 3.5 -16.1875 3.5 -18 2 C-14.22628488 0.6642543 -11.14168653 1.27591329 -7.25 1.9375 C-6.07953125 2.13214844 -4.9090625 2.32679688 -3.703125 2.52734375 C-2.81109375 2.68332031 -1.9190625 2.83929688 -1 3 C-0.67 2.01 -0.34 1.02 0 0 Z " fill="#E3C898" transform="translate(65,262)"/>
<path d="M0 0 C0.33 0 0.66 0 1 0 C1.33 4.62 1.66 9.24 2 14 C2.66 14 3.32 14 4 14 C5.0625 15.8125 5.0625 15.8125 6 18 C5.67 18.99 5.34 19.98 5 21 C1.13424653 17.52082187 -0.82675732 14.81186201 -1.15234375 9.52734375 C-1.24351332 2.48702665 -1.24351332 2.48702665 0 0 Z " fill="#E2C895" transform="translate(183,391)"/>
<path d="M0 0 C1.98 0 3.96 0 6 0 C4.625 1.5 4.625 1.5 3 3 C2.34 3 1.68 3 1 3 C1 13.89 1 24.78 1 36 C0.67 36 0.34 36 0 36 C0 24.12 0 12.24 0 0 Z " fill="#E6C693" transform="translate(203,115)"/>
<path d="M0 0 C0.33 0 0.66 0 1 0 C1 3.3 1 6.6 1 10 C1.99 10 2.98 10 4 10 C3.91621094 10.556875 3.83242187 11.11375 3.74609375 11.6875 C3.02943416 17.05791108 3.12517289 21.65383432 4 27 C-0.47181535 22.52818465 -0.10372052 14.92164386 -0.13623047 8.9362793 C-0.11999688 5.95671083 -0.07148931 2.97872139 0 0 Z " fill="#E7C895" transform="translate(152,306)"/>
<path d="M0 0 C1.98 0 3.96 0 6 0 C3.46803105 2.64705844 2.08422383 3.91781394 -1.6796875 4.203125 C-3.26136719 4.22632813 -3.26136719 4.22632813 -4.875 4.25 C-6.44894531 4.28867187 -6.44894531 4.28867187 -8.0546875 4.328125 C-11 4 -11 4 -15 1 C-10.05 1 -5.1 1 0 1 C0 0.67 0 0.34 0 0 Z " fill="#E4C690" transform="translate(204,411)"/>
<path d="M0 0 C5.74343333 1.28934218 9.42223326 3.26304756 14 7 C14 7.66 14 8.32 14 9 C14.66 9 15.32 9 16 9 C15.67 9.66 15.34 10.32 15 11 C13.02 11 11.04 11 9 11 C9 9.35 9 7.7 9 6 C8.01 5.67 7.02 5.34 6 5 C6 4.34 6 3.68 6 3 C3.03 2.505 3.03 2.505 0 2 C0 1.34 0 0.68 0 0 Z " fill="#E4C795" transform="translate(326,153)"/>
<path d="M0 0 C1.62580966 0.11398665 3.25067157 0.24155659 4.875 0.375 C5.77992188 0.44460938 6.68484375 0.51421875 7.6171875 0.5859375 C10 1 10 1 12 3 C9.81160732 3 7.62286794 2.92751937 5.4375 2.8125 C4.303125 2.874375 3.16875 2.93625 2 3 C-0.29013653 6.4352048 -0.17842973 7.985331 0 12 C-0.99 11.67 -1.98 11.34 -3 11 C-3.32613618 6.32538149 -2.70582788 3.83325617 0 0 Z " fill="#E5C691" transform="translate(295,390)"/>
<path d="M0 0 C0.33 0.66 0.66 1.32 1 2 C0.2578125 4.1015625 0.2578125 4.1015625 -0.875 6.625 C-2.79767026 11.18636944 -3.63550448 15.07931054 -4 20 C-6.22324655 16.1677112 -6.19494578 13.63121564 -5.625 9.328125 C-4.59573587 5.4941161 -2.51740182 3.03379193 0 0 Z " fill="#E9CB99" transform="translate(90,287)"/>
<path d="M0 0 C2.71077722 -0.16300888 5.41166551 -0.28128285 8.125 -0.375 C9.26582031 -0.45041016 9.26582031 -0.45041016 10.4296875 -0.52734375 C14.8014316 -0.6404061 17.33049724 -0.24712399 20.6171875 2.7734375 C22.09716797 4.31005859 22.09716797 4.31005859 23 6 C22.64892578 8.20166016 22.64892578 8.20166016 22 10 C20.19040578 8.35491434 19.05887637 7.13345311 18.0625 4.875 C17.19526255 2.86688144 17.19526255 2.86688144 15.35546875 2.41796875 C12.32528175 1.88027388 9.31967896 1.65237753 6.25 1.4375 C5.07953125 1.35371094 3.9090625 1.26992187 2.703125 1.18359375 C1.81109375 1.12300781 0.9190625 1.06242188 0 1 C0 0.67 0 0.34 0 0 Z " fill="#DDB87E" transform="translate(408,253)"/>
<path d="M0 0 C0.66 0.33 1.32 0.66 2 1 C2 1.66 2 2.32 2 3 C1.34 3 0.68 3 0 3 C-0.28875 3.598125 -0.5775 4.19625 -0.875 4.8125 C-2 7 -2 7 -4 10 C-5.32 10 -6.64 10 -8 10 C-6.5682479 4.98886765 -4.01554307 3.05530451 0 0 Z " fill="#E6C28C" transform="translate(50,234)"/>
<path d="M0 0 C0.33 0 0.66 0 1 0 C1 11.88 1 23.76 1 36 C0.01 36 -0.98 36 -2 36 C-1.67 35.34 -1.34 34.68 -1 34 C-0.84355828 31.44893971 -0.74178611 28.92081337 -0.68359375 26.3671875 C-0.66281265 25.61535187 -0.64203156 24.86351624 -0.62062073 24.08889771 C-0.55517295 21.68435915 -0.49626262 19.27971033 -0.4375 16.875 C-0.39431023 15.24608229 -0.35069579 13.61717578 -0.30664062 11.98828125 C-0.19949649 7.99230085 -0.09821567 3.99620941 0 0 Z " fill="#D9B475" transform="translate(296,348)"/>
<path d="M0 0 C2.475 0.99 2.475 0.99 5 2 C5 2.66 5 3.32 5 4 C5.66 4 6.32 4 7 4 C7.73080266 5.97746603 8.39421747 7.98072489 9 10 C8.67 10.66 8.34 11.32 8 12 C5.4375 12.625 5.4375 12.625 3 13 C3.2475 11.96875 3.495 10.9375 3.75 9.875 C4.05306524 5.17748885 2.89158993 3.59258142 0 0 Z " fill="#E4C38C" transform="translate(109,184)"/>
<path d="M0 0 C2.97 0.33 5.94 0.66 9 1 C9.33 1.99 9.66 2.98 10 4 C8.72125 3.95875 7.4425 3.9175 6.125 3.875 C3.98128508 3.75787127 3.98128508 3.75787127 2 4 C-0.76223278 6.76223278 -0.57856291 9.20706617 -1 13 C-1.33 13 -1.66 13 -2 13 C-2.05447047 11.58376784 -2.09300508 10.16691809 -2.125 8.75 C-2.14820313 7.96109375 -2.17140625 7.1721875 -2.1953125 6.359375 C-2 4 -2 4 0 0 Z " fill="#E7CC94" transform="translate(393,190)"/>
<path d="M0 0 C1.29550781 -0.02126953 1.29550781 -0.02126953 2.6171875 -0.04296875 C5.2491288 0.19890748 6.86480544 0.85766459 9.125 2.1875 C8.795 2.8475 8.465 3.5075 8.125 4.1875 C7.568125 3.836875 7.01125 3.48625 6.4375 3.125 C4.14484843 2.0371354 4.14484843 2.0371354 1.5625 2.125 C-1.28472529 3.0587095 -1.28472529 3.0587095 -2.6875 6.75 C-3.079375 7.884375 -3.47125 9.01875 -3.875 10.1875 C-4.205 10.1875 -4.535 10.1875 -4.875 10.1875 C-5.535 7.2175 -6.195 4.2475 -6.875 1.1875 C-4.42528376 -0.03735812 -2.73265539 0.02027192 0 0 Z " fill="#E5C68D" transform="translate(246.875,49.8125)"/>
<path d="M0 0 C0.66 0 1.32 0 2 0 C2 0.66 2 1.32 2 2 C2.66 2.33 3.32 2.66 4 3 C4.33 3.66 4.66 4.32 5 5 C-5.55808656 5.55353075 -5.55808656 5.55353075 -10 2 C-7.63591793 1.24011648 -6.30986733 0.9179763 -3.875 1.5625 C-3.25625 1.706875 -2.6375 1.85125 -2 2 C-1.34 1.34 -0.68 0.68 0 0 Z " fill="#E7C792" transform="translate(398,313)"/>
<path d="M0 0 C0.99 0.33 1.98 0.66 3 1 C3 1.66 3 2.32 3 3 C3.66 3 4.32 3 5 3 C5 3.66 5 4.32 5 5 C5.53625 5.268125 6.0725 5.53625 6.625 5.8125 C9.41666667 7.20833333 12.20833333 8.60416667 15 10 C12.14522351 11.20779006 11.03101934 11.01121976 8.0625 9.9375 C4.41407744 7.6293143 2.52244577 5.48691033 0 2 C0 1.34 0 0.68 0 0 Z " fill="#E3CB99" transform="translate(86,307)"/>
<path d="M0 0 C-1.71100614 5.98852148 -6.00538168 8.67025445 -11 12 C-11.99 11.67 -12.98 11.34 -14 11 C-13.34 11 -12.68 11 -12 11 C-11.67 10.01 -11.34 9.02 -11 8 C-8.9375 7.3125 -8.9375 7.3125 -7 7 C-7 6.34 -7 5.68 -7 5 C-6.01 5 -5.02 5 -4 5 C-4.33 3.68 -4.66 2.36 -5 1 C-2 0 -2 0 0 0 Z " fill="#E5CB9A" transform="translate(118,306)"/>
<path d="M0 0 C0.99 0 1.98 0 3 0 C3.72936048 3.04342235 4.23574867 5.86716216 4 9 C2.23893579 11.37337269 0.5475733 12.38826995 -2 14 C-4.64 13.01 -7.28 12.02 -10 11 C-9.67 10.34 -9.34 9.68 -9 9 C-8.34 9.33 -7.68 9.66 -7 10 C-4 10.25 -4 10.25 -1 10 C1.76223278 7.23776722 1.57856291 4.79293383 2 1 C1.34 0.67 0.68 0.34 0 0 Z " fill="#E5CA96" transform="translate(106,296)"/>
<path d="M0 0 C0.33 0 0.66 0 1 0 C0.67 3.96 0.34 7.92 0 12 C0.66 12 1.32 12 2 12 C2.33 14.31 2.66 16.62 3 19 C0.65188661 17.25785135 -0.78240881 15.80189202 -1.55859375 12.94140625 C-2.21732033 8.11887706 -1.98278241 4.54873611 0 0 Z " fill="#E7CB9C" transform="translate(86,191)"/>
<path d="M0 0 C0.66 1.32 1.32 2.64 2 4 C0.71937515 5.7074998 -0.61767557 7.37373596 -2 9 C-2.66 9 -3.32 9 -4 9 C-4 8.34 -4 7.68 -4 7 C-5.32 7 -6.64 7 -8 7 C-8 5.35 -8 3.7 -8 2 C-6.68 2 -5.36 2 -4 2 C-3.67 2.99 -3.34 3.98 -3 5 C-2.34 5 -1.68 5 -1 5 C-0.67 3.35 -0.34 1.7 0 0 Z " fill="#E7C389" transform="translate(314,403)"/>
<path d="M0 0 C0.66 0.33 1.32 0.66 2 1 C1.34 2.65 0.68 4.3 0 6 C-0.66 6 -1.32 6 -2 6 C-2.66 7.65 -3.32 9.3 -4 11 C-4.99 11 -5.98 11 -7 11 C-5.72278474 6.00724943 -3.82669043 3.42388092 0 0 Z " fill="#E3C48B" transform="translate(432,235)"/>
<path d="M0 0 C0.99 0.495 0.99 0.495 2 1 C2.625 3.0625 2.625 3.0625 3 5 C3.99 5 4.98 5 6 5 C5.67 8.63 5.34 12.26 5 16 C3.26453924 13.39680887 2.34824767 11.47732763 1.375 8.5625 C1.11460937 7.80066406 0.85421875 7.03882813 0.5859375 6.25390625 C0 4 0 4 0 0 Z " fill="#E6C491" transform="translate(238,220)"/>
<path d="M0 0 C0.33 0.66 0.66 1.32 1 2 C-0.175625 1.95875 -1.35125 1.9175 -2.5625 1.875 C-6.72409674 1.86016365 -10.06487667 2.68829222 -14 4 C-14.66 3.34 -15.32 2.68 -16 2 C-10.51030746 -0.92004922 -6.09923738 -1.74076947 0 0 Z " fill="#E8CEA6" transform="translate(307,85)"/>
<path d="M0 0 C0.99 1.485 0.99 1.485 2 3 C2.99 3.33 3.98 3.66 5 4 C4.79375 5.0725 4.5875 6.145 4.375 7.25 C4.0123809 10.87619096 4.01637931 12.08291076 6 15 C4.68 14.67 3.36 14.34 2 14 C-0.29612756 4.58997722 -0.29612756 4.58997722 0 0 Z " fill="#E5C58B" transform="translate(92,190)"/>
<path d="M0 0 C0.33 0.66 0.66 1.32 1 2 C0.30306589 3.69255426 -0.40188872 5.38267903 -1.1640625 7.046875 C-2.41192045 9.96243096 -3.18742413 12.93721402 -4 16 C-4.66 15.34 -5.32 14.68 -6 14 C-5.71383408 8.39775187 -3.91208923 4.04249221 0 0 Z " fill="#E2C590" transform="translate(289,385)"/>
<path d="M0 0 C0.33 0 0.66 0 1 0 C1.61714585 5.86288556 -0.34462726 10.85400392 -3 16 C-3.66 16.33 -4.32 16.66 -5 17 C-4.35083537 10.99522721 -2.14204997 5.599219 0 0 Z " fill="#E2C696" transform="translate(219,233)"/>
<path d="M0 0 C1.32 0.33 2.64 0.66 4 1 C3.979375 1.94875 3.95875 2.8975 3.9375 3.875 C3.77448174 6.90666283 3.77448174 6.90666283 5 9 C5.99 9.66 6.98 10.32 8 11 C5.36 10.67 2.72 10.34 0 10 C0 6.7 0 3.4 0 0 Z " fill="#E6CA8F" transform="translate(190,394)"/>
<path d="M0 0 C2.31 0 4.62 0 7 0 C7 0.66 7 1.32 7 2 C7.66 2 8.32 2 9 2 C9.33 4.97 9.66 7.94 10 11 C9.67 11 9.34 11 9 11 C8.67 8.69 8.34 6.38 8 4 C5.03 3.67 2.06 3.34 -1 3 C-0.67 2.01 -0.34 1.02 0 0 Z " fill="#E8CE95" transform="translate(439,241)"/>
<path d="M0 0 C1.20849609 0.10248047 1.20849609 0.10248047 2.44140625 0.20703125 C3.64603516 0.29017578 3.64603516 0.29017578 4.875 0.375 C7.00390625 1.01953125 7.00390625 1.01953125 8.2890625 3.0703125 C8.52496094 3.71355469 8.76085938 4.35679687 9.00390625 5.01953125 C7.93140625 4.81328125 6.85890625 4.60703125 5.75390625 4.39453125 C2.12771529 4.03191215 0.92099549 4.03591056 -1.99609375 6.01953125 C-2.37828142 4.36338468 -2.71004477 2.69496101 -2.99609375 1.01953125 C-1.99609375 0.01953125 -1.99609375 0.01953125 0 0 Z " fill="#E4C185" transform="translate(53.99609375,239.98046875)"/>
<path d="M0 0 C4.07138264 2.86097158 6.16344184 5.36027412 8 10 C8 11.32 8 12.64 8 14 C7.34 14 6.68 14 6 14 C5.67 12.02 5.34 10.04 5 8 C4.34 8 3.68 8 3 8 C2.67 6.35 2.34 4.7 2 3 C1.34 3 0.68 3 0 3 C0 2.01 0 1.02 0 0 Z " fill="#E3CB9C" transform="translate(310,87)"/>
<path d="M0 0 C0.66 0.66 1.32 1.32 2 2 C0.04174127 2.02694851 -1.91662226 2.04637218 -3.875 2.0625 C-4.96554688 2.07410156 -6.05609375 2.08570312 -7.1796875 2.09765625 C-10 2 -10 2 -12 1 C-12.33 1.99 -12.66 2.98 -13 4 C-13.99 3.34 -14.98 2.68 -16 2 C-10.46130595 -0.94611386 -6.14619194 -1.66485444 0 0 Z " fill="#E8CA9E" transform="translate(205,85)"/>
<path d="M0 0 C0.66 0.33 1.32 0.66 2 1 C2 1.99 2 2.98 2 4 C1.34 4 0.68 4 0 4 C-0.66 5.65 -1.32 7.3 -2 9 C-2.66 9 -3.32 9 -4 9 C-4.33 11.64 -4.66 14.28 -5 17 C-5.33 17 -5.66 17 -6 17 C-5.70638989 10.52589703 -4.80571463 4.80571463 0 0 Z " fill="#EBD4A5" transform="translate(289,88)"/>
<path d="M0 0 C3.26954202 0.56371414 4.82575883 1.49962266 7 4 C5.35 4 3.7 4 2 4 C1.67 4.99 1.34 5.98 1 7 C-1 4 -1 4 -0.625 1.8125 C-0.41875 1.214375 -0.2125 0.61625 0 0 Z M-3 7 C0 8 0 8 0 8 Z " fill="#E3BB77" transform="translate(164,331)"/>
<path d="M0 0 C1.65 0 3.3 0 5 0 C5 0.99 5 1.98 5 3 C-0.37330889 6.39366878 -4.86946489 6.32712342 -11 6 C-11 5.67 -11 5.34 -11 5 C-5.555 4.505 -5.555 4.505 0 4 C0 2.68 0 1.36 0 0 Z " fill="#E6CA99" transform="translate(448,261)"/>
<path d="M0 0 C2.02225194 3.0333779 2.99347524 5.61344489 4.125 9.0625 C4.47820312 10.12597656 4.83140625 11.18945312 5.1953125 12.28515625 C6 15 6 15 6 17 C5.34 17 4.68 17 4 17 C3.67 15.35 3.34 13.7 3 12 C2.34 12 1.68 12 1 12 C0.67 8.04 0.34 4.08 0 0 Z " fill="#E5C993" transform="translate(261,251)"/>
<path d="M0 0 C0.66 0.33 1.32 0.66 2 1 C0.5993784 4.501554 -0.62264089 5.46483677 -4 7 C-5.70921589 8.5412312 -5.70921589 8.5412312 -7 10 C-7 5.69032084 -4.83274712 4.10253255 -2 1 C-1.34 0.67 -0.68 0.34 0 0 Z " fill="#E1C692" transform="translate(390,285)"/>
<path d="M0 0 C2.64 0 5.28 0 8 0 C8 0.66 8 1.32 8 2 C8.66 2.33 9.32 2.66 10 3 C8 4 8 4 5.125 3.4375 C1.8177538 2.97448553 0.72817192 3.21619528 -2 5 C-2 4.01 -2 3.02 -2 2 C-1.34 2 -0.68 2 0 2 C0 1.34 0 0.68 0 0 Z " fill="#E3C38B" transform="translate(394,292)"/>
<path d="M0 0 C3.10254781 2.25639841 3.89854958 5.07516127 4.7265625 8.7265625 C5.18720762 12.55649766 4.64785325 16.21793781 4 20 C3.67 20 3.34 20 3 20 C2.92652344 18.64455078 2.92652344 18.64455078 2.8515625 17.26171875 C2.77679688 16.08222656 2.70203125 14.90273437 2.625 13.6875 C2.55539062 12.51574219 2.48578125 11.34398437 2.4140625 10.13671875 C2.21386253 6.84300113 2.21386253 6.84300113 0 4 C0 2.68 0 1.36 0 0 Z " fill="#E4C894" transform="translate(342,164)"/>
<path d="M0 0 C-0.33 0.66 -0.66 1.32 -1 2 C-2.65 2 -4.3 2 -6 2 C-6 2.66 -6 3.32 -6 4 C-8.31 4.33 -10.62 4.66 -13 5 C-9.01056314 0.61161946 -5.91391458 -0.2688143 0 0 Z " fill="#E2C895" transform="translate(177,153)"/>
<path d="M0 0 C0.99 0 1.98 0 3 0 C3.1875 2.875 3.1875 2.875 3 6 C2.01 6.66 1.02 7.32 0 8 C-0.66 7.01 -1.32 6.02 -2 5 C-1.125 2.3125 -1.125 2.3125 0 0 Z " fill="#D9AC67" transform="translate(406,287)"/>
<path d="M0 0 C3.82524236 1.450954 5.19090966 3.38181932 7 7 C7 7.66 7 8.32 7 9 C6.34 9 5.68 9 5 9 C4.731875 8.360625 4.46375 7.72125 4.1875 7.0625 C3.11332248 4.66868314 3.11332248 4.66868314 0 4 C0 2.68 0 1.36 0 0 Z " fill="#E3C999" transform="translate(67,236)"/>
<path d="M0 0 C0.66 0 1.32 0 2 0 C1.55187982 2.1479894 1.09121652 4.29336561 0.625 6.4375 C0.36976563 7.63246094 0.11453125 8.82742187 -0.1484375 10.05859375 C-0.42945313 11.02925781 -0.71046875 11.99992188 -1 13 C-1.99 13.495 -1.99 13.495 -3 14 C-2.58846263 9.02906176 -2.20399168 4.55491614 0 0 Z " fill="#E1C899" transform="translate(233,224)"/>
<path d="M0 0 C6.98629919 -0.50604984 11.20200116 -0.0333905 17 4 C16.01 4.33 15.02 4.66 14 5 C12.6696875 4.319375 12.6696875 4.319375 11.3125 3.625 C7.35835599 1.68523124 4.36064835 1.37591796 0 1 C0 0.67 0 0.34 0 0 Z " fill="#E5CE9D" transform="translate(393,182)"/>
<path d="M0 0 C0.33 0 0.66 0 1 0 C1.56122991 11.8689733 1.56122991 11.8689733 -2 16 C-2.33 16 -2.66 16 -3 16 C-3 14.35 -3 12.7 -3 11 C-2.34 11 -1.68 11 -1 11 C-0.67 7.37 -0.34 3.74 0 0 Z " fill="#E5D09E" transform="translate(266,52)"/>
<path d="M0 0 C1.29858939 0.56775536 2.58870441 1.15491663 3.875 1.75 C4.59429687 2.07484375 5.31359375 2.3996875 6.0546875 2.734375 C8.3370674 4.21929686 9.00375898 5.50415408 10 8 C8.68 7.67 7.36 7.34 6 7 C6 6.34 6 5.68 6 5 C5.34 5 4.68 5 4 5 C4 4.34 4 3.68 4 3 C2.68 2.67 1.36 2.34 0 2 C0 1.34 0 0.68 0 0 Z " fill="#E4C698" transform="translate(254,425)"/>
<path d="M0 0 C1.48828125 1.14453125 1.48828125 1.14453125 3 3 C3.29296875 5.69921875 3.29296875 5.69921875 3.1875 8.6875 C3.16042969 9.68136719 3.13335937 10.67523438 3.10546875 11.69921875 C3.07066406 12.45847656 3.03585938 13.21773438 3 14 C2.67 14 2.34 14 2 14 C1.87625 12.88625 1.7525 11.7725 1.625 10.625 C1.3534187 6.96896323 1.3534187 6.96896323 -1 5 C-0.625 2.375 -0.625 2.375 0 0 Z " fill="#E8CE9A" transform="translate(213,389)"/>
<path d="M0 0 C0.33 0 0.66 0 1 0 C2.05699482 5.28497409 2.05699482 5.28497409 2 8 C0.0625 10.5 0.0625 10.5 -2 12 C-1.85904936 10.3745692 -1.71207913 8.74965949 -1.5625 7.125 C-1.48128906 6.22007812 -1.40007812 5.31515625 -1.31640625 4.3828125 C-1 2 -1 2 0 0 Z " fill="#E1C088" transform="translate(204,277)"/>
<path d="M0 0 C0.99 0.495 0.99 0.495 2 1 C2.40729228 3.32156597 2.74438677 5.6568787 3 8 C3.99 8.33 4.98 8.66 6 9 C2.25 10.125 2.25 10.125 0 9 C0 6.03 0 3.06 0 0 Z " fill="#E4C78F" transform="translate(434,247)"/>
<path d="M0 0 C2.475 0.495 2.475 0.495 5 1 C5 1.66 5 2.32 5 3 C6.32 3.33 7.64 3.66 9 4 C9 4.66 9 5.32 9 6 C5.59687262 4.94124926 2.98646769 3.99097846 0 2 C0 1.34 0 0.68 0 0 Z " fill="#E2C590" transform="translate(89,210)"/>
<path d="M0 0 C2.8125 0.625 2.8125 0.625 6 2 C7.875 5.125 7.875 5.125 9 8 C8.34 8.66 7.68 9.32 7 10 C6.401875 8.906875 5.80375 7.81375 5.1875 6.6875 C3.70955303 4.08925871 2.30177067 1.95650507 0 0 Z " fill="#E3C997" transform="translate(329,165)"/>
<path d="M0 0 C4.75 0.875 4.75 0.875 7 2 C8.53668865 2.22467831 10.07968054 2.40796805 11.625 2.5625 C12.44226563 2.64628906 13.25953125 2.73007812 14.1015625 2.81640625 C14.72804688 2.87699219 15.35453125 2.93757813 16 3 C16 3.33 16 3.66 16 4 C4.1310267 4.56122991 4.1310267 4.56122991 0 1 C0 0.67 0 0.34 0 0 Z " fill="#E2CB9C" transform="translate(290,411)"/>
<path d="M0 0 C1.875 0.3125 1.875 0.3125 4 1 C6.4294516 4.6441774 6.16179575 6.71241272 6 11 C5.67 11 5.34 11 5 11 C4.731875 10.113125 4.46375 9.22625 4.1875 8.3125 C3.08289181 5.23122452 1.77150856 2.73778595 0 0 Z " fill="#DFC389" transform="translate(408,187)"/>
<path d="M0 0 C0.33 0 0.66 0 1 0 C1.33 4.62 1.66 9.24 2 14 C0.35 14.66 -1.3 15.32 -3 16 C-2.68289062 15.46890625 -2.36578125 14.9378125 -2.0390625 14.390625 C-0.7629651 11.45464152 -0.58292979 8.93825671 -0.375 5.75 C-0.30023438 4.67234375 -0.22546875 3.5946875 -0.1484375 2.484375 C-0.09945312 1.66453125 -0.05046875 0.8446875 0 0 Z " fill="#F0E0C1" transform="translate(244,414)"/>
<path d="M0 0 C0.33 0.66 0.66 1.32 1 2 C1.66 2.33 2.32 2.66 3 3 C2.34 3 1.68 3 1 3 C1 3.66 1 4.32 1 5 C-2.465 6.485 -2.465 6.485 -6 8 C-6.33 7.34 -6.66 6.68 -7 6 C-5.68 6 -4.36 6 -3 6 C-3 5.01 -3 4.02 -3 3 C-2.01 3 -1.02 3 0 3 C0 2.01 0 1.02 0 0 Z " fill="#E9CBA0" transform="translate(311,111)"/>
<path d="M0 0 C1.485 0.99 1.485 0.99 3 2 C4.9896995 2.39013716 6.99019869 2.73202649 9 3 C9 3.33 9 3.66 9 4 C6.03 4.66 3.06 5.32 0 6 C0 4.02 0 2.04 0 0 Z " fill="#EAC695" transform="translate(392,304)"/>
<path d="M0 0 C0.99 0 1.98 0 3 0 C3.185625 0.9590625 3.185625 0.9590625 3.375 1.9375 C3.684375 2.9584375 3.684375 2.9584375 4 4 C4.66 4.33 5.32 4.66 6 5 C6 5.99 6 6.98 6 8 C5.34 8 4.68 8 4 8 C4 7.34 4 6.68 4 6 C3.34 6 2.68 6 2 6 C1.34 4.02 0.68 2.04 0 0 Z " fill="#E4CA9B" transform="translate(382,306)"/>
<path d="M0 0 C0.90105469 0.02707031 1.80210937 0.05414063 2.73046875 0.08203125 C3.76107422 0.13423828 3.76107422 0.13423828 4.8125 0.1875 C5.1425 0.8475 5.4725 1.5075 5.8125 2.1875 C5.22082031 2.17589844 4.62914062 2.16429687 4.01953125 2.15234375 C-0.18981785 2.10427614 -4.0797333 2.12743117 -8.1875 3.1875 C-5.67753317 0.01043235 -3.96125134 -0.15433447 0 0 Z " fill="#DDBE81" transform="translate(396.1875,182.8125)"/>
<path d="M0 0 C2.00720923 0.28674418 4.0085944 0.61866701 6 1 C6 1.66 6 2.32 6 3 C4.02 3.66 2.04 4.32 0 5 C-0.5625 3.0625 -0.5625 3.0625 -1 1 C-0.67 0.67 -0.34 0.34 0 0 Z " fill="#E1C48B" transform="translate(169,161)"/>
<path d="M0 0 C0.66 0.33 1.32 0.66 2 1 C0.86280581 4.41158256 -0.04342944 5.11854601 -3 7 C-3.66 7 -4.32 7 -5 7 C-3.70700306 4.11562221 -2.34058637 2.12780579 0 0 Z " fill="#E5C18E" transform="translate(240,43)"/>
<path d="M0 0 C-0.33 1.32 -0.66 2.64 -1 4 C-1.66 4 -2.32 4 -3 4 C-3.66 5.32 -4.32 6.64 -5 8 C-6 6 -6 6 -5.1875 3.4375 C-3.79322886 0.57557503 -3.17112511 0 0 0 Z " fill="#E5B66A" transform="translate(94,288)"/>
<path d="M0 0 C2.46800047 1.15173355 4.04783565 2.04783565 6 4 C5.625 6.125 5.625 6.125 5 8 C2.27573689 5.64722731 1.1858237 3.37503669 0 0 Z " fill="#E5CE9D" transform="translate(425,255)"/>
<path d="M0 0 C0.185625 0.9590625 0.185625 0.9590625 0.375 1.9375 C0.684375 2.9584375 0.684375 2.9584375 1 4 C1.66 4.33 2.32 4.66 3 5 C2.01 6.32 1.02 7.64 0 9 C-1.125 7.3125 -1.125 7.3125 -2 5 C-1.125 2.25 -1.125 2.25 0 0 Z " fill="#CAA767" transform="translate(109,198)"/>
<path d="M0 0 C0.66 0 1.32 0 2 0 C1.38461538 5.53846154 1.38461538 5.53846154 -0.5625 7.875 C-1.036875 8.24625 -1.51125 8.6175 -2 9 C-1.125 1.125 -1.125 1.125 0 0 Z " fill="#E7D3A2" transform="translate(316,103)"/>
<path d="M0 0 C1.45742463 -0.08096803 2.91612807 -0.13917774 4.375 -0.1875 C5.18710938 -0.22230469 5.99921875 -0.25710937 6.8359375 -0.29296875 C7.55007812 -0.19628906 8.26421875 -0.09960938 9 0 C9.66 0.99 10.32 1.98 11 3 C7.88531795 3 5.06512217 2.52172292 2 2 C1.34 2 0.68 2 0 2 C0 1.34 0 0.68 0 0 Z " fill="#E2CC95" transform="translate(195,94)"/>
<path d="M0 0 C3.0916909 2.52956528 3.90931332 5.22454612 5 9 C2.5 7.3125 2.5 7.3125 0 5 C-0.3125 2.25 -0.3125 2.25 0 0 Z " fill="#E2C496" transform="translate(285,402)"/>
<path d="M0 0 C0.66 0.33 1.32 0.66 2 1 C0.02 5.455 0.02 5.455 -2 10 C-3.19156292 5.23374833 -2.3415946 4.12120649 0 0 Z " fill="#E3C998" transform="translate(345,326)"/>
<path d="M0 0 C0.33 0 0.66 0 1 0 C1.125 7.75 1.125 7.75 0 10 C-0.66 10 -1.32 10 -2 10 C-1.46274105 6.62294375 -0.88935377 3.303314 0 0 Z " fill="#E4C79C" transform="translate(227,208)"/>
<path d="M0 0 C0.99 0 1.98 0 3 0 C3 2.64 3 5.28 3 8 C2.01 8 1.02 8 0 8 C0.185625 7.236875 0.37125 6.47375 0.5625 5.6875 C1.22819173 2.91032625 1.22819173 2.91032625 0 0 Z " fill="#E4C69B" transform="translate(255,437)"/>
<path d="M0 0 C0.33 0 0.66 0 1 0 C1 1.98 1 3.96 1 6 C-0.875 6.625 -0.875 6.625 -3 7 C-3.66 6.34 -4.32 5.68 -5 5 C-4.360625 4.731875 -3.72125 4.46375 -3.0625 4.1875 C-0.66868314 3.11332248 -0.66868314 3.11332248 0 0 Z " fill="#E3CB96" transform="translate(205,399)"/>
<path d="M0 0 C0.66 0 1.32 0 2 0 C2 1.32 2 2.64 2 4 C0.02 4.66 -1.96 5.32 -4 6 C-3.34 4.68 -2.68 3.36 -2 2 C-1.34 2 -0.68 2 0 2 C0 1.34 0 0.68 0 0 Z " fill="#E4C494" transform="translate(188,384)"/>
<path d="M0 0 C1.65 0 3.3 0 5 0 C5.33 0.66 5.66 1.32 6 2 C5.34 2 4.68 2 4 2 C3.67 2.99 3.34 3.98 3 5 C2.34 4.67 1.68 4.34 1 4 C0.375 1.9375 0.375 1.9375 0 0 Z " fill="#E1C286" transform="translate(402,285)"/>
<path d="M0 0 C0 0.99 0 1.98 0 3 C-2.31 3.33 -4.62 3.66 -7 4 C-7.33 3.01 -7.66 2.02 -8 1 C-7.05125 1.020625 -6.1025 1.04125 -5.125 1.0625 C-2.09333717 1.22551826 -2.09333717 1.22551826 0 0 Z " fill="#E5C492" transform="translate(402,204)"/>
<path d="M0 0 C0.99 0.33 1.98 0.66 3 1 C3 2.65 3 4.3 3 6 C1.35 5.01 -0.3 4.02 -2 3 C-1.34 2.01 -0.68 1.02 0 0 Z " fill="#E6BB79" transform="translate(111,206)"/>
<path d="M0 0 C0.928125 0.20625 1.85625 0.4125 2.8125 0.625 C2.8125 0.955 2.8125 1.285 2.8125 1.625 C0.5025 2.285 -1.8075 2.945 -4.1875 3.625 C-4.8475 2.965 -5.5075 2.305 -6.1875 1.625 C-3.1875 -0.375 -3.1875 -0.375 0 0 Z " fill="#E6C793" transform="translate(297.1875,85.375)"/>
</svg>
