<svg xmlns="http://www.w3.org/2000/svg" version="1.1" transform="rotate(0) scale(1, 1)" viewBox="97.62 89.57 305.39 320.55" height="100px" width="100px">
<path d="M0 0 C19.97535071 -0.1635386 39.95056553 -0.28696921 59.92644691 -0.3626852 C69.20168057 -0.39877639 78.47649821 -0.44797894 87.75146484 -0.52807617 C95.83577736 -0.5978578 103.91978861 -0.64301013 112.00439394 -0.65861946 C116.28512453 -0.66774382 120.56499327 -0.68917765 124.84544754 -0.7401104 C128.87579604 -0.78767794 132.90492907 -0.80227074 136.93553162 -0.79175377 C138.41340622 -0.79367724 139.89132207 -0.8075722 141.3689537 -0.83443832 C152.55327187 -1.02779013 152.55327187 -1.02779013 156.1587944 1.53365898 C157.66656981 3.28508961 158.81781867 5.02174318 160 7 C179.30100928 24.71334561 201.17262546 30.02353109 226.65625 30.31640625 C228.16939822 30.33701023 229.68254114 30.35800752 231.19567871 30.37937927 C235.15425279 30.4342447 239.11287571 30.48380874 243.0715332 30.53222656 C247.12064903 30.58270312 251.16969502 30.63825186 255.21875 30.69335938 C263.14577407 30.80050552 271.07285705 30.90204483 279 31 C281.44932285 36.61222796 283.49331561 42.21419125 285.3125 48.0625 C285.60189453 48.93455078 285.89128906 49.80660156 286.18945312 50.70507812 C287.7601284 55.77809044 288.56097582 59.04052719 286 64 C283.5819915 66.4180085 282.42675154 66.44983063 279.09765625 66.96484375 C277.63875977 67.20557617 277.63875977 67.20557617 276.15039062 67.45117188 C274.09620639 67.77469615 272.041516 68.09502325 269.98632812 68.41210938 C269.01244141 68.57388672 268.03855469 68.73566406 267.03515625 68.90234375 C266.1419165 69.04148193 265.24867676 69.18062012 264.32836914 69.32397461 C261.63699403 70.1053962 260.7561438 70.84881055 259 73 C258.3739837 74.99716561 258.3739837 74.99716561 258.17211914 77.23681641 C258.06513199 78.08845367 257.95814484 78.94009094 257.84791565 79.8175354 C257.74470505 80.73626434 257.64149445 81.65499329 257.53515625 82.6015625 C257.35598915 84.02811661 257.35598915 84.02811661 257.17320251 85.48348999 C256.662684 89.54903597 256.1815823 93.61789936 255.70043945 97.68701172 C255.34444795 100.66008017 254.97151233 103.63069576 254.59765625 106.6015625 C254.49646988 107.50814606 254.39528351 108.41472961 254.29103088 109.3487854 C253.38992806 116.47117664 251.7682849 123.30092222 246.5 128.4375 C245.675 128.953125 244.85 129.46875 244 130 C243.45384033 130.35513672 242.90768066 130.71027344 242.3449707 131.07617188 C238.94258354 132.41658135 235.58611625 132.31820483 231.98046875 132.34375 C231.20367264 132.3583728 230.42687653 132.37299561 229.62654114 132.38806152 C227.14691291 132.4344629 224.66736198 132.46869773 222.1875 132.5 C218.93070374 132.54137433 215.67444852 132.59517405 212.41796875 132.65625 C211.67918991 132.6615271 210.94041107 132.6668042 210.179245 132.67224121 C204.28560468 132.78401592 198.9630491 133.29539967 194.359375 137.29296875 C190.66679847 142.26525572 189.12968221 148.49307982 187.25 154.3125 C186.46573811 156.68432115 185.67939651 159.055456 184.890625 161.42578125 C184.55063477 162.47161377 184.21064453 163.51744629 183.86035156 164.5949707 C183 167 183 167 182 168 C179.98771955 168.09674566 177.97198631 168.12187008 175.9573822 168.12025452 C174.64339951 168.12162918 173.32941681 168.12300385 171.97561646 168.12442017 C170.50579812 168.12088054 169.03598 168.11724573 167.56616211 168.11352539 C166.02908836 168.11324353 164.49201447 168.11340123 162.9549408 168.1139679 C158.7691714 168.11425591 154.58343041 168.10835852 150.39766765 168.10139394 C146.02809844 168.09516109 141.65852865 168.09455666 137.28895569 168.09336853 C129.00872953 168.09025501 120.7285165 168.08204135 112.44829613 168.07201904 C103.02402841 168.06085854 93.59976008 168.05534761 84.1754874 168.05032361 C64.78365081 168.03985875 45.39182646 168.02225891 26 168 C26.55319812 163.9462449 27.11031362 160.17726885 28.48828125 156.3203125 C28.7807373 155.48193848 29.07319336 154.64356445 29.37451172 153.77978516 C29.68404785 152.90370605 29.99358398 152.02762695 30.3125 151.125 C32.63959801 144.35103575 34.76028653 137.605639 36.375 130.625 C36.53009033 129.95484863 36.68518066 129.28469727 36.8449707 128.59423828 C41.03216351 109.73159082 41.96398609 88.14349192 32.3125 70.9375 C29.96236356 67.25876884 27.35520958 63.82815021 24.6875 60.375 C11.15614318 42.58377159 3.05610705 22.10028842 0 0 Z " fill="#e5b86c" transform="translate(110,242)"/>
<path d="M0 0 C0.90602966 -0.0065712 1.81205933 -0.0131424 2.74554443 -0.01991272 C5.74735598 -0.03964145 8.7491175 -0.0513076 11.75097656 -0.0612793 C12.77654915 -0.06535482 13.80212173 -0.06943035 14.85877228 -0.07362938 C20.28735655 -0.09448863 25.71591556 -0.10879081 31.14453125 -0.11816406 C36.74782814 -0.12922614 42.35072766 -0.16362436 47.95388412 -0.20333576 C52.26565279 -0.22949794 56.57732673 -0.23785558 60.88916779 -0.24144554 C62.95439588 -0.24631277 65.01961971 -0.2579306 67.0847702 -0.27648354 C69.97870753 -0.30086537 72.87161612 -0.29991154 75.765625 -0.29296875 C76.61471436 -0.30577881 77.46380371 -0.31858887 78.33862305 -0.33178711 C85.0148979 -0.27356329 89.17031204 1.51347312 94.21582031 6.03637695 C98.02824582 10.50420733 100.92015502 14.71594588 103.14160156 20.17700195 C102.64660156 21.66200195 102.64660156 21.66200195 102.14160156 23.17700195 C101.02073654 23.18508881 99.89987152 23.19317566 98.74504089 23.20150757 C88.19439727 23.27891099 77.64388353 23.36663551 67.09340954 23.46452904 C61.66898862 23.51452656 56.2445875 23.56085629 50.82006836 23.59887695 C45.58748205 23.63568608 40.35506008 23.6820341 35.12261391 23.73506546 C33.12391345 23.75363268 31.12517774 23.76873199 29.12642479 23.78034592 C26.33207661 23.79716854 23.5381067 23.82619383 20.74389648 23.8581543 C19.91311584 23.86031448 19.08233521 23.86247467 18.22637939 23.86470032 C14.35421724 23.92147328 12.43718215 23.97994823 9.14160156 26.17700195 C8.7249349 29.17700195 8.7249349 29.17700195 9.14160156 32.17700195 C12.26282328 35.29822367 16.08029042 34.48578447 20.27294922 34.49584961 C21.69253181 34.51091805 21.69253181 34.51091805 23.14079285 34.52629089 C26.27907688 34.55726179 29.41727509 34.57419658 32.55566406 34.59106445 C34.72757717 34.60976492 36.89948292 34.62933747 39.07138062 34.64974976 C44.79569171 34.70119544 50.52002639 34.74075449 56.2444458 34.77789307 C62.08262018 34.81785492 67.92069539 34.86898283 73.75878906 34.91918945 C85.21965702 35.01609592 96.68058082 35.10045343 108.14160156 35.17700195 C108.62787829 36.93456431 109.11230364 38.69263898 109.59594727 40.45092773 C109.86591019 41.42990021 110.13587311 42.40887268 110.41401672 43.41751099 C114.86793498 60.309764 116.646667 84.72819455 108.23925781 100.5559082 C106.17062857 103.61100122 104.68714572 104.9951539 101.14160156 106.17700195 C99.02859034 106.28144289 96.91242888 106.32564025 94.796875 106.33813477 C92.82772125 106.35254608 92.82772125 106.35254608 90.81878662 106.36724854 C89.37951838 106.37210143 87.9402481 106.37637905 86.50097656 106.38012695 C85.40786541 106.38436802 85.40786541 106.38436802 84.2926712 106.38869476 C80.42395159 106.4036976 76.55526926 106.41291565 72.68652344 106.41723633 C68.72967263 106.42267295 64.77317439 106.44659404 60.81643295 106.47520828 C57.74305313 106.49405356 54.66975377 106.49905207 51.59632111 106.5005722 C50.14058794 106.50355845 48.68485476 106.51144661 47.22917938 106.52475739 C25.63246584 106.70787825 8.06722432 101.67806304 -7.78027344 86.3137207 C-22.15594988 70.95210185 -25.00590433 52.36834117 -25.10839844 32.17700195 C-25.12902344 31.1612207 -25.14964844 30.14543945 -25.17089844 29.09887695 C-25.21113652 21.25245136 -24.29552015 14.04278122 -20.04589844 7.30200195 C-13.73030548 1.16685451 -8.51229138 0.02670217 0 0 Z " fill="#e5b86c" transform="translate(288.8583984375,147.822998046875)"/>
<path d="M0 0 C1.2578125 1.47265625 1.2578125 1.47265625 1.2578125 4.47265625 C0.26754814 4.47812469 0.26754814 4.47812469 -0.74272156 4.48370361 C-7.67103125 4.52581218 -14.59869585 4.59535309 -21.52661133 4.68017578 C-24.10532144 4.70824206 -26.68411529 4.7295272 -29.26293945 4.74365234 C-32.9895267 4.76528082 -36.71512215 4.81203425 -40.44140625 4.86328125 C-41.5773674 4.86450989 -42.71332855 4.86573853 -43.88371277 4.86700439 C-54.7118689 5.06108206 -64.89456083 7.06914196 -73.25390625 14.30078125 C-74.7421875 15.47265625 -74.7421875 15.47265625 -76.7421875 15.47265625 C-77.01289063 16.03597656 -77.28359375 16.59929687 -77.5625 17.1796875 C-79.2280221 20.41697715 -81.18027068 23.46131809 -83.109375 26.546875 C-85.2518365 30.38587897 -86.95665144 34.45520012 -88.7421875 38.47265625 C-128.3421875 38.47265625 -167.9421875 38.47265625 -208.7421875 38.47265625 C-209.0721875 37.81265625 -209.4021875 37.15265625 -209.7421875 36.47265625 C-202.81521989 21.34335876 -190.52232819 6.91548933 -177.7421875 -3.52734375 C-176.82953125 -4.28917969 -175.916875 -5.05101563 -174.9765625 -5.8359375 C-122.39651008 -48.17741187 -50.17590383 -42.72299762 0 0 Z " fill="#e5b86c" transform="translate(333.7421875,124.52734375)"/>
<path d="M0 0 C0.85027645 -0.00114335 1.7005529 -0.0022867 2.57659531 -0.0034647 C10.05277843 -0.00104525 17.51059588 0.21787097 24.98071289 0.52514648 C26.22143555 0.5728418 27.4621582 0.62053711 28.74047852 0.66967773 C31.71655053 0.78458399 34.69242936 0.90303641 37.66821289 1.02514648 C39.00724324 3.70320718 38.82696717 6.2005314 38.90869141 9.14599609 C39.16688613 18.12329525 40.36163031 26.17329353 42.82836914 34.80249023 C43.66821289 38.02514648 43.66821289 38.02514648 43.66821289 42.02514648 C25.12697854 42.09524469 6.5857711 42.14813864 -11.95556831 42.180583 C-20.56474361 42.19604826 -29.17383655 42.21713125 -37.78295898 42.25146484 C-45.2871544 42.28137766 -52.79129017 42.30072397 -60.29554355 42.30741197 C-64.26856743 42.31132105 -68.24142065 42.32050075 -72.2143898 42.34233665 C-75.95556817 42.3627316 -79.69650592 42.36897425 -83.4377346 42.36446953 C-85.46195421 42.36568557 -87.48614774 42.38181195 -89.51029968 42.39840698 C-90.7217717 42.39428299 -91.93324371 42.390159 -93.181427 42.38591003 C-94.75492763 42.3900581 -94.75492763 42.3900581 -96.36021614 42.39428997 C-101.28026375 41.78309692 -104.46264868 39.98342732 -107.76928711 36.33764648 C-111.54337994 28.99304259 -108.99110414 16.46415647 -107.07006836 8.79467773 C-105.83464539 5.83358459 -103.76864557 4.0246201 -101.33178711 2.02514648 C-101.00178711 1.69514648 -100.67178711 1.36514648 -100.33178711 1.02514648 C-97.67398951 0.89990925 -95.04092061 0.83906142 -92.3815918 0.81982422 C-91.54711014 0.80992462 -90.71262848 0.80002502 -89.8528595 0.78982544 C-87.06982313 0.75803797 -84.28677052 0.73334765 -81.50366211 0.70874023 C-79.5599933 0.68814767 -77.61632873 0.66715062 -75.67266846 0.64576721 C-71.57680633 0.60169248 -67.48092944 0.56081209 -63.38500977 0.52246094 C-58.19569603 0.47386979 -53.00645234 0.42024618 -47.81721115 0.36448574 C-42.81687837 0.31091001 -37.81652285 0.25963063 -32.81616211 0.20874023 C-31.88814537 0.19918242 -30.96012863 0.1896246 -30.00399017 0.17977715 C-20.00266453 0.07858817 -10.00187219 0.00765442 0 0 Z " fill="#e5b86c" transform="translate(207.331787109375,180.974853515625)"/>
<path d="M0 0 C0.99 0 1.98 0 3 0 C2.125 6.875 2.125 6.875 1 8 C-1.01228045 8.09674566 -3.02801369 8.12187008 -5.0426178 8.12025452 C-6.35660049 8.12162918 -7.67058319 8.12300385 -9.02438354 8.12442017 C-10.49420188 8.12088054 -11.96402 8.11724573 -13.43383789 8.11352539 C-14.97091164 8.11324353 -16.50798553 8.11340123 -18.0450592 8.1139679 C-22.2308286 8.11425591 -26.41656959 8.10835852 -30.60233235 8.10139394 C-34.97190156 8.09516109 -39.34147135 8.09455666 -43.71104431 8.09336853 C-51.99127047 8.09025501 -60.2714835 8.08204135 -68.55170387 8.07201904 C-77.97597159 8.06085854 -87.40023992 8.05534761 -96.8245126 8.05032361 C-116.21634919 8.03985875 -135.60817354 8.02225891 -155 8 C-155 6.68 -155 5.36 -155 4 C-154.1407662 4.16251975 -153.2815324 4.3250395 -152.39626122 4.49248409 C-149.08695656 4.98700576 -146.00293222 5.12309247 -142.65982056 5.12025452 C-140.77950638 5.12231651 -140.77950638 5.12231651 -138.86120605 5.12442017 C-137.48510718 5.12088174 -136.10900855 5.11724694 -134.73291016 5.11352539 C-133.27391563 5.11324311 -131.81492096 5.11340205 -130.35592651 5.1139679 C-126.40598205 5.11425427 -122.45606808 5.10838331 -118.5061307 5.10139394 C-114.37415504 5.09513386 -110.24217864 5.0945545 -106.11019897 5.09336853 C-98.29054649 5.09026304 -90.47090801 5.08206019 -82.65126169 5.07201904 C-73.74681989 5.06083362 -64.84237742 5.05534133 -55.93793035 5.05032361 C-37.62527896 5.03987693 -19.31264061 5.02229263 -1 5 C-0.67 3.35 -0.34 1.7 0 0 Z " fill="#e5b86c" transform="translate(291,402)"/>
<path d="M0 0 C49.5 0.495 49.5 0.495 100 1 C101.4783226 3.95664519 101.06032783 6.74229737 101 10 C99.66666667 8 98.33333333 6 97 4 C93.9969164 3.69997101 91.19754217 3.59392008 88.19165039 3.61523438 C87.27934158 3.6098616 86.36703278 3.60448883 85.42707825 3.59895325 C83.44201339 3.58915352 81.45690559 3.58623769 79.47181892 3.58930969 C76.33276402 3.59377117 73.19427786 3.57983501 70.05528259 3.56091309 C63.39103115 3.52405281 56.72683841 3.51040761 50.0625 3.5 C42.34548801 3.48794152 34.62875138 3.46648788 26.91186333 3.41999817 C23.81459265 3.40637943 20.71766571 3.41060792 17.62037659 3.41540527 C15.72616125 3.40606766 13.83194977 3.3958996 11.93774414 3.38476562 C11.07270264 3.39091385 10.20766113 3.39706207 9.31640625 3.40339661 C3.3415282 3.3415282 3.3415282 3.3415282 0 0 Z " fill="#e5b86c" transform="translate(297,182)"/>
<path d="M0 0 C24.09 0 48.18 0 73 0 C73 0.66 73 1.32 73 2 C72.01 2 71.02 2 70 2 C69.67 2.66 69.34 3.32 69 4 C69 3.34 69 2.68 69 2 C61.0810395 2.10743284 53.16217718 2.22005214 45.24338722 2.33933926 C41.56658571 2.39456189 37.88977624 2.44798081 34.21289062 2.49731445 C30.66614134 2.54496779 27.11948974 2.59731091 23.5728569 2.65294075 C22.2180664 2.67335992 20.86324912 2.69207374 19.50841141 2.70907402 C17.61443211 2.73312739 15.72053957 2.76374383 13.82666016 2.79467773 C12.20783432 2.81799416 12.20783432 2.81799416 10.55630493 2.84178162 C8.00983443 2.83212193 8.00983443 2.83212193 6 4 C5.67 3.34 5.34 2.68 5 2 C2.47266765 1.34444881 2.47266765 1.34444881 0 1 C0 0.67 0 0.34 0 0 Z " fill="#e5b86c" transform="translate(316,273)"/>
<path d="M0 0 C1.27327904 -0.00021904 1.27327904 -0.00021904 2.57228088 -0.0004425 C5.38594086 0.00025573 8.19953514 0.00804399 11.01318359 0.01586914 C12.96088627 0.01773364 14.90858941 0.01915739 16.85629272 0.02015686 C21.98882334 0.02397956 27.12132576 0.03380775 32.25384521 0.04486084 C37.48872496 0.05508027 42.72360925 0.05965562 47.95849609 0.06469727 C58.23455016 0.07543022 68.51058329 0.09250369 78.78662109 0.11352539 C78.78662109 0.44352539 78.78662109 0.77352539 78.78662109 1.11352539 C77.74314514 1.12383286 76.69966919 1.13414032 75.62457275 1.14476013 C65.79537602 1.24247597 55.96624285 1.34520841 46.13714981 1.45286465 C41.08380554 1.50805142 36.03045544 1.56146469 30.97705078 1.61083984 C26.10112224 1.65854595 21.22526363 1.7108911 16.34941864 1.76646614 C14.4882964 1.78686137 12.627155 1.80557911 10.76599884 1.82259941 C8.16114881 1.84670608 5.55643042 1.87675212 2.95166016 1.90820312 C1.79503876 1.91683632 1.79503876 1.91683632 0.61505127 1.92564392 C-4.39913852 1.9185716 -4.39913852 1.9185716 -9.21337891 3.11352539 C-9.54337891 3.77352539 -9.87337891 4.43352539 -10.21337891 5.11352539 C-10.21337891 3.79352539 -10.21337891 2.47352539 -10.21337891 1.11352539 C-7.0064982 -0.48991496 -3.52155044 -0.01570206 0 0 Z " fill="#e5b86c" transform="translate(114.21337890625,182.886474609375)"/>
<path d="M0 0 C3.4374823 -0.02901394 6.87493312 -0.04680335 10.3125 -0.0625 C11.28896484 -0.07087891 12.26542969 -0.07925781 13.27148438 -0.08789062 C14.20927734 -0.09111328 15.14707031 -0.09433594 16.11328125 -0.09765625 C16.97735596 -0.10289307 17.84143066 -0.10812988 18.73168945 -0.11352539 C21 0 21 0 24 1 C25.62567079 1.14715199 27.25586857 1.24721867 28.88671875 1.31640625 C29.82451172 1.35830078 30.76230469 1.40019531 31.72851562 1.44335938 C32.70498047 1.48267578 33.68144531 1.52199219 34.6875 1.5625 C36.16959961 1.62727539 36.16959961 1.62727539 37.68164062 1.69335938 C40.12095546 1.79941654 42.56037113 1.90147714 45 2 C45 2.33 45 2.66 45 3 C29.49 3 13.98 3 -2 3 C-1.34 2.67 -0.68 2.34 0 2 C0 1.34 0 0.68 0 0 Z " fill="#e5b86c" transform="translate(196,181)"/>
<path d="M0 0 C0.99 0.33 1.98 0.66 3 1 C4.51341166 9.79670529 5.21322686 18.3865855 5.25 27.3125 C5.25902344 28.23764404 5.26804687 29.16278809 5.27734375 30.1159668 C5.27347656 30.98133057 5.26960938 31.84669434 5.265625 32.73828125 C5.26336914 33.51212158 5.26111328 34.28596191 5.25878906 35.08325195 C5 37 5 37 3 39 C2.92483154 37.53977417 2.92483154 37.53977417 2.84814453 36.05004883 C2.65923495 32.42471247 2.45898406 28.80007493 2.25537109 25.17553711 C2.16896011 23.60929762 2.08559042 22.04288717 2.00537109 20.47631836 C1.88926241 18.21936616 1.76208549 15.96326309 1.6328125 13.70703125 C1.59938751 13.01100296 1.56596252 12.31497467 1.53152466 11.59785461 C1.29569697 7.69419495 0.68342456 4.53758791 -1 1 C-0.67 0.67 -0.34 0.34 0 0 Z " fill="#e5b86c" transform="translate(397,193)"/>
<path d="M0 0 C2.27467773 2.27467773 2.75132436 3.76650412 3.6875 6.8125 C3.95949219 7.66457031 4.23148438 8.51664063 4.51171875 9.39453125 C5 12 5 12 4 17 C-9.53 17 -23.06 17 -37 17 C-37 16.67 -37 16.34 -37 16 C-23.8 16 -10.6 16 3 16 C2.01 12.37 1.02 8.74 0 5 C0 3.35 0 1.7 0 0 Z " fill="#e5b86c" transform="translate(245,204)"/>
<path d="M0 0 C16.335 0.495 16.335 0.495 33 1 C33 1.66 33 2.32 33 3 C21.78 3.33 10.56 3.66 -1 4 C-1.33 3.34 -1.66 2.68 -2 2 C-1.34 2 -0.68 2 0 2 C0 1.34 0 0.68 0 0 Z " fill="#e5b86c" transform="translate(314,371)"/>
<path d="M0 0 C0.66 0 1.32 0 2 0 C2 11 2 11 1.01953125 12.8828125 C-0.82661766 16.71657768 -0.45114697 20.84160184 0 25 C1.32985569 28.5047765 1.32985569 28.5047765 3 31 C2.01 31 1.02 31 0 31 C-2.86498209 26.23983596 -3.33236777 22.59876304 -2.8125 17.1875 C-2.75715088 16.48625 -2.70180176 15.785 -2.64477539 15.0625 C-2.19532376 9.89589529 -1.33987411 5.00219668 0 0 Z " fill="#e5b86c" transform="translate(101,188)"/>
<path d="M0 0 C2.475 0.495 2.475 0.495 5 1 C5 1.66 5 2.32 5 3 C3.86820312 3.25394531 2.73640625 3.50789063 1.5703125 3.76953125 C0.08839517 4.11656252 -1.39336786 4.46425313 -2.875 4.8125 C-3.99455078 5.0609668 -3.99455078 5.0609668 -5.13671875 5.31445312 C-9.88851128 6.36849202 -9.88851128 6.36849202 -13 10 C-13.66 10 -14.32 10 -15 10 C-13.81699621 6.6329892 -12.86100995 4.19684693 -10 2 C-7.51953125 1.70703125 -7.51953125 1.70703125 -4.8125 1.8125 C-3.91144531 1.83957031 -3.01039063 1.86664063 -2.08203125 1.89453125 C-1.05142578 1.94673828 -1.05142578 1.94673828 0 2 C0 1.34 0 0.68 0 0 Z " fill="#e5b86c" transform="translate(381,306)"/>
<path d="M0 0 C0.33 0 0.66 0 1 0 C1.3037456 9.06174365 0.90203293 18.11210537 -1 27 C-1.66 27.33 -2.32 27.66 -3 28 C-4.16491166 23.02971023 -3.67808714 18.91440665 -2.625 14 C-2.34588402 12.62509536 -2.06723091 11.25009666 -1.7890625 9.875 C-1.52867187 8.59625 -1.26828125 7.3175 -1 6 C-0.65654449 4.00171338 -0.3191193 2.00231715 0 0 Z " fill="#e5b86c" transform="translate(365,324)"/>
<path d="M0 0 C0 0.66 0 1.32 0 2 C-5.61 2 -11.22 2 -17 2 C-17 1.34 -17 0.68 -17 0 C-17.99 -0.33 -18.98 -0.66 -20 -1 C-13.13638499 -2.59618954 -6.85445096 -1.24720085 0 0 Z " fill="#e5b86c" transform="translate(271,92)"/>
<path d="M0 0 C0.66 0 1.32 0 2 0 C4.43326039 8.03501094 4.43326039 8.03501094 2.625 12.0625 C2.08875 12.701875 1.5525 13.34125 1 14 C-0.32 13.34 -1.64 12.68 -3 12 C-2.34 12 -1.68 12 -1 12 C-0.67 11.01 -0.34 10.02 0 9 C-0.66 8.67 -1.32 8.34 -2 8 C-1.649375 7.401875 -1.29875 6.80375 -0.9375 6.1875 C0.33304698 3.89186786 0.33304698 3.89186786 -1 1 C-0.67 0.67 -0.34 0.34 0 0 Z " fill="#e5b86c" transform="translate(394,293)"/>
<path d="M0 0 C3.07690011 -0.36198825 5.9359174 -0.5192489 9 0 C11.24197874 1.77756885 12.37301961 3.58418064 14 6 C14.66 6.33 15.32 6.66 16 7 C16 8.65 16 10.3 16 12 C15.67 11.34 15.34 10.68 15 10 C14.0409375 9.566875 14.0409375 9.566875 13.0625 9.125 C10.55571133 7.75766072 10.14954544 6.54542204 9 4 C8.34 3.67 7.68 3.34 7 3 C7 2.34 7 1.68 7 1 C4.69 1 2.38 1 0 1 C0 0.67 0 0.34 0 0 Z " fill="#e5b86c" transform="translate(256,243)"/>
<path d="M0 0 C3.33333333 1.66666667 6.66666667 3.33333333 10 5 C10 5.66 10 6.32 10 7 C12.97 7.495 12.97 7.495 16 8 C16 8.33 16 8.66 16 9 C9.21017493 8.62964591 4.73115109 6.59523599 -1 3 C-0.67 2.01 -0.34 1.02 0 0 Z " fill="#e5b86c" transform="translate(294,241)"/>
<path d="M0 0 C0.33 0 0.66 0 1 0 C1.3690205 9.41002278 1.3690205 9.41002278 -1 14 C-1.66 14 -2.32 14 -3 14 C-3 13.34 -3 12.68 -3 12 C-3.99 11.67 -4.98 11.34 -6 11 C-5 8 -5 8 -3 6.0625 C-0.94497246 3.94325285 -0.40893155 2.86252086 0 0 Z " fill="#e5b86c" transform="translate(399,233)"/>
<path d="M0 0 C0.99 0.33 1.98 0.66 3 1 C2.67 6.94 2.34 12.88 2 19 C1.67 19 1.34 19 1 19 C0.65820312 15.97265625 0.65820312 15.97265625 0.31640625 12.9453125 C0.08707039 10.92595684 0.08707039 10.92595684 -1 9 C-0.91348369 7.45386986 -0.75997364 5.91090613 -0.5625 4.375 C-0.46066406 3.55773437 -0.35882813 2.74046875 -0.25390625 1.8984375 C-0.17011719 1.27195313 -0.08632812 0.64546875 0 0 Z " fill="#e5b86c" transform="translate(243,183)"/>
<path d="M0 0 C0.33 0 0.66 0 1 0 C1.33 5.94 1.66 11.88 2 18 C1.01 18 0.02 18 -1 18 C-1.11269443 11.8894576 -0.89604368 6.04829486 0 0 Z " fill="#e5b86c" transform="translate(266,184)"/>
<path d="M0 0 C3.27742098 3.10026309 5.93104837 5.97098894 8 10 C8 10.66 8 11.32 8 12 C4.7460332 10.9153444 4.22215123 10.36559948 2.3125 7.6875 C1.65701172 6.79611328 1.65701172 6.79611328 0.98828125 5.88671875 C0 4 0 4 0 0 Z " fill="#e5b86c" transform="translate(138,303)"/>
<path d="M0 0 C0.33 0.66 0.66 1.32 1 2 C-0.28965176 3.37562854 -1.62689293 4.70766393 -3 6 C-3.66 6 -4.32 6 -5 6 C-5 6.66 -5 7.32 -5 8 C-5.66 8 -6.32 8 -7 8 C-6.875 5.6875 -6.875 5.6875 -6 3 C-2.9375 1.1875 -2.9375 1.1875 0 0 Z " fill="#e5b86c" transform="translate(276,151)"/>
<path d="M0 0 C2 4 2 4 1.125 7.75 C0.75375 8.8225 0.3825 9.895 0 11 C-0.99 10.67 -1.98 10.34 -3 10 C-2.01 6.7 -1.02 3.4 0 0 Z " fill="#e5b86c" transform="translate(361,354)"/>
<path d="M0 0 C0.33 0 0.66 0 1 0 C0.125 7.75 0.125 7.75 -1 10 C-2.32 9.34 -3.64 8.68 -5 8 C-4.54625 7.608125 -4.0925 7.21625 -3.625 6.8125 C-1.72357081 4.69167513 -0.93795972 2.66957765 0 0 Z " fill="#e5b86c" transform="translate(247,152)"/>
<path d="M0 0 C3.375 0.3125 3.375 0.3125 7 1 C7.66 1.99 8.32 2.98 9 4 C7.68 3.67 6.36 3.34 5 3 C4.67 3.66 4.34 4.32 4 5 C2.68 3.35 1.36 1.7 0 0 Z " fill="#e5b86c" transform="translate(288,99)"/>
<path d="M0 0 C0.99 0 1.98 0 3 0 C5.1875 2.5 5.1875 2.5 7 5 C5.125 5.625 5.125 5.625 3 6 C0.8614515 3.8614515 0.57344937 2.86724686 0 0 Z " fill="#e5b86c" transform="translate(327,121)"/>
<path d="M0 0 C0 3.13751221 -0.35179805 4.39757586 -2 7 C-2.99 7.33 -3.98 7.66 -5 8 C-5.33 7.01 -5.66 6.02 -6 5 C-4.02 3.35 -2.04 1.7 0 0 Z " fill="#e5b86c" transform="translate(144,135)"/>
<path d="M0 0 C0 0.99 0 1.98 0 3 C-1.98 3 -3.96 3 -6 3 C-6 2.34 -6 1.68 -6 1 C-6.99 0.67 -7.98 0.34 -9 0 C-2.25 -1.125 -2.25 -1.125 0 0 Z " fill="#e5b86c" transform="translate(260,91)"/>
<path d="M0 0 C0.66 0 1.32 0 2 0 C1.6875 3.375 1.6875 3.375 1 7 C0.01 7.66 -0.98 8.32 -2 9 C-2 6.69 -2 4.38 -2 2 C-1.34 1.67 -0.68 1.34 0 1 C0 0.67 0 0.34 0 0 Z " fill="#e5b86c" transform="translate(299,381)"/>
<path d="M0 0 C0.66 0.33 1.32 0.66 2 1 C2 1.66 2 2.32 2 3 C-0.35438733 4.42944945 -1.48032433 5.08661261 -4.25 4.625 C-4.8275 4.41875 -5.405 4.2125 -6 4 C-4.68 3.67 -3.36 3.34 -2 3 C-2 2.34 -2 1.68 -2 1 C-1.34 0.67 -0.68 0.34 0 0 Z " fill="#e5b86c" transform="translate(354,368)"/>
<path d="M0 0 C1.65 0.33 3.3 0.66 5 1 C5 1.66 5 2.32 5 3 C2.36 3 -0.28 3 -3 3 C-2.01 2.67 -1.02 2.34 0 2 C0 1.34 0 0.68 0 0 Z " fill="#e5b86c" transform="translate(381,306)"/>
<path d="M0 0 C0.86625 0.3403125 0.86625 0.3403125 1.75 0.6875 C0.5625 2.25 0.5625 2.25 -1.25 3.6875 C-3.9375 3.375 -3.9375 3.375 -6.25 2.6875 C-2.80384615 -0.38942308 -2.80384615 -0.38942308 0 0 Z " fill="#e5b86c" transform="translate(191.25,100.3125)"/>
</svg>