<?xml version="1.0" encoding="UTF-8"?>
<svg version="1.1" xmlns="http://www.w3.org/2000/svg" width="512" height="512">
<path d="M0 0 C2.21035217 -0.00542629 4.42070072 -0.01255179 6.63104248 -0.02124023 C12.6103687 -0.039416 18.58941765 -0.03242968 24.56874847 -0.01972389 C30.83897119 -0.00956647 37.10917084 -0.01899718 43.37939453 -0.02526855 C54.58077652 -0.03300195 65.78205716 -0.02060487 76.98341489 -0.00023121 C87.12116691 0.01763764 97.25873566 0.01453286 107.39648438 -0.00390625 C119.19455925 -0.02535548 130.99254496 -0.03325746 142.79063988 -0.0214572 C149.02667004 -0.0152349 155.26257422 -0.0143519 161.49859619 -0.02760315 C167.36252601 -0.03919429 173.2261112 -0.03107601 179.09000397 -0.00802612 C181.23653848 -0.0027565 183.38310222 -0.00422271 185.52962494 -0.01307678 C210.56335845 -0.10678304 210.56335845 -0.10678304 220.6171875 8.45507812 C221.79087891 9.42767578 221.79087891 9.42767578 222.98828125 10.41992188 C225.31247795 12.6446877 227.29431335 14.91069405 229.1796875 17.51757812 C229.1796875 18.17757813 229.1796875 18.83757813 229.1796875 19.51757812 C230.22125 18.8653125 231.2628125 18.21304687 232.3359375 17.54101562 C241.94933197 11.63247723 251.36731335 6.79584277 262.1796875 3.51757812 C263.82130859 3.00904297 263.82130859 3.00904297 265.49609375 2.49023438 C283.73599947 -2.09616139 305.35930001 -1.51654043 323.1796875 4.51757812 C323.80939453 4.72656738 324.43910156 4.93555664 325.08789062 5.15087891 C340.75069856 10.46874477 353.47838214 18.9549549 365.1796875 30.51757812 C365.89511719 31.16082031 366.61054688 31.8040625 367.34765625 32.46679688 C383.09385219 46.95581151 394.16720086 71.41152387 395.35668945 92.68286133 C395.90017905 122.70903743 395.90017905 122.70903743 391.1796875 136.51757812 C390.97069824 137.14583496 390.76170898 137.7740918 390.54638672 138.42138672 C385.22905371 154.08660823 376.74392541 166.81463871 365.1796875 178.51757812 C364.53644531 179.23300781 363.89320313 179.9484375 363.23046875 180.68554688 C348.51227484 196.6808075 323.86244513 207.60768818 302.29223633 208.65820312 C277.20621769 209.40320331 257.05019617 206.01501165 235.1796875 193.51757812 C235.1796875 211.66757813 235.1796875 229.81757813 235.1796875 248.51757812 C245.58318615 249.64552022 255.80936852 250.57492279 266.2421875 250.95507812 C267.01638283 250.98343372 267.79057816 251.01178932 268.58823395 251.04100418 C284.90119639 251.53964224 300.86357833 251.54067122 313.48175049 240.02816772 C318.68517463 234.96641582 323.43651418 229.54966103 328.0546875 223.95507812 C348.82765119 198.79013534 348.82765119 198.79013534 363.27734375 197.40039062 C374.3419696 196.82129459 385.37372959 198.19946834 396.1796875 200.51757812 C396.47915283 199.73656738 396.77861816 198.95555664 397.0871582 198.15087891 C399.33551847 192.73170264 403.37884266 188.69364006 408.2421875 185.51757812 C414.98250148 183.18439252 424.06912206 183.14001031 430.6171875 186.01757812 C436.44204529 189.53754595 441.16185332 195.00720747 443.1796875 201.51757812 C443.98482855 209.35366021 444.30429142 217.13680389 439.1796875 223.51757812 C434.37520111 228.56279034 430.01791695 232.12320807 422.91015625 232.85351562 C414.36083023 232.94777501 408.48658905 232.62259367 402.1796875 226.61132812 C399.12574252 223.31109726 397.15865732 220.93242733 396.1796875 216.51757812 C384.32864275 213.59329435 370.43689587 211.7948434 359.1796875 217.51757812 C352.15872014 223.23511735 346.67061963 230.74627224 340.94464111 237.72576904 C318.73139316 264.71233715 318.73139316 264.71233715 299.98630333 267.06171131 C290.24254511 268.00333477 280.50962981 267.90012132 270.7421875 267.45507812 C269.41770599 267.39482893 269.41770599 267.39482893 268.06646729 267.33336258 C257.05416209 266.79388797 246.12771838 265.80908812 235.1796875 264.51757812 C235.1796875 269.79757812 235.1796875 275.07757813 235.1796875 280.51757812 C288.3096875 280.51757812 341.4396875 280.51757812 396.1796875 280.51757812 C396.8396875 278.86757813 397.4996875 277.21757812 398.1796875 275.51757812 C401.65257133 270.19765098 405.97095537 266.17782453 412.1796875 264.51757812 C419.14607504 263.72816271 426.25978668 263.38439612 432.43359375 267.11523438 C437.31561014 271.03613792 441.30645045 275.47373782 443.1796875 281.51757812 C443.98482855 289.35366021 444.30429142 297.13680389 439.1796875 303.51757812 C434.37520111 308.56279034 430.01791695 312.12320807 422.91015625 312.85351562 C414.36083023 312.94777501 408.48658905 312.62259367 402.1796875 306.61132812 C399.00003209 303.17524889 397.33787659 301.15033448 396.1796875 296.51757812 C343.0496875 296.51757812 289.9196875 296.51757812 235.1796875 296.51757812 C235.1796875 301.79757812 235.1796875 307.07757813 235.1796875 312.51757812 C237.26611572 312.27144775 239.35254395 312.02531738 241.50219727 311.77172852 C251.2275278 310.6936375 260.96842457 310.02467576 270.7421875 309.58007812 C271.62195251 309.53999256 272.50171753 309.499907 273.40814209 309.45860672 C292.03434552 308.71103764 310.44240734 308.13842644 324.87217712 321.41505051 C331.18751225 327.52062944 336.74679529 334.19255845 342.31126022 340.97518349 C353.6200987 355.8590414 353.6200987 355.8590414 370.23828125 362.86132812 C378.96980662 363.63236986 387.69270796 362.61176788 396.1796875 360.51757812 C396.63674072 359.33820679 396.63674072 359.33820679 397.10302734 358.13500977 C399.49560008 352.31850811 403.9556018 347.73443158 409.7109375 345.17773438 C416.35504499 343.40106639 424.23499555 343.23081205 430.6171875 346.01757812 C436.44204529 349.53754595 441.16185332 355.00720747 443.1796875 361.51757812 C443.98482855 369.35366021 444.30429142 377.13680389 439.1796875 383.51757812 C434.37520111 388.56279034 430.01791695 392.12320807 422.91015625 392.85351562 C414.36083023 392.94777501 408.48658905 392.62259367 402.1796875 386.61132812 C399.12574252 383.31109726 397.15865732 380.93242733 396.1796875 376.51757812 C395.03234131 376.7637085 393.88499512 377.00983887 392.70288086 377.26342773 C379.08370301 379.90871387 363.28572958 382.08250244 350.1796875 376.51757812 C345.95274605 373.50794406 342.48322487 369.95343531 339.05078125 366.08789062 C338.59058279 365.57820551 338.13038433 365.06852039 337.65624046 364.54339027 C332.93705122 359.27515912 328.5488251 353.91273133 324.66653728 347.99737644 C319.12082738 339.76819725 312.91378659 332.56289306 303.1796875 329.51757812 C281.06436501 325.62161051 257.49280883 327.40300007 235.1796875 328.51757812 C235.18337467 329.21349973 235.18706184 329.90942133 235.19086075 330.62643147 C235.2793768 347.59604968 235.3454771 364.56559432 235.38693619 381.5353899 C235.4075208 389.74202096 235.43556243 397.94849747 235.48144531 406.1550293 C235.52143926 413.31171725 235.5471501 420.46829322 235.55604148 427.62508982 C235.56123511 431.41110302 235.57335515 435.19679598 235.60260773 438.98270607 C235.62997606 442.55405398 235.63808992 446.12495304 235.63211823 449.69639587 C235.63372485 451.6159084 235.65513474 453.53537326 235.67736816 455.45475769 C235.62108943 467.40780432 232.50515543 476.79644439 224.1796875 485.51757812 C211.83272529 497.3043757 198.46889684 497.10160549 182.359375 497.03515625 C180.14902283 497.04058254 177.93867428 497.04770804 175.72833252 497.05639648 C169.7490063 497.07457225 163.76995735 497.06758593 157.79062653 497.05488014 C151.52040381 497.04472272 145.25020416 497.05415343 138.97998047 497.0604248 C127.77859848 497.0681582 116.57731784 497.05576112 105.37596011 497.03538746 C95.23820809 497.01751861 85.10063934 497.02062339 74.96289062 497.0390625 C63.16481575 497.06051173 51.36683004 497.06841371 39.56873512 497.05661345 C33.33270496 497.05039115 27.09680078 497.04950815 20.86077881 497.0627594 C14.99684899 497.07435054 9.1332638 497.06623226 3.26937103 497.04318237 C1.12283652 497.03791275 -1.02372722 497.03937896 -3.17024994 497.04823303 C-18.26504792 497.10473587 -30.35056852 496.46695565 -41.8203125 485.51757812 C-52.43154527 474.40204915 -53.41062526 462.44251068 -53.32824707 447.79248047 C-53.33286128 446.00065798 -53.33921769 444.20883928 -53.34715605 442.41702843 C-53.36380097 437.51473105 -53.35562502 432.61274653 -53.34321117 427.71044827 C-53.33414319 422.41520035 -53.34813909 417.12000539 -53.35913086 411.82476807 C-53.37690197 401.4598823 -53.37308234 391.09511251 -53.3614803 380.73022223 C-53.35244073 372.30522556 -53.35122425 363.88026136 -53.35557556 355.45526123 C-53.35618849 354.25542079 -53.35680143 353.05558036 -53.35743293 351.81938112 C-53.35871185 349.38180303 -53.36000871 346.94422494 -53.3613233 344.50664687 C-53.37272498 321.65829622 -53.35962183 298.8100098 -53.33812183 275.96166968 C-53.32025124 256.36373721 -53.32335547 236.76589951 -53.34179688 217.16796875 C-53.36321084 194.40045677 -53.37162638 171.63300107 -53.35934782 148.86548042 C-53.35807365 146.43695196 -53.35681616 144.0084235 -53.35557556 141.57989502 C-53.35495846 140.38506386 -53.35434136 139.1902327 -53.35370556 137.95919454 C-53.35025424 129.54592306 -53.3560763 121.13268733 -53.36549377 112.71942139 C-53.37672095 102.46415502 -53.37365849 92.20901109 -53.3523708 81.95375872 C-53.34187017 76.72301273 -53.33772186 71.49247078 -53.35096741 66.26172638 C-53.36291738 61.47008532 -53.35628573 56.67883675 -53.3350572 51.88723111 C-53.33060219 50.15723152 -53.33283256 48.42719854 -53.34256035 46.69722056 C-53.4141566 32.90262951 -51.69511186 21.86167488 -41.8203125 11.51757812 C-29.47335029 -0.26921945 -16.10952184 -0.06644924 0 0 Z M-31.0703125 25.95507812 C-39.93387343 36.83203279 -36.8203125 51.15197597 -36.8203125 64.51757812 C39.7396875 64.51757812 116.2996875 64.51757812 195.1796875 64.51757812 C197.8196875 59.23757812 200.4596875 53.95757812 203.1796875 48.51757812 C210.43402393 38.20878426 210.43402393 38.20878426 214.43359375 34.33398438 C216.41372714 32.65736363 216.41372714 32.65736363 216.3671875 30.20507812 C214.06615385 24.99747565 209.79724627 20.99610149 204.6171875 18.64257812 C198.61558592 16.67841761 192.89799318 16.37149596 186.62223816 16.38386536 C185.77408281 16.3815998 184.92592746 16.37933424 184.05207044 16.37700003 C181.21723549 16.37068276 178.38244862 16.37148794 175.54760742 16.37231445 C173.51208942 16.36932154 171.47657199 16.36591871 169.4410553 16.36213684 C163.91618608 16.35330601 158.39133234 16.35095911 152.86645675 16.35032105 C149.4133073 16.34961002 145.96016179 16.3474747 142.50701332 16.34482384 C130.45608902 16.33557341 118.40517578 16.33148857 106.35424805 16.33227539 C95.12759401 16.33287609 83.90098803 16.32232504 72.67434615 16.30653173 C63.03000067 16.29344865 53.3856709 16.28809182 43.74131662 16.2887308 C37.98373335 16.28898556 32.22619281 16.28614626 26.46861839 16.27555275 C21.0521843 16.26585891 15.63583366 16.26580145 10.21939659 16.27306938 C8.23488747 16.27411362 6.25037312 16.27176188 4.26587296 16.26570892 C1.54984714 16.25796328 -1.16589234 16.26265079 -3.88191223 16.27033997 C-4.66092119 16.2651964 -5.43993014 16.26005284 -6.24254543 16.25475341 C-16.31662654 16.3174643 -24.12232164 18.25369066 -31.0703125 25.95507812 Z M272.1796875 35.51757812 C269.17321843 41.7702448 269.17321843 41.7702448 268.1796875 48.51757812 C283.3596875 48.51757812 298.5396875 48.51757812 314.1796875 48.51757812 C311.88480262 37.04315374 306.41209226 25.86757089 296.9921875 18.52929688 C294.32771378 17.04201521 292.25555759 16.61508773 289.21875 16.88476562 C280.94727962 19.45177368 276.04342676 28.36721509 272.1796875 35.51757812 Z M227.3671875 44.01757812 C224.96018596 46.2147836 224.96018596 46.2147836 225.1796875 48.51757812 C233.4296875 48.51757812 241.6796875 48.51757812 250.1796875 48.51757812 C251.2934375 45.50632812 252.4071875 42.49507812 253.5546875 39.39257812 C253.90192871 38.45526855 254.24916992 37.51795898 254.60693359 36.55224609 C256.20277372 32.22883617 257.75659596 27.90185005 259.1796875 23.51757812 C248.72145391 23.51757812 234.44510602 37.22211175 227.3671875 44.01757812 Z M323.1796875 23.51757812 C324.914586 28.86246745 326.85296726 34.12429199 328.8046875 39.39257812 C329.9184375 42.40382813 331.0321875 45.41507813 332.1796875 48.51757812 C340.7596875 48.51757812 349.3396875 48.51757812 358.1796875 48.51757812 C349.73123228 38.66104704 336.80809358 25.92850009 323.1796875 23.51757812 Z M213.1796875 64.51757812 C206.35081868 80.07814175 206.35081868 80.07814175 204.1796875 96.51757812 C217.0496875 96.51757812 229.9196875 96.51757812 243.1796875 96.51757812 C243.79409533 89.35374439 243.79409533 89.35374439 244.40600586 82.18969727 C244.48471924 81.27824951 244.56343262 80.36680176 244.64453125 79.42773438 C244.7230835 78.5112915 244.80163574 77.59484863 244.88256836 76.65063477 C245.26657165 72.60140364 245.73051847 68.56009942 246.1796875 64.51757812 C235.2896875 64.51757812 224.3996875 64.51757812 213.1796875 64.51757812 Z M263.1796875 64.51757812 C259.88300659 83.12482609 259.88300659 83.12482609 260.1796875 96.51757812 C280.6396875 96.51757812 301.0996875 96.51757812 322.1796875 96.51757812 C322.47636841 83.12482609 322.47636841 83.12482609 319.1796875 64.51757812 C300.6996875 64.51757812 282.2196875 64.51757812 263.1796875 64.51757812 Z M336.1796875 64.51757812 C337.1696875 75.07757813 338.1596875 85.63757813 339.1796875 96.51757812 C352.0496875 96.51757812 364.9196875 96.51757812 378.1796875 96.51757812 C377.5098847 89.81955011 376.86225272 84.4647686 374.8046875 78.26757812 C374.59585938 77.59984375 374.38703125 76.93210937 374.171875 76.24414062 C372.82186788 72.04594774 371.17825419 68.51471151 369.1796875 64.51757812 C358.2896875 64.51757812 347.3996875 64.51757812 336.1796875 64.51757812 Z M-36.8203125 80.51757812 C-36.87857686 141.4384738 -36.87857686 141.4384738 -36.91796875 202.359375 C-36.92188449 210.57153328 -36.92592546 218.78369149 -36.93017578 226.99584961 C-36.93070328 228.02510951 -36.93123078 229.0543694 -36.93177426 230.11481899 C-36.94047281 246.73130778 -36.95624043 263.34778273 -36.97461809 279.96426331 C-36.99332131 297.01732304 -37.00443012 314.07037553 -37.00848949 331.12344509 C-37.01123367 341.64603431 -37.01990095 352.16858441 -37.03614543 362.69116158 C-37.04671751 369.9069367 -37.04991261 377.1226916 -37.04731525 384.33847391 C-37.04603432 388.50153848 -37.04799773 392.66453471 -37.05872345 396.82758713 C-37.06847857 400.64181596 -37.06893276 404.45593069 -37.06211029 408.27016485 C-37.06086938 410.29754848 -37.06947486 412.32493083 -37.07847512 414.35229486 C-37.04829319 423.5704257 -36.93027509 432.08654254 -30.8203125 439.51757812 C-22.86241481 447.41863369 -15.3060884 448.67305688 -4.26286316 448.65129089 C-3.41470781 448.65355645 -2.56655246 448.65582201 -1.69269544 448.65815622 C1.14213951 448.66447349 3.97692638 448.66366831 6.81176758 448.6628418 C8.84728558 448.66583471 10.88280301 448.66923754 12.9183197 448.67301941 C18.44318892 448.68185024 23.96804266 448.68419714 29.49291825 448.6848352 C32.9460677 448.68554623 36.39921321 448.68768155 39.85236168 448.69033241 C51.90328598 448.69958284 63.95419922 448.70366768 76.00512695 448.70288086 C87.23178099 448.70228016 98.45838697 448.71283121 109.68502885 448.72862452 C119.32937433 448.7417076 128.9737041 448.74706443 138.61805838 448.74642545 C144.37564165 448.74617069 150.13318219 448.74900999 155.89075661 448.7596035 C161.3071907 448.76929734 166.72354134 448.7693548 172.13997841 448.76208687 C174.12448753 448.76104263 176.10900188 448.76339437 178.09350204 448.76944733 C180.80952786 448.77719297 183.52526734 448.77250546 186.24128723 448.76481628 C187.02029619 448.76995985 187.79930514 448.77510341 188.60192043 448.78040284 C197.49989842 448.72501316 205.31314013 447.41913663 211.80859375 440.87695312 C218.94762335 432.96381188 219.32568815 424.81972067 219.35377502 414.54873657 C219.36027398 413.54878422 219.36677293 412.54883187 219.37346882 411.51857793 C219.3938374 408.17010806 219.40707273 404.8216502 219.42016602 401.47314453 C219.43298147 399.07147557 219.44611704 396.66980829 219.45954895 394.2681427 C219.50122515 386.38516942 219.53160511 378.50217462 219.55859375 370.61914062 C219.56090133 369.94843141 219.56320891 369.2777222 219.56558642 368.58668846 C219.61102866 355.26021063 219.64951167 341.933716 219.67631626 328.60718727 C219.6823049 325.68115849 219.68839065 322.75512993 219.69458008 319.82910156 C219.69611306 319.10189244 219.69764604 318.37468331 219.69922548 317.62543754 C219.72495149 305.83933239 219.78185294 294.05358403 219.85104538 282.26766248 C219.92154861 270.1582268 219.96175427 258.04897572 219.97306579 245.93933809 C219.98022002 239.14362597 220.00092536 232.3485353 220.05609322 225.55302811 C220.10649149 219.16207434 220.1191463 212.77215393 220.10284233 206.38103294 C220.1034465 204.03645906 220.11774592 201.69184241 220.14678955 199.34744835 C220.18440163 196.14384094 220.1725374 192.94403983 220.14845276 189.74038696 C220.17107337 188.81450008 220.19369398 187.8886132 220.21700007 186.93466914 C220.11379053 181.53461408 219.13793125 178.93254863 215.27343655 175.07005882 C213.91157009 173.88277536 212.54724066 172.69830698 211.1796875 171.51757812 C195.44095937 151.99358626 187.97635651 129.65349753 188.0546875 104.70507812 C188.05082031 103.48498047 188.04695312 102.26488281 188.04296875 101.0078125 C188.04490234 99.20860352 188.04490234 99.20860352 188.046875 97.37304688 C188.04800293 96.29692139 188.04913086 95.2207959 188.05029297 94.11206055 C188.21387415 89.56789878 188.72723363 85.04211682 189.1796875 80.51757812 C114.5996875 80.51757812 40.0196875 80.51757812 -36.8203125 80.51757812 Z M204.1796875 112.51757812 C204.8494903 119.21560614 205.49712228 124.57038765 207.5546875 130.76757812 C207.76351563 131.4353125 207.97234375 132.10304687 208.1875 132.79101562 C209.53750712 136.98920851 211.18112081 140.52044474 213.1796875 144.51757812 C224.0696875 144.51757812 234.9596875 144.51757812 246.1796875 144.51757812 C245.1896875 133.95757812 244.1996875 123.39757812 243.1796875 112.51757812 C230.3096875 112.51757812 217.4396875 112.51757812 204.1796875 112.51757812 Z M260.1796875 112.51757812 C259.88300659 125.91033016 259.88300659 125.91033016 263.1796875 144.51757812 C281.6596875 144.51757812 300.1396875 144.51757812 319.1796875 144.51757812 C322.47636841 125.91033016 322.47636841 125.91033016 322.1796875 112.51757812 C301.7196875 112.51757812 281.2596875 112.51757812 260.1796875 112.51757812 Z M339.1796875 112.51757812 C338.56527967 119.68141186 338.56527967 119.68141186 337.95336914 126.84545898 C337.87465576 127.75690674 337.79594238 128.66835449 337.71484375 129.60742188 C337.6362915 130.52386475 337.55773926 131.44030762 337.47680664 132.38452148 C337.09280335 136.43375261 336.62885653 140.47505683 336.1796875 144.51757812 C347.0696875 144.51757812 357.9596875 144.51757812 369.1796875 144.51757812 C374.06508792 133.72401835 374.06508792 133.72401835 377.0546875 122.89257812 C377.39113281 121.20261719 377.39113281 121.20261719 377.734375 119.47851562 C378.2788363 116.35736502 378.2788363 116.35736502 378.1796875 112.51757812 C365.3096875 112.51757812 352.4396875 112.51757812 339.1796875 112.51757812 Z M225.1796875 160.51757812 C231.07124071 172.30068455 245.6375164 180.13342699 257.1796875 185.51757812 C257.8396875 185.51757812 258.4996875 185.51757812 259.1796875 185.51757812 C257.444789 180.1726888 255.50640774 174.91086426 253.5546875 169.64257812 C252.4409375 166.63132813 251.3271875 163.62007812 250.1796875 160.51757812 C241.9296875 160.51757812 233.6796875 160.51757812 225.1796875 160.51757812 Z M268.1796875 160.51757812 C270.47457238 171.99200251 275.94728274 183.16758536 285.3671875 190.50585938 C288.03166122 191.99314104 290.10381741 192.42006852 293.140625 192.15039062 C301.41209538 189.58338257 306.31594824 180.66794116 310.1796875 173.51757812 C313.18615657 167.26491145 313.18615657 167.26491145 314.1796875 160.51757812 C298.9996875 160.51757812 283.8196875 160.51757812 268.1796875 160.51757812 Z M332.1796875 160.51757812 C331.0659375 163.52882812 329.9521875 166.54007813 328.8046875 169.64257812 C328.45744629 170.5798877 328.11020508 171.51719727 327.75244141 172.48291016 C326.15660128 176.80632008 324.60277904 181.1333062 323.1796875 185.51757812 C336.35300961 181.48969382 347.8863508 172.52578688 357.1796875 162.51757812 C357.1796875 161.85757813 357.1796875 161.19757813 357.1796875 160.51757812 C348.9296875 160.51757812 340.6796875 160.51757812 332.1796875 160.51757812 Z M413.8046875 203.14257812 C411.69262244 206.22944244 411.56773605 207.84586943 412.1796875 211.51757812 C413.6796875 214.01757812 413.6796875 214.01757812 416.1796875 215.51757812 C419.8513962 216.12952957 421.46782318 216.00464318 424.5546875 213.89257812 C426.66675256 210.80571381 426.79163895 209.18928682 426.1796875 205.51757812 C424.6796875 203.01757812 424.6796875 203.01757812 422.1796875 201.51757812 C418.5079788 200.90562668 416.89155182 201.03051307 413.8046875 203.14257812 Z M413.8046875 283.14257812 C411.69262244 286.22944244 411.56773605 287.84586943 412.1796875 291.51757812 C413.6796875 294.01757812 413.6796875 294.01757812 416.1796875 295.51757812 C419.8513962 296.12952957 421.46782318 296.00464318 424.5546875 293.89257812 C426.66675256 290.80571381 426.79163895 289.18928682 426.1796875 285.51757812 C424.6796875 283.01757812 424.6796875 283.01757812 422.1796875 281.51757812 C418.5079788 280.90562668 416.89155182 281.03051307 413.8046875 283.14257812 Z M413.8046875 363.14257812 C411.69262244 366.22944244 411.56773605 367.84586943 412.1796875 371.51757812 C413.6796875 374.01757812 413.6796875 374.01757812 416.1796875 375.51757812 C419.8513962 376.12952957 421.46782318 376.00464318 424.5546875 373.89257812 C426.66675256 370.80571381 426.79163895 369.18928682 426.1796875 365.51757812 C424.6796875 363.01757812 424.6796875 363.01757812 422.1796875 361.51757812 C418.5079788 360.90562668 416.89155182 361.03051307 413.8046875 363.14257812 Z M-35.8203125 458.51757812 C-35.23885173 465.7858378 -32.723553 469.96207524 -27.3828125 474.76757812 C-20.4569538 480.41141617 -12.93727969 480.668388 -4.26286316 480.65129089 C-2.99063014 480.65468923 -2.99063014 480.65468923 -1.69269544 480.65815622 C1.14213951 480.66447349 3.97692638 480.66366831 6.81176758 480.6628418 C8.84728558 480.66583471 10.88280301 480.66923754 12.9183197 480.67301941 C18.44318892 480.68185024 23.96804266 480.68419714 29.49291825 480.6848352 C32.9460677 480.68554623 36.39921321 480.68768155 39.85236168 480.69033241 C51.90328598 480.69958284 63.95419922 480.70366768 76.00512695 480.70288086 C87.23178099 480.70228016 98.45838697 480.71283121 109.68502885 480.72862452 C119.32937433 480.7417076 128.9737041 480.74706443 138.61805838 480.74642545 C144.37564165 480.74617069 150.13318219 480.74900999 155.89075661 480.7596035 C161.3071907 480.76929734 166.72354134 480.7693548 172.13997841 480.76208687 C174.12448753 480.76104263 176.10900188 480.76339437 178.09350204 480.76944733 C180.80952786 480.77719297 183.52526734 480.77250546 186.24128723 480.76481628 C187.40980066 480.77253163 187.40980066 480.77253163 188.60192043 480.78040284 C197.49989842 480.72501316 205.31314013 479.41913663 211.80859375 472.87695312 C215.93681977 468.30108814 218.1796875 464.84467518 218.1796875 458.51757812 C214.89744896 459.58430565 211.7297617 460.70987451 208.55309868 462.06756687 C203.89472547 463.81060738 199.63778894 463.940167 194.70510864 463.90525818 C193.78244607 463.91064372 192.85978349 463.91602925 191.90916145 463.92157799 C188.83399718 463.93582424 185.75926539 463.928762 182.68408203 463.92163086 C180.47255102 463.92733618 178.26102295 463.93430107 176.04949951 463.94242859 C170.05358272 463.96035771 164.05781231 463.95919194 158.06187677 463.9534862 C153.05198549 463.95039381 148.04212231 463.95648743 143.03223503 463.96252495 C130.53526848 463.97737039 118.03837252 463.9737574 105.54141103 463.96166164 C94.70424469 463.95173233 83.86724917 463.9646669 73.03010918 463.98859584 C61.88561489 464.01301681 50.74118244 464.02218805 39.59665763 464.01594311 C33.34663298 464.0125752 27.09674941 464.01497772 20.84674454 464.03219414 C14.96809806 464.04768106 9.08977719 464.04368796 3.21114349 464.02488899 C1.05773607 464.02120791 -1.09569557 464.02429749 -3.24908066 464.03477478 C-6.19701515 464.0480192 -9.14387714 464.03640627 -12.09176636 464.01878357 C-12.9365353 464.02838858 -13.78130424 464.03799358 -14.65167224 464.04788965 C-20.21929656 463.97977618 -24.50302657 462.7454209 -29.5842067 460.47261387 C-31.65767973 459.58703822 -33.62213312 458.99716481 -35.8203125 458.51757812 Z " fill="#E5B86B" transform="translate(60.8203125,7.482421875)"/>
<path d="M0 0 C10.58327551 8.6328929 19.18160477 18.96586424 24.30664062 31.72021484 C24.30664062 32.71021484 24.30664062 33.70021484 24.30664062 34.72021484 C25.17804688 34.67380859 26.04945313 34.62740234 26.94726562 34.57958984 C42.18778939 34.11775579 52.94640421 38.72474933 64.05664062 49.03271484 C74.049551 59.59126166 76.82103844 71.13849408 76.72631836 85.25048828 C76.31553806 99.37287723 70.46952163 110.44887211 60.24414062 120.12646484 C49.08929344 129.30222624 37.88567263 131.17521144 23.77587891 131.12426758 C22.33575922 131.12998137 20.89564405 131.1369495 19.45553589 131.14506531 C15.57108253 131.16290177 11.68685625 131.16184628 7.80237436 131.15612292 C4.54720741 131.15301685 1.29208318 131.15913928 -1.96307766 131.16516167 C-9.64908714 131.1791744 -17.33498539 131.17767313 -25.02099609 131.16625977 C-32.92249202 131.15478493 -40.82364827 131.16885084 -48.72509944 131.19565624 C-55.53479824 131.21788398 -62.34439096 131.22443466 -69.15412343 131.21857983 C-73.20991668 131.21522551 -77.26549235 131.21752273 -81.32125473 131.23483086 C-85.13820499 131.25041111 -88.95465605 131.2462234 -92.77158737 131.22752571 C-94.16302909 131.22387004 -95.55450872 131.22685884 -96.94591522 131.2374115 C-112.57011986 131.34675489 -123.98718369 127.03663933 -135.44335938 116.40771484 C-145.43626975 105.84916803 -148.20775719 94.30193561 -148.11303711 80.18994141 C-147.69877048 65.94769436 -141.78038828 54.99557523 -131.50195312 45.24365234 C-127.89787334 42.2078184 -124.03898307 39.38686579 -119.46679688 38.08740234 C-115.09135635 36.77928095 -112.78287695 35.23710613 -110.59179688 31.22802734 C-109.19147364 28.41832705 -107.89467669 25.56438528 -106.59179688 22.70849609 C-104.31520487 17.75893083 -101.34737762 13.7461022 -97.69335938 9.72021484 C-97.09007812 9.03701172 -96.48679688 8.35380859 -95.86523438 7.64990234 C-88.09134544 -0.66120656 -78.246753 -6.21046812 -67.69335938 -10.27978516 C-66.448125 -10.76125 -66.448125 -10.76125 -65.17773438 -11.25244141 C-43.72932016 -17.99426751 -17.86070101 -13.49852865 0 0 Z M-77.69335938 14.72021484 C-78.40105469 15.22037109 -79.10875 15.72052734 -79.83789062 16.23583984 C-90.01316846 24.18339413 -95.97831056 36.34111115 -98.69335938 48.72021484 C-98.69335938 49.38021484 -98.69335938 50.04021484 -98.69335938 50.72021484 C-99.74523437 50.86716797 -99.74523437 50.86716797 -100.81835938 51.01708984 C-107.08463861 52.00470994 -112.32315794 53.2924267 -117.69335938 56.72021484 C-118.29921875 57.10693359 -118.90507813 57.49365234 -119.52929688 57.89208984 C-125.273124 62.15606631 -128.51566019 67.98704597 -130.69335938 74.72021484 C-132.04744102 84.67426541 -130.86310383 93.20498914 -125.44335938 101.67333984 C-118.85088646 110.28850331 -110.07201495 113.33451795 -99.69335938 114.72021484 C-95.41587652 114.98294702 -91.15373928 114.99421886 -86.86914062 114.97900391 C-85.63674652 114.98250854 -84.40435242 114.98601318 -83.13461304 114.98962402 C-79.78743677 114.99686634 -76.44051113 114.99524197 -73.09334946 114.98886585 C-69.56979822 114.98375814 -66.04625679 114.98851044 -62.52270508 114.99163818 C-56.60854193 114.99526405 -50.69442894 114.99051513 -44.78027344 114.98095703 C-37.96888744 114.97007514 -31.15762123 114.97360169 -24.34623814 114.98460984 C-18.46987422 114.99372223 -12.5935461 114.99494877 -6.71717739 114.9897325 C-3.21984841 114.98663442 0.2774245 114.98614331 3.77474976 114.99280548 C7.6773535 114.99972207 11.57982596 114.99010197 15.48242188 114.97900391 C16.62248688 114.98305237 17.76255188 114.98710083 18.93716431 114.99127197 C30.21870774 114.9321549 40.26295496 113.94591941 49.30664062 106.72021484 C56.3468833 99.54738756 59.39892304 92.82416078 59.74414062 82.84521484 C59.52810095 74.06273247 57.18865318 66.82215183 51.15039062 60.32177734 C41.73987865 52.14739194 33.42576814 51.13990027 21.30664062 51.72021484 C18.50152812 52.18773359 16.02117043 52.85156531 13.30664062 53.72021484 C12.71882813 51.89490234 12.71882813 51.89490234 12.11914062 50.03271484 C11.51664198 48.2613133 10.91227991 46.49054507 10.30664062 44.72021484 C9.97792969 43.70701172 9.64921875 42.69380859 9.31054688 41.64990234 C3.55557306 25.12177685 -7.18299112 14.61039744 -22.63867188 6.94677734 C-41.27517654 -0.53642274 -61.77326338 3.02381778 -77.69335938 14.72021484 Z " fill="#E5B86B" transform="translate(187.693359375,133.27978515625)"/>
<path d="M0 0 C3.35729486 2.58925618 6.43599752 5.25621338 9.375 8.3125 C7.83856148 11.99319887 5.59349055 14.30025204 2.75 17.0625 C1.93273437 17.86171875 1.11546875 18.6609375 0.2734375 19.484375 C-0.35304688 20.08765625 -0.97953125 20.6909375 -1.625 21.3125 C-2.07488281 20.96058594 -2.52476562 20.60867188 -2.98828125 20.24609375 C-22.76104999 5.06980031 -41.9748957 -1.5139805 -66.9375 1.60107422 C-79.80441704 3.87045234 -90.87817919 10.29659541 -100.6015625 18.80859375 C-102.625 20.3125 -102.625 20.3125 -105.625 20.3125 C-108.10546875 18.125 -108.10546875 18.125 -110.8125 15.3125 C-111.71355469 14.384375 -112.61460938 13.45625 -113.54296875 12.5 C-114.23003906 11.778125 -114.91710937 11.05625 -115.625 10.3125 C-110.92631409 -0.52324505 -97.36273893 -6.84715115 -86.96484375 -11.23046875 C-57.76844639 -22.06395243 -25.12641941 -18.73939578 0 0 Z " fill="#E5B76B" transform="translate(204.625,296.6875)"/>
<path d="M0 0 C6.47996175 3.65411377 10.18230859 8.06588447 13.28515625 14.71484375 C15.38463679 24.44879899 13.4013806 31.31479295 8.28515625 39.65234375 C2.53043743 45.25152963 -2.4999426 47.23922898 -10.58984375 47.46484375 C-18.78011721 47.15361336 -23.76412535 45.59862765 -29.33984375 39.58984375 C-34.1413775 33.38840778 -35.66162466 27.75464582 -35.4375 19.96875 C-34.42744007 12.4173496 -30.7119267 6.79738274 -24.87109375 2.05859375 C-17.68070736 -2.45063161 -7.91863003 -2.87114199 0 0 Z M-16.46484375 17.52734375 C-18.49895711 20.61919606 -18.63339804 22.266018 -18.02734375 25.90234375 C-16.59073064 28.42241219 -16.59073064 28.42241219 -14.02734375 29.90234375 C-10.52734375 30.65234375 -10.52734375 30.65234375 -7.02734375 29.90234375 C-4.36849774 27.91214258 -4.36849774 27.91214258 -3.02734375 24.90234375 C-3.09102575 21.71824398 -3.51693774 19.75302043 -5.15234375 17.02734375 C-9.02063619 14.70636829 -12.80075252 15.08461626 -16.46484375 17.52734375 Z " fill="#E5B86B" transform="translate(162.02734375,345.09765625)"/>
<path d="M0 0 C31.68 0 63.36 0 96 0 C96 5.28 96 10.56 96 16 C64.32 16 32.64 16 0 16 C0 10.72 0 5.44 0 0 Z " fill="#E5B86C" transform="translate(104,40)"/>
<path d="M0 0 C1.3786033 1.13437521 2.72028981 2.31346654 4.05078125 3.50390625 C3.5065314 7.51659583 1.53005924 9.48807471 -1.26171875 12.31640625 C-2.04160156 13.12722656 -2.82148438 13.93804687 -3.625 14.7734375 C-5.94921875 16.50390625 -5.94921875 16.50390625 -8.1015625 16.37890625 C-9.94921875 15.50390625 -9.94921875 15.50390625 -12.19921875 13.69140625 C-20.08077637 7.42198541 -29.03634337 5.16982677 -39.1015625 5.65625 C-48.17731857 6.88270352 -56.11040848 10.348977 -62.94921875 16.50390625 C-66.62991762 14.96746773 -68.93697079 12.7223968 -71.69921875 9.87890625 C-72.4984375 9.06164062 -73.29765625 8.244375 -74.12109375 7.40234375 C-74.724375 6.77585937 -75.32765625 6.149375 -75.94921875 5.50390625 C-69.60312301 -2.82682992 -59.51835709 -8.76625573 -49.25 -11.09375 C-31.06739363 -13.31009137 -14.8759888 -11.41784311 0 0 Z " fill="#E5B76B" transform="translate(186.94921875,323.49609375)"/>
<path d="M0 0 C26.4 0 52.8 0 80 0 C80 5.28 80 10.56 80 16 C53.6 16 27.2 16 0 16 C0 10.72 0 5.44 0 0 Z " fill="#E5B86C" transform="translate(120,424)"/>
<path d="M0 0 C2.5 1.5 2.5 1.5 4 4 C4.791013 8.02098277 4.62153384 10.96411027 2.5 14.5 C-1.03588973 16.62153384 -3.97901723 16.791013 -8 16 C-10.5 14.5 -10.5 14.5 -12 12 C-12.791013 7.97901723 -12.62153384 5.03588973 -10.5 1.5 C-6.96411027 -0.62153384 -4.02098277 -0.791013 0 0 Z " fill="#E4B76C" transform="translate(52,40)"/>
</svg>
