<?xml version="1.0" encoding="UTF-8"?>
<svg version="1.1" xmlns="http://www.w3.org/2000/svg" width="512" height="512">
<path d="M0 0 C3.75317323 1.59709499 6.31940288 3.93646044 9 7 C10.6908613 12.0725839 10.87642675 17.6446031 9 22.6875 C4.26619094 28.16096673 -1.17125435 32.36629653 -7.43359375 35.95703125 C-9.16993993 36.92601427 -9.16993993 36.92601427 -10 39 C-8.845 39.165 -7.69 39.33 -6.5 39.5 C21.34467482 45.71689281 47.96391389 70.2731109 63.21484375 93.42578125 C77.31803049 115.96828349 84.45650419 140.68621761 84.3125 167.1875 C84.31001251 167.91843872 84.30752502 168.64937744 84.30496216 169.40246582 C84.24816832 180.18827986 83.96757192 190.55872766 81 201 C80.77957031 201.79696289 80.55914062 202.59392578 80.33203125 203.41503906 C73.73517022 226.58258674 62.5009342 245.51183042 46 263 C44.91525391 264.19882812 44.91525391 264.19882812 43.80859375 265.421875 C22.16291816 288.42269441 -11.14264439 302.59883678 -42.55932617 304.12426758 C-69.48709552 304.91575629 -94.32871663 300.15367153 -118 287 C-118.90878906 286.50757813 -119.81757813 286.01515625 -120.75390625 285.5078125 C-153.07470655 267.14254234 -174.20383705 236.31698155 -184 201 C-186.79685527 190.63455547 -187.34009877 180.2867381 -187.9375 169.625 C-189.69625535 138.40916985 -199.58888115 112.39380427 -222.51171875 90.18359375 C-244.63537124 70.76895993 -272.89173281 62.27738184 -302 64 C-326.15601349 66.17960617 -347.33273485 76.70907987 -365 93 C-365.66257812 93.58136719 -366.32515625 94.16273438 -367.0078125 94.76171875 C-383.45054279 109.94256509 -394.84848241 134.70533007 -396.17700195 156.96582031 C-396.85714486 191.50949258 -388.97943459 218.01990154 -364.75 243.625 C-354.6618308 253.39954736 -341.38654598 261.53781801 -328 266 C-328.32798584 265.52578613 -328.65597168 265.05157227 -328.99389648 264.56298828 C-330.47642594 262.41790666 -331.9569846 260.27147214 -333.4375 258.125 C-333.95376953 257.37863281 -334.47003906 256.63226563 -335.00195312 255.86328125 C-335.49501953 255.14785156 -335.98808594 254.43242187 -336.49609375 253.6953125 C-336.95169678 253.03547363 -337.4072998 252.37563477 -337.87670898 251.69580078 C-340.89951649 247.1323535 -340.43218878 242.3251832 -340 237 C-338.40290501 233.24682677 -336.06353956 230.68059712 -333 228 C-330.18171822 227.06057274 -328.18778331 226.77417373 -325.25 226.6875 C-324.02023437 226.63142578 -324.02023437 226.63142578 -322.765625 226.57421875 C-318.2482474 227.26969073 -314.64010168 229.17189226 -311.60498047 232.55493164 C-310.26098857 234.38996776 -309.02770759 236.26482133 -307.8125 238.1875 C-306.86201922 239.62979162 -305.91014866 241.07116814 -304.95703125 242.51171875 C-304.47186035 243.25341309 -303.98668945 243.99510742 -303.48681641 244.75927734 C-301.07275566 248.39741355 -298.53417633 251.94500536 -296 255.5 C-291.92782857 261.24980773 -287.88110253 267.01643677 -283.875 272.8125 C-283.41351563 273.47636719 -282.95203125 274.14023437 -282.4765625 274.82421875 C-278.44493479 280.677365 -275.94843087 284.71234261 -277 292 C-279.16629978 298.57725833 -282.81222468 301.9591227 -288.5 305.625 C-290.02634421 306.65449951 -291.5523725 307.68446751 -293.078125 308.71484375 C-294.27985352 309.51317627 -294.27985352 309.51317627 -295.50585938 310.32763672 C-299.8037695 313.20945782 -304.0200753 316.20723431 -308.25 319.1875 C-311.49804631 321.46113242 -314.74890344 323.73073184 -318 326 C-318.69834961 326.48758789 -319.39669922 326.97517578 -320.11621094 327.47753906 C-321.95126006 328.75761547 -323.78772544 330.0356205 -325.625 331.3125 C-326.62789063 332.00988281 -327.63078125 332.70726562 -328.6640625 333.42578125 C-333.59706596 336.75019662 -338.16565873 336.47351176 -344 336 C-347.75317323 334.40290501 -350.31940288 332.06353956 -353 329 C-353.93942726 326.18171822 -354.22582627 324.18778331 -354.3125 321.25 C-354.34988281 320.43015625 -354.38726562 319.6103125 -354.42578125 318.765625 C-353.71368856 314.140289 -351.82239123 310.5503655 -348.28100586 307.53759766 C-346.33055582 306.17637969 -344.34813379 304.91740243 -342.3125 303.6875 C-337.44344388 301.04681984 -337.44344388 301.04681984 -334 297 C-335.155 296.835 -336.31 296.67 -337.5 296.5 C-365.34467482 290.28310719 -391.96391389 265.7268891 -407.21484375 242.57421875 C-421.38741912 219.92080587 -428.45120206 195.12028899 -428.375 168.5 C-428.37412384 167.75088348 -428.37324768 167.00176697 -428.37234497 166.22994995 C-428.23403885 130.30720954 -414.61349528 99.0367246 -390 73 C-388.86304688 71.76636719 -388.86304688 71.76636719 -387.703125 70.5078125 C-365.05553474 46.75004624 -331.41632851 32.75409711 -298.7578125 31.796875 C-272.74438103 31.43337255 -248.85743216 36.29856976 -226 49 C-225.09121094 49.49242187 -224.18242187 49.98484375 -223.24609375 50.4921875 C-203.8240128 61.52816929 -187.46627792 77.92173253 -176 97 C-175.59700684 97.66580078 -175.19401367 98.33160156 -174.77880859 99.01757812 C-162.19282115 120.22040092 -157.47852235 142.6031708 -156.0625 166.9375 C-154.22596075 197.92766807 -144.22357683 223.78790743 -121.48828125 245.81640625 C-99.47916202 265.13053129 -71.01951302 273.88912263 -42 272 C-13.61072915 269.07555225 11.50426433 255.07954772 30.06640625 233.4921875 C48.70156423 209.47353943 54.75109296 181.18949604 51.71582031 151.19140625 C48.00306825 125.98848879 32.98039681 101.3597454 13.10546875 85.72265625 C4.26983792 79.34923574 -5.61763447 73.46078851 -16 70 C-15.67201416 70.47421387 -15.34402832 70.94842773 -15.00610352 71.43701172 C-13.52357406 73.58209334 -12.0430154 75.72852786 -10.5625 77.875 C-10.04623047 78.62136719 -9.52996094 79.36773437 -8.99804688 80.13671875 C-8.50498047 80.85214844 -8.01191406 81.56757813 -7.50390625 82.3046875 C-7.04830322 82.96452637 -6.5927002 83.62436523 -6.12329102 84.30419922 C-3.10048351 88.8676465 -3.56781122 93.6748168 -4 99 C-5.59709499 102.75317323 -7.93646044 105.31940288 -11 108 C-13.81828178 108.93942726 -15.81221669 109.22582627 -18.75 109.3125 C-19.56984375 109.34988281 -20.3896875 109.38726562 -21.234375 109.42578125 C-26.28907792 108.64758546 -29.57717217 106.68019618 -32.83154297 102.8371582 C-34.82008199 100.10441799 -36.70210218 97.32151875 -38.5625 94.5 C-39.96683442 92.42276219 -41.37179459 90.34594731 -42.77734375 88.26953125 C-43.47972168 87.2223291 -44.18209961 86.17512695 -44.90576172 85.09619141 C-48.6167491 79.60974445 -52.46647251 74.22053036 -56.30688477 68.82421875 C-68.26601148 51.84927116 -68.26601148 51.84927116 -67 44 C-64.62868926 36.68491717 -60.08339154 33.31682193 -53.8125 29.25 C-52.00482762 28.03311745 -50.19754239 26.81565959 -48.390625 25.59765625 C-47.48505859 24.9958252 -46.57949219 24.39399414 -45.64648438 23.77392578 C-41.73320147 21.15087102 -37.89879139 18.42132233 -34.0625 15.6875 C-28.90970677 12.04253233 -23.74659439 8.41282911 -18.5625 4.8125 C-17.53253906 4.09707031 -16.50257813 3.38164063 -15.44140625 2.64453125 C-10.44358678 -0.72199995 -5.9178461 -0.48028896 0 0 Z " fill="#E5B86B" transform="translate(428,88)"/>
<path d="M0 0 C7.52353601 5.42248164 13.45923529 13.05279713 15.0703125 22.35546875 C16.08148275 33.59730273 14.39089526 41.37581167 7.5859375 50.55859375 C1.54236508 57.16830878 -6.03788277 60.95275736 -14.921875 61.796875 C-24.60622328 62.07150577 -33.04954881 59.47565311 -40.62890625 53.328125 C-46.94716127 47.06517199 -50.59451319 39.75350478 -50.79443359 30.79882812 C-50.77558402 23.59486399 -50.38721942 17.75423532 -46.4140625 11.55859375 C-46.0015625 10.86378906 -45.5890625 10.16898438 -45.1640625 9.453125 C-40.68310946 2.66804554 -34.40555544 -0.84480907 -26.9765625 -3.81640625 C-17.53591727 -5.4726598 -8.37005288 -4.99765293 0 0 Z M-31.03125 17.25390625 C-34.19351347 21.66678239 -35.20669469 25.69120109 -34.890625 31.09765625 C-33.9153722 36.13379775 -31.68202829 39.87897055 -27.546875 42.94140625 C-23.16514096 45.37949173 -19.4560379 46.27887595 -14.4140625 45.55859375 C-9.17045362 43.71197443 -5.39479889 41.37362946 -2.4140625 36.55859375 C-0.14963375 31.70624643 -0.01896042 27.65020716 -1.4140625 22.55859375 C-4.37950751 16.84736633 -8.3086336 13.59373672 -14.4140625 11.55859375 C-21.07691187 10.90537322 -26.37084124 12.36835697 -31.03125 17.25390625 Z " fill="#E5B86B" transform="translate(338.4140625,227.44140625)"/>
<path d="M0 0 C1.47629883 -0.0009668 1.47629883 -0.0009668 2.98242188 -0.00195312 C4.00529297 0.01802734 5.02816406 0.03800781 6.08203125 0.05859375 C7.08556641 0.05150391 8.08910156 0.04441406 9.12304688 0.03710938 C17.95843273 0.11183938 25.71897109 1.49266715 32.328125 7.703125 C39.50172658 15.91430486 41.45276068 25.66618135 41.1953125 36.31640625 C40.28591737 45.93001196 37.32377068 53.61740444 30.40234375 60.4609375 C22.81984786 66.6143337 14.89482314 66.85373471 5.45703125 66.99609375 C4.48483643 67.01494629 3.5126416 67.03379883 2.51098633 67.05322266 C1.58697021 67.04468262 0.6629541 67.03614258 -0.2890625 67.02734375 C-1.11978271 67.02283203 -1.95050293 67.01832031 -2.80639648 67.01367188 C-5.97275075 66.30084708 -7.07238825 64.99870045 -9.10546875 62.49609375 C-9.61340332 59.84008789 -9.61340332 59.84008789 -9.62304688 56.78125 C-9.63565552 55.63325928 -9.64826416 54.48526855 -9.66125488 53.30249023 C-9.65315796 52.06700439 -9.64506104 50.83151855 -9.63671875 49.55859375 C-9.64054565 48.28636963 -9.64437256 47.01414551 -9.64831543 45.70336914 C-9.65103802 43.01295548 -9.64566689 40.32399504 -9.62695312 37.63378906 C-9.60416237 34.1901463 -9.61728844 30.74775048 -9.64124298 27.30415344 C-9.65919427 24.01392247 -9.64661595 20.723841 -9.63671875 17.43359375 C-9.64481567 16.19810791 -9.6529126 14.96262207 -9.66125488 13.68969727 C-9.64864624 12.54170654 -9.6360376 11.39371582 -9.62304688 10.2109375 C-9.6198645 9.201521 -9.61668213 8.19210449 -9.61340332 7.15209961 C-8.57666177 1.73094542 -5.19655298 -0.0108764 0 0 Z M6.89453125 16.49609375 C6.89453125 27.71609375 6.89453125 38.93609375 6.89453125 50.49609375 C14.45909055 50.91094636 14.45909055 50.91094636 19.89453125 47.49609375 C24.40217918 41.61110895 25.64379639 36.88170728 24.89453125 29.49609375 C23.66688244 24.51328389 21.9703056 20.78300855 17.89453125 17.49609375 C14.92556846 15.82527336 14.92556846 15.82527336 6.89453125 16.49609375 Z " fill="#E5B76B" transform="translate(67.10546875,222.50390625)"/>
<path d="M0 0 C3.30460168 2.56275232 4.68312801 4.04938402 6 8 C6 11.59570945 5.17631275 13.17885384 3 16 C-0.11888678 17.55944339 -2.5454145 17.28316275 -6 17 C-7.8046875 16.10546875 -7.8046875 16.10546875 -9.5625 15 C-13.19119578 12.88875882 -14.89884049 12.52312099 -19 13 C-19.66 13.33 -20.32 13.66 -21 14 C-21.33 14.99 -21.66 15.98 -22 17 C-21.33742188 17.10183594 -20.67484375 17.20367187 -19.9921875 17.30859375 C-10.65012622 19.46726848 -0.99022194 23.46968415 4.93359375 31.203125 C7.84133989 36.10262399 7.41198352 41.4936818 7 47 C5.18709024 52.89195671 0.86254647 56.4559517 -4 60 C-10.66796479 63.40807089 -19.02245221 62.72973168 -26.125 60.9375 C-31.55938036 59.12893822 -35.86222971 55.91155962 -40 52 C-41.42662219 49.14675563 -41.31033868 47.16545451 -41 44 C-39.5 41.125 -39.5 41.125 -37 39 C-32.2798786 38.32569694 -30.22795373 38.1432881 -26.3125 40.875 C-25.1678125 41.926875 -25.1678125 41.926875 -24 43 C-20.23418505 44.93118715 -17.21888044 45.36685917 -13 45 C-12.01 44.34 -11.02 43.68 -10 43 C-10.18833933 41.0492983 -10.18833933 41.0492983 -11 39 C-12.7971052 37.78046274 -12.7971052 37.78046274 -15.078125 37 C-15.90957031 36.67 -16.74101562 36.34 -17.59765625 36 C-18.91056641 35.505 -18.91056641 35.505 -20.25 35 C-32.72925764 30.21035989 -32.72925764 30.21035989 -36.8125 24.4375 C-38.67311362 19.05151322 -39.1236055 13.39620872 -37.30859375 7.91015625 C-34.49158936 2.52366668 -30.37554434 -1.02183468 -24.8125 -3.3125 C-15.76066293 -4.94479849 -8.15786318 -4.51254774 0 0 Z " fill="#E5B76B" transform="translate(457,227)"/>
<path d="M0 0 C1.17949219 -0.00644531 2.35898438 -0.01289063 3.57421875 -0.01953125 C4.79753906 -0.00019531 6.02085937 0.01914063 7.28125 0.0390625 C8.50457031 0.01972656 9.72789062 0.00039062 10.98828125 -0.01953125 C20.94506711 0.03487742 20.94506711 0.03487742 24.0859375 3.015625 C26.19436605 6.30943735 26.58039534 7.82816487 25.78125 11.6640625 C23.78794497 14.29738423 22.22223953 16.36164624 18.87109375 17.06494141 C16.71638378 17.15556478 14.62151548 17.10161143 12.46875 16.9765625 C11.72818359 16.95400391 10.98761719 16.93144531 10.22460938 16.90820312 C8.40927643 16.849644 6.59499319 16.75997136 4.78125 16.6640625 C4.78125 19.6340625 4.78125 22.6040625 4.78125 25.6640625 C5.73386719 25.61765625 6.68648437 25.57125 7.66796875 25.5234375 C8.92222656 25.48734375 10.17648438 25.45125 11.46875 25.4140625 C12.71011719 25.36765625 13.95148438 25.32125 15.23046875 25.2734375 C19.37839393 25.7297549 20.95801689 26.63425136 23.78125 29.6640625 C24.4453125 31.6640625 24.4453125 31.6640625 24.40625 33.6640625 C24.41914063 34.3240625 24.43203125 34.9840625 24.4453125 35.6640625 C23.3788357 38.87603969 21.63528219 39.93712468 18.78125 41.6640625 C15.23046875 42.0546875 15.23046875 42.0546875 11.46875 41.9140625 C10.21449219 41.87796875 8.96023437 41.841875 7.66796875 41.8046875 C6.71535156 41.75828125 5.76273438 41.711875 4.78125 41.6640625 C4.78125 44.6340625 4.78125 47.6040625 4.78125 50.6640625 C6.42673828 50.57705078 6.42673828 50.57705078 8.10546875 50.48828125 C9.55985314 50.44136562 11.01428374 50.39586739 12.46875 50.3515625 C13.18998047 50.30966797 13.91121094 50.26777344 14.65429688 50.22460938 C18.84203338 50.12899895 20.33334907 50.31360791 23.76171875 52.99609375 C25.78125 55.6640625 25.78125 55.6640625 26.40625 58.6640625 C25.76876732 61.72397937 24.9915177 63.45308664 22.71630859 65.61230469 C18.11562674 68.1129024 12.36939861 67.36948635 7.28125 67.2890625 C6.05792969 67.30839844 4.83460938 67.32773437 3.57421875 67.34765625 C2.39472656 67.34121094 1.21523437 67.33476562 0 67.328125 C-1.07314453 67.32248535 -2.14628906 67.3168457 -3.25195312 67.31103516 C-7.51221637 66.38199487 -8.79041718 65.32280937 -11.21875 61.6640625 C-11.9593279 57.476637 -11.9191033 53.34495039 -11.8828125 49.1015625 C-11.88759613 47.87751709 -11.89237976 46.65347168 -11.89730835 45.39233398 C-11.90070778 42.8067903 -11.89150263 40.22120366 -11.87060547 37.63574219 C-11.84384466 33.67806154 -11.87035625 29.72321742 -11.90234375 25.765625 C-11.89903966 23.25259791 -11.89263347 20.73957258 -11.8828125 18.2265625 C-11.89293365 17.04312256 -11.90305481 15.85968262 -11.91348267 14.64038086 C-11.79786005 6.53660232 -11.79786005 6.53660232 -9.06591797 2.42041016 C-5.75922013 0.38058986 -3.86741683 0.02032426 0 0 Z " fill="#E5B76C" transform="translate(128.21875,222.3359375)"/>
<path d="M0 0 C0.99515625 -0.02384766 1.9903125 -0.04769531 3.015625 -0.07226562 C10.30221157 -0.05799685 15.81404863 1.44410534 21.875 5.5625 C24.12890625 7.9140625 24.12890625 7.9140625 25.4375 10.1875 C26.12005859 11.32058594 26.12005859 11.32058594 26.81640625 12.4765625 C29.33624825 17.44186003 29.55315331 22.10644837 28.875 27.5625 C26.69073398 34.07763829 23.62728457 38.805906 17.875 42.5625 C12.43258608 45.22042308 6.79452927 44.75209346 0.875 44.5625 C0.89820313 45.58730469 0.92140625 46.61210937 0.9453125 47.66796875 C0.96408036 49.02863851 0.98227947 50.3893162 1 51.75 C1.01675781 52.42353516 1.03351563 53.09707031 1.05078125 53.79101562 C1.09021515 57.83299078 0.84338045 60.99725461 -1.125 64.5625 C-4.63753146 66.90418764 -5.98969356 67.05873677 -10.125 66.5625 C-13.24515312 64.6049537 -14.88945569 63.55838976 -15.75318909 59.90649414 C-15.75415085 58.89707764 -15.75511261 57.88766113 -15.75610352 56.84765625 C-15.76863663 55.69966553 -15.78116974 54.5516748 -15.79408264 53.36889648 C-15.78082443 52.13341064 -15.76756622 50.8979248 -15.75390625 49.625 C-15.75631821 48.35277588 -15.75873016 47.08055176 -15.76121521 45.76977539 C-15.76023538 43.0790561 -15.74940282 40.39055651 -15.72192383 37.70019531 C-15.68783902 34.25651044 -15.69386026 30.81431593 -15.7125864 27.37055969 C-15.7257123 24.08028659 -15.70743708 20.79024091 -15.69140625 17.5 C-15.69636612 16.26451416 -15.70132599 15.02902832 -15.70643616 13.75610352 C-15.69059982 12.60811279 -15.67476349 11.46012207 -15.65844727 10.27734375 C-15.6491494 8.76321899 -15.6491494 8.76321899 -15.6396637 7.21850586 C-14.03623624 -1.05624278 -6.733634 -0.07245049 0 0 Z M0.875 16.5625 C0.875 20.5225 0.875 24.4825 0.875 28.5625 C6.492863 29.07579263 6.492863 29.07579263 11.4375 26.875 C13.11160424 24.65335453 13.11160424 24.65335453 12.8125 22 C11.57076928 18.68243269 11.57076928 18.68243269 8.875 16.5625 C6.15652187 16.31536562 3.6158369 16.42770474 0.875 16.5625 Z " fill="#E5B86B" transform="translate(378.125,222.4375)"/>
<path d="M0 0 C3.93452905 0.81969355 5.78205445 2.38936026 8 5.625 C9.90228096 9.90345302 11.35821038 14.30243872 12.8125 18.75 C13.42254883 20.53857422 13.42254883 20.53857422 14.04492188 22.36328125 C17 31.15401786 17 31.15401786 17 34.625 C17.66 34.625 18.32 34.625 19 34.625 C19.39251953 32.73201172 19.39251953 32.73201172 19.79296875 30.80078125 C21.00413279 25.37021518 22.59671849 20.10251344 24.3125 14.8125 C24.59544922 13.88501953 24.87839844 12.95753906 25.16992188 12.00195312 C26.8267938 6.90642903 28.04754136 3.32211362 33 0.625 C36.47234706 0.68486805 38.89318731 0.76538216 41.68609619 2.93452454 C44.17143435 6.13217352 43.46258948 9.77209745 43 13.625 C42.11759062 17.45664789 40.90738532 21.14316997 39.640625 24.86328125 C39.29497498 25.90647018 38.94932495 26.94965912 38.59320068 28.02445984 C37.86331297 30.2158571 37.1267233 32.40503239 36.38378906 34.59204102 C35.24959005 37.93870963 34.14301484 41.29363956 33.0390625 44.65039062 C32.32454669 46.78440063 31.60845498 48.91788377 30.890625 51.05078125 C30.56128967 52.05184402 30.23195435 53.0529068 29.89263916 54.08430481 C27.99466079 59.60954335 26.49750239 63.87624881 21 66.625 C17.59960915 67.00282121 15.59536323 66.9489617 12.56640625 65.30078125 C8.72296825 61.29354377 7.48337245 56.70646815 5.75 51.5 C5.37302979 50.40647217 4.99605957 49.31294434 4.60766602 48.1862793 C3.80871724 45.86601059 3.01598974 43.5435918 2.22900391 41.21923828 C0.99179651 37.60100879 -0.28853826 34.00080123 -1.58203125 30.40234375 C-2.4092293 28.0808628 -3.23606328 25.75925209 -4.0625 23.4375 C-4.45663086 22.34614746 -4.85076172 21.25479492 -5.25683594 20.13037109 C-5.61680664 19.10379395 -5.97677734 18.0772168 -6.34765625 17.01953125 C-6.66742432 16.12081299 -6.98719238 15.22209473 -7.31665039 14.29614258 C-8.09323363 11.26055943 -8.25925574 8.74652491 -8 5.625 C-5.54405875 2.30225596 -4.0743356 0.84881992 0 0 Z " fill="#E5B86B" transform="translate(171,222.375)"/>
</svg>
