<?xml version="1.0" encoding="UTF-8"?>
<svg version="1.1" xmlns="http://www.w3.org/2000/svg" width="512" height="512">
<path d="M0 0 C1.79104813 2.36240729 3.01506361 4.27881867 4.3125 6.875 C8.66427493 14.81047605 13.92372689 21.32544769 20 28 C20.56976563 28.65226562 21.13953125 29.30453125 21.7265625 29.9765625 C41.22085129 51.07038268 71.81418978 62.84222593 100 64 C133.47334708 64.69828639 163.93598179 52.42187531 188.37548828 29.67456055 C195.63126191 22.65453811 201.49190356 14.83821772 206.25 5.9375 C209.12103312 1.25246495 211.69472024 -0.07055202 216.9375 -1.625 C219.28106172 -2.13479273 221.63538698 -2.59903194 224 -3 C224.76957031 -3.14695313 225.53914063 -3.29390625 226.33203125 -3.4453125 C244.09852504 -6.2676883 262.45256723 -1.41463937 277 9 C295.0923046 23.4138993 301.95102421 42.85413499 309.9375 63.8125 C310.76830431 65.97798536 311.59985807 68.14318332 312.43212891 70.30810547 C313.70448382 73.61784581 314.97640361 76.92774336 316.24572754 80.23864746 C319.00717482 87.4381065 321.80009808 94.62445763 324.62109375 101.80078125 C324.98430222 102.72572891 325.34751068 103.65067657 325.72172546 104.60365295 C327.10205292 108.11778426 328.48262826 111.63179962 329.86984253 115.14321899 C341.09855577 143.5784833 348.61312451 169.23023487 336.37109375 198.9453125 C327.22400145 219.32430446 311.81437453 235.19081623 290.94506836 243.58862305 C268.86674236 251.97573097 245.2692135 251.14866088 223.59765625 241.71875 C201.88718021 231.34675276 189.51758259 214.43226272 179.89233398 193.04589844 C174.93018411 182.15000182 168.57937827 175.57076456 157.4140625 170.85351562 C149.01744805 167.90903946 140.2853447 168.42418482 131.5 168.46875 C129.61393026 168.46604969 127.72786189 168.4621628 125.84179688 168.45715332 C121.90481199 168.45128362 117.96819216 168.45973916 114.03125 168.47851562 C109.01138237 168.50130361 103.9923705 168.48816688 98.97253418 168.46422577 C95.08261795 168.44969909 91.1929011 168.45440511 87.30297852 168.46473694 C85.45320532 168.46738528 83.6034134 168.46420191 81.75366211 168.45481873 C67.73759471 168.39930464 56.16524217 169.41798941 45.375 179.4375 C42.07601745 182.99692854 39.25370543 186.32421939 37.10546875 190.6875 C36.75589111 191.39624268 36.40631348 192.10498535 36.04614258 192.83520508 C35.08484116 194.82443721 34.14388111 196.821569 33.2109375 198.82421875 C23.25287241 219.98307646 8.09326587 235.93473177 -14.125 244.375 C-37.13149372 252.60450502 -61.05336049 250.26927933 -83 240 C-103.12158269 229.43616909 -117.22959504 210.93018566 -124.12890625 189.4921875 C-126.09402604 181.91650833 -127.15380084 174.39471477 -127.25 166.5625 C-127.27578125 165.32628906 -127.3015625 164.09007812 -127.328125 162.81640625 C-126.70993549 148.32293711 -121.89864798 135.44744138 -116.625 122.125 C-115.90832147 120.28335125 -115.19309206 118.44113797 -114.47924805 116.59838867 C-113.03141913 112.8658429 -111.57678154 109.13607803 -110.11572266 105.40869141 C-107.25359911 98.1020805 -104.43753037 90.7779975 -101.63226318 83.44940186 C-100.84224229 81.39003013 -100.04691053 79.33278195 -99.25048828 77.27587891 C-96.81932361 70.96873579 -94.52247791 64.64372056 -92.4375 58.21484375 C-90.39848034 52.0119313 -88.03715562 46.12151819 -85.1875 40.25 C-84.539021 38.90578979 -84.539021 38.90578979 -83.87744141 37.53442383 C-80.54113393 30.77769513 -76.95364078 24.72039576 -72 19 C-71.37738281 18.27941406 -70.75476563 17.55882812 -70.11328125 16.81640625 C-55.07601216 0.681081 -21.04731903 -12.67889802 0 0 Z M-43.8125 56.75 C-52.27874604 67.15767835 -54.146867 77.96159582 -53 91 C-50.8033285 101.77163014 -44.22275415 110.12683622 -35.4296875 116.4921875 C-25.73128146 122.51081247 -15.01682119 123.78597518 -3.87890625 121.3046875 C6.97950206 117.72035854 15.87695651 110.1513501 21.3125 100.0625 C26.1815363 89.38405558 26.01431086 78.90250335 22 68 C17.31724485 57.83902168 9.52703141 50.00027194 -1 46 C-16.08947448 40.57527157 -32.93160193 45.09189492 -43.8125 56.75 Z M211.33203125 53.0625 C209.51627027 57.06675881 209.67074949 60.47638834 209.8125 64.8125 C209.82603516 65.60076172 209.83957031 66.38902344 209.85351562 67.20117188 C209.88866544 69.13441169 209.94246639 71.06729682 210 73 C208.91460937 72.96519531 207.82921875 72.93039062 206.7109375 72.89453125 C205.26564058 72.86637612 203.82032679 72.83907781 202.375 72.8125 C201.30572266 72.77479492 201.30572266 72.77479492 200.21484375 72.73632812 C195.39090847 72.66994369 192.19331674 73.36023133 188 76 C185.8020253 78.71083547 185.07602123 80.48957172 184.5625 83.9375 C185.13707711 87.95953977 186.34075972 89.93164583 189 93 C195.4340838 97.19614161 202.55377737 96.27884606 210 96 C209.93039062 97.62808594 209.93039062 97.62808594 209.859375 99.2890625 C209.82183513 100.73434731 209.78543736 102.17966211 209.75 103.625 C209.71648437 104.33785156 209.68296875 105.05070312 209.6484375 105.78515625 C209.55280274 110.99725084 210.55241359 113.87033714 214 118 C217.6887638 120.45917586 220.7184429 120.81591937 225 120 C228.0220794 118.25549494 230.41651082 116.16697836 232 113 C232.07194869 110.11629667 232.09291708 107.25760336 232.0625 104.375 C232.05798828 103.57320312 232.05347656 102.77140625 232.04882812 101.9453125 C232.03703168 99.96350994 232.01909605 97.98174567 232 96 C233.39412109 96.05220703 233.39412109 96.05220703 234.81640625 96.10546875 C246.09445974 96.43829666 246.09445974 96.43829666 255.4375 90.8125 C257.50423403 87.09237875 257.84326976 84.16575262 257 80 C254.84256752 76.45564664 252.88152262 74.41146277 249 73 C246.07859374 72.76089459 243.17858246 72.81186306 240.25 72.875 C239.06083984 72.88853516 239.06083984 72.88853516 237.84765625 72.90234375 C235.89830719 72.92582988 233.94911425 72.96169863 232 73 C232.04640625 71.84242188 232.0928125 70.68484375 232.140625 69.4921875 C232.17816248 67.95315094 232.21456051 66.4140863 232.25 64.875 C232.28351563 64.11445313 232.31703125 63.35390625 232.3515625 62.5703125 C232.44395763 57.21139522 231.54494074 54.26182115 228 50 C222.34805115 45.98893952 215.57106884 47.82078607 211.33203125 53.0625 Z " fill="#E5B86B" transform="translate(148,208)"/>
<path d="M0 0 C20.48280809 16.48959307 32.83388755 38.94631822 36.7019043 64.87524414 C38.59836315 95.66850433 32.35797272 121.38282983 12.09472656 145.09936523 C3.38884051 154.93441748 -6.74529133 161.87744675 -18.2980957 167.87524414 C-19.66901367 168.6003418 -19.66901367 168.6003418 -21.06762695 169.34008789 C-43.61456623 180.46144175 -70.68150051 180.3777528 -94.3605957 173.18774414 C-116.07711304 165.2854273 -133.30721587 152.02255346 -146.2980957 132.87524414 C-146.82274414 132.13016602 -147.34739258 131.38508789 -147.88793945 130.61743164 C-162.50459621 108.36289324 -164.79547716 80.69021299 -159.79858398 55.18383789 C-154.35424024 30.07080646 -138.19068237 8.02742784 -116.84106445 -6.02709961 C-80.29542186 -28.24477679 -33.90717261 -26.59434595 0 0 Z M-49.2980957 20.87524414 C-53.49371511 24.55368679 -55.42612835 27.91028015 -56.98950195 33.16552734 C-57.3296785 34.23997856 -57.3296785 34.23997856 -57.67672729 35.33613586 C-58.41954773 37.69507091 -59.1400781 40.06019245 -59.8605957 42.42602539 C-60.37819466 44.08491369 -60.89718038 45.74336987 -61.41748047 47.40141296 C-62.78396506 51.76896252 -64.1316694 56.14208708 -65.47546387 60.5166626 C-66.82966702 64.9137536 -68.20125553 69.30540724 -69.5715332 73.69750977 C-71.82221699 80.91895201 -74.06952356 88.14145504 -76.28413391 95.37405872 C-77.40623545 99.03075547 -78.55444873 102.67541292 -79.75561523 106.30697632 C-79.98918228 107.02312449 -80.22274933 107.73927267 -80.46339417 108.47712231 C-81.10168727 110.42874588 -81.75041199 112.37694907 -82.39990234 114.32487488 C-83.47571779 118.57734684 -84.40631926 122.90506893 -82.1730957 126.87524414 C-80.2110859 128.11053826 -80.2110859 128.11053826 -77.2980957 127.87524414 C-73.45917372 126.59560348 -73.1065982 125.42460217 -71.2980957 121.87524414 C-70.48821296 119.68712367 -69.74429656 117.47403169 -69.04907227 115.24682617 C-68.84529968 114.60029083 -68.6415271 113.95375549 -68.43157959 113.28762817 C-67.76105183 111.15467042 -67.09983509 109.018949 -66.4387207 106.88305664 C-65.96707513 105.37571508 -65.49487646 103.86854648 -65.02215576 102.36154175 C-63.77619482 98.38390189 -62.53821331 94.40382094 -61.30175781 90.42321777 C-60.06869559 86.45900462 -58.82748758 82.49734446 -57.5871582 78.53540039 C-55.45260453 71.71432213 -53.33367139 64.88852852 -51.22238922 58.060215 C-49.84009421 53.59794122 -48.42868119 49.14595259 -46.99926758 44.69848633 C-46.66231873 43.63516083 -46.32536987 42.57183533 -45.97821045 41.47628784 C-45.37124926 39.56129495 -44.75475381 37.649283 -44.12628174 35.74124146 C-42.65857977 31.06222572 -41.93354945 27.75444047 -43.2980957 22.87524414 C-45.2780957 22.21524414 -47.2580957 21.55524414 -49.2980957 20.87524414 Z M-111.6652832 47.48071289 C-112.34487091 48.15693192 -113.02445862 48.83315094 -113.72463989 49.52986145 C-115.15552238 50.96104256 -116.57895673 52.39970384 -117.99536133 53.84521484 C-120.16721587 56.05675686 -122.3668979 58.2374485 -124.5715332 60.41625977 C-125.95871036 61.8109954 -127.34418699 63.20742484 -128.7277832 64.60571289 C-129.38704803 65.25799362 -130.04631287 65.91027435 -130.72555542 66.58232117 C-133.16263441 69.09636377 -135.01846209 71.02404075 -136.11938477 74.37524414 C-134.75618263 78.52482495 -131.78763045 81.11734346 -128.7277832 84.14477539 C-128.05393585 84.82577805 -127.3800885 85.5067807 -126.68582153 86.2084198 C-125.2578128 87.6442095 -123.82337187 89.07362624 -122.38305664 90.49707031 C-120.18274058 92.67818344 -118.0132869 94.8869795 -115.8449707 97.09985352 C-114.45351339 98.49160122 -113.06033903 99.88163478 -111.6652832 101.26977539 C-111.01816376 101.93217728 -110.37104431 102.59457916 -109.70431519 103.27705383 C-105.9427735 106.96577397 -105.9427735 106.96577397 -100.95874023 108.39355469 C-98.2184483 108.09008054 -98.2184483 108.09008054 -96.3605957 106.18774414 C-94.96329058 103.14655064 -95.24591232 102.04605537 -96.2980957 98.87524414 C-98.02860539 96.80552611 -99.71199579 94.99391654 -101.64575195 93.13696289 C-102.44268715 92.34851738 -102.44268715 92.34851738 -103.25572205 91.54414368 C-104.94816152 89.87402366 -106.65399566 88.21837937 -108.3605957 86.56274414 C-109.51320144 85.43020906 -110.66490512 84.29675515 -111.81567383 83.16235352 C-114.63280691 80.38922883 -117.46203299 77.62900121 -120.2980957 74.87524414 C-114.81209103 68.22822717 -108.72329132 62.31525061 -102.49145508 56.37133789 C-101.31873047 55.2247168 -101.31873047 55.2247168 -100.12231445 54.05493164 C-99.05630005 53.02988525 -99.05630005 53.02988525 -97.96875 51.98413086 C-96.04481345 49.55552295 -95.54862664 47.94385514 -95.2980957 44.87524414 C-96.2195349 42.45220046 -96.2195349 42.45220046 -98.2980957 40.87524414 C-104.72639323 39.62297073 -107.49624341 43.21321661 -111.6652832 47.48071289 Z M-28.2355957 42.00024414 C-29.70206439 44.58813006 -29.72746281 45.9177635 -29.2980957 48.87524414 C-27.5901712 50.95899096 -25.97619085 52.66389523 -24.01293945 54.47290039 C-23.4778627 54.98904404 -22.94278595 55.50518768 -22.39149475 56.03697205 C-20.68435022 57.68309876 -18.96222094 59.31207709 -17.2355957 60.93774414 C-14.95965457 63.08101417 -12.70054281 65.24005709 -10.45043945 67.41040039 C-9.65524147 68.14336082 -9.65524147 68.14336082 -8.84397888 68.89112854 C-5.34126745 72.27346053 -5.34126745 72.27346053 -5.15332031 74.89331055 C-6.82985706 77.79587512 -9.01038706 79.76858904 -11.4621582 82.05102539 C-12.51234569 83.05353912 -13.56180289 84.05681832 -14.6105957 85.06079102 C-16.26626102 86.62969121 -17.92720748 88.19154676 -19.60180664 89.74023438 C-21.21922366 91.24256412 -22.81027404 92.76914202 -24.3996582 94.30102539 C-25.84332764 95.65321167 -25.84332764 95.65321167 -27.31616211 97.03271484 C-29.66954221 99.81547136 -29.66954221 99.81547136 -29.22924805 103.66113281 C-28.76832764 105.25211792 -28.76832764 105.25211792 -28.2980957 106.87524414 C-25.32077823 108.36390287 -23.61888591 108.33928043 -20.2980957 107.87524414 C-17.60712163 106.05434503 -15.43687344 103.78346373 -13.18481445 101.45336914 C-12.52979446 100.79697449 -11.87477448 100.14057983 -11.1999054 99.46429443 C-9.8204549 98.07579387 -8.44829025 96.68002197 -7.08300781 95.27758789 C-4.99134886 93.13114797 -2.87665699 91.00970829 -0.75708008 88.89086914 C0.58093275 87.53810975 1.91756948 86.18398759 3.25268555 84.82836914 C3.88491531 84.1928009 4.51714508 83.55723267 5.16853333 82.90240479 C5.7497142 82.30208435 6.33089508 81.70176392 6.9296875 81.08325195 C7.44231644 80.55918762 7.95494537 80.03512329 8.48310852 79.49517822 C9.90342189 77.60740172 10.38988297 76.2099228 10.7019043 73.87524414 C8.64941214 69.34320601 5.19640938 66.01647595 1.7487793 62.51586914 C1.17033264 61.92602234 0.59188599 61.33617554 -0.00408936 60.72845459 C-1.22508887 59.48863443 -2.44896566 58.25164202 -3.67553711 57.01733398 C-5.54238654 55.13101286 -7.38681995 53.2244411 -9.23168945 51.31665039 C-10.4243734 50.11090976 -11.61834233 48.90643856 -12.8137207 47.70336914 C-13.35877258 47.13362366 -13.90382446 46.56387817 -14.46539307 45.97686768 C-18.21938814 42.26535829 -22.96827212 38.94179819 -28.2355957 42.00024414 Z " fill="#E5B86B" transform="translate(315.298095703125,76.124755859375)"/>
</svg>
